<svg width="163" height="38" viewBox="0 0 163 38" fill="none" xmlns="http://www.w3.org/2000/svg">
<g opacity="0.95">
<path fill-rule="evenodd" clip-rule="evenodd" d="M60.7853 13.8227H56.7196L55.9003 18.4952H59.9964C60.7045 18.4952 61.3165 18.2732 61.8319 17.8276C62.3484 17.383 62.6665 16.8266 62.7877 16.159C62.9095 15.5118 62.7925 14.9601 62.4387 14.5056C62.0849 14.0505 61.5338 13.8227 60.7853 13.8227ZM62.0893 24.7149C62.2111 23.9864 62.0794 23.3907 61.6952 22.9251C61.3109 22.4595 60.7341 22.227 59.9657 22.227H55.2628L54.3836 27.2333H59.0251C59.814 27.2333 60.4864 26.996 61.0427 26.52C61.5991 26.045 61.9481 25.4434 62.0893 24.7149ZM66.9752 16.0378C66.7117 17.7972 65.8115 19.2034 64.2741 20.2552C65.832 21.3475 66.4692 22.9757 66.1857 25.1403C65.9228 26.9201 65.1087 28.3667 63.744 29.4784C62.3783 30.5911 60.5528 31.1475 58.2669 31.1475H49.4983L53.2302 9.90881H61.2708C63.132 9.90881 64.6185 10.4851 65.7312 11.6383C66.8434 12.7909 67.2581 14.258 66.9752 16.0378Z" fill="white"/>
<path fill-rule="evenodd" clip-rule="evenodd" d="M79.6272 15.9767H83.9664L75.7736 31.1473C74.5401 33.4536 73.1891 35.066 71.7231 35.9867C70.2561 36.9073 68.5723 37.3167 66.6711 37.2159L67.3083 33.5743C68.3801 33.5943 69.2299 33.3975 69.8577 32.9828C70.4839 32.5681 71.0707 31.8249 71.6171 30.7526L71.7079 30.6014L68.1886 15.9767H72.1934L74.4388 26.2014L79.6272 15.9767Z" fill="white"/>
<path fill-rule="evenodd" clip-rule="evenodd" d="M100.058 9.90881L99.3605 13.9136H93.6257L90.5919 31.1475H86.4044L89.4393 13.9136H83.7344L84.4325 9.90881H100.058Z" fill="white"/>
<path fill-rule="evenodd" clip-rule="evenodd" d="M103.426 18.404C104.518 16.5433 106.217 15.6332 108.523 15.6736L107.765 20.0427C107.056 19.9618 106.364 20.0075 105.686 20.1791C105.009 20.3508 104.356 20.7402 103.729 21.347C103.102 21.9543 102.687 22.7531 102.485 23.7441L101.181 31.147H97.2668L99.9369 15.9764H103.851L103.426 18.404Z" fill="white"/>
<path fill-rule="evenodd" clip-rule="evenodd" d="M116.169 27.8404C117.342 27.8404 118.384 27.4719 119.294 26.7329C120.204 25.9949 120.791 25.0187 121.054 23.8051L121.115 23.3196C121.276 22.0862 121.019 21.1046 120.341 20.3761C119.663 19.6486 118.748 19.2844 117.595 19.2844C116.401 19.2844 115.35 19.6638 114.44 20.4218C113.53 21.1807 112.963 22.2174 112.741 23.5317C112.518 24.8066 112.73 25.8427 113.378 26.6421C114.025 27.441 114.955 27.8404 116.169 27.8404ZM122.419 15.9765H126.333L123.663 31.1476H119.749L119.992 29.752C118.677 30.9655 116.998 31.5722 114.955 31.5722C112.669 31.5722 110.971 30.7335 109.858 29.0544C108.745 27.3748 108.402 25.4238 108.826 23.1978C109.21 21.0337 110.187 19.2187 111.754 17.7517C113.322 16.2857 115.198 15.5524 117.383 15.5524C119.526 15.5524 121.084 16.3712 122.055 18.0099L122.419 15.9765Z" fill="white"/>
<path fill-rule="evenodd" clip-rule="evenodd" d="M134.616 27.8403C135.85 27.8403 136.927 27.4462 137.847 26.6567C138.768 25.8684 139.33 24.847 139.532 23.5925C139.774 22.2777 139.562 21.2311 138.895 20.4522C138.227 19.6738 137.286 19.2843 136.073 19.2843C134.879 19.2843 133.817 19.6638 132.887 20.4217C131.957 21.1807 131.38 22.2173 131.157 23.5316C130.935 24.8065 131.152 25.8427 131.81 26.642C132.467 27.4409 133.403 27.8403 134.616 27.8403ZM141.958 9.90881H145.873L142.141 31.1475H138.227L138.47 29.691C137.154 30.9454 135.455 31.5721 133.372 31.5721C131.086 31.5721 129.387 30.7334 128.275 29.0543C127.162 27.3747 126.819 25.4237 127.243 23.1977C127.628 21.0336 128.603 19.2186 130.171 17.7515C131.739 16.2856 133.615 15.5523 135.8 15.5523C137.984 15.5523 139.562 16.3916 140.532 18.0707L141.958 9.90881Z" fill="white"/>
<path fill-rule="evenodd" clip-rule="evenodd" d="M150.606 22.1054H158.313C158.292 21.074 157.984 20.3108 157.387 19.8148C156.79 19.3193 156.026 19.0716 155.096 19.0716C154.084 19.0716 153.189 19.3351 152.411 19.8605C151.632 20.3869 151.031 21.1344 150.606 22.1054ZM149.392 17.7517C151.111 16.2857 153.093 15.5524 155.339 15.5524C157.584 15.5524 159.354 16.3256 160.648 17.8734C161.943 19.4208 162.378 21.3172 161.953 23.5621C161.912 24.0072 161.771 24.5436 161.529 25.1703H150.06C150.14 26.1408 150.515 26.8594 151.182 27.3244C151.85 27.79 152.689 28.022 153.7 28.022C155.218 28.022 156.462 27.5065 157.433 26.4746L160.194 28.6896C158.494 30.6117 156.229 31.5722 153.397 31.5722C150.889 31.5722 148.983 30.7734 147.678 29.1756C146.373 27.5774 145.913 25.6054 146.297 23.2587C146.641 21.0542 147.672 19.2187 149.392 17.7517Z" fill="white"/>
</g>
<path fill-rule="evenodd" clip-rule="evenodd" d="M29.943 15.0099L27.0475 22.1086C27.7257 22.9968 28.2612 23.9975 28.6114 25.079L29.975 29.2921C29.9804 29.3089 29.9829 29.3257 29.9878 29.3424L35.8344 15.0099H29.943Z" fill="url(#paint0_linear_728_180)"/>
<path fill-rule="evenodd" clip-rule="evenodd" d="M39.8788 0.970478C39.4961 0.702192 38.9058 0.713535 39.142 0.936449C40.1047 1.84586 40.7054 3.13452 40.7054 4.56373C40.7054 7.31316 38.4822 9.54328 35.7352 9.55512H21.4761C23.1174 10.614 24.3992 12.2148 25.0423 14.1683L25.3165 15.0012C25.3175 15.0042 25.3184 15.0076 25.3194 15.0101H29.9434H35.713V15.0274C39.8581 14.8858 43.1762 11.4824 43.1762 7.3028C43.1762 4.68258 41.8727 2.36813 39.8788 0.970478Z" fill="#00E0AA"/>
<path fill-rule="evenodd" clip-rule="evenodd" d="M9.23676 19.6262L14.5004 32.5503C15.3062 34.5289 17.2069 35.8072 19.3433 35.8072H24.2193C25.7023 35.8072 27.1083 35.0911 27.9807 33.8912C28.8537 32.6923 29.1012 31.1334 28.645 29.7229L27.2814 25.5093V25.5088C26.1417 21.99 22.8917 19.6257 19.1929 19.6257L9.23676 19.6262ZM17.3479 25.0806H19.1924C20.5175 25.0806 21.6824 25.9279 22.0907 27.1889L22.9055 29.7065C23.0085 30.0256 22.7713 30.3521 22.4364 30.3521H19.4952L17.3479 25.0806Z" fill="url(#paint1_linear_728_180)"/>
<path fill-rule="evenodd" clip-rule="evenodd" d="M16.7357 15.0103C17.5549 15.0103 18.2764 15.533 18.5329 16.3103L18.8066 17.1437C18.9984 17.7267 18.9022 18.3466 18.5422 18.8437C18.1822 19.3408 17.6239 19.6259 17.0104 19.6259H15.124L13.684 16.1016H7.79108L11.4598 25.0808H17.0099H17.0109C19.3944 25.0808 21.5639 23.9727 22.9615 22.0414C24.3597 20.1097 24.7335 17.7035 23.9883 15.4388L23.7141 14.6054C23.4098 13.6812 22.6385 13.3606 21.7148 13.3601C19.6183 13.3601 16.7357 15.0103 16.7357 15.0103Z" fill="url(#paint2_linear_728_180)"/>
<path fill-rule="evenodd" clip-rule="evenodd" d="M3.89261 0.769287C3.7269 0.773232 3.48673 0.837345 3.29685 0.970501C1.30296 2.36815 0 4.68261 0 7.30283C0 11.4825 3.31757 14.8853 7.46317 15.0269V15.0101H13.2377H16.7358C17.5549 15.0101 18.2765 15.5329 18.5329 16.3101L18.8066 17.1436C18.9694 17.6377 18.9131 18.1546 18.6759 18.6048L23.9632 20.0735C24.4697 18.592 24.4973 16.9848 23.9884 15.4387L23.7142 14.6052C22.7199 11.5845 19.9163 9.55514 16.7358 9.55514H16.3432H7.46317H7.44344C4.695 9.54479 2.4703 7.31417 2.4703 4.56375C2.4703 3.13454 3.07147 1.84588 4.03415 0.935979C4.14511 0.830934 4.07311 0.773232 3.92515 0.769287H3.89261Z" fill="url(#paint3_linear_728_180)"/>
<defs>
<linearGradient id="paint0_linear_728_180" x1="27.0475" y1="15.0099" x2="27.0475" y2="29.3424" gradientUnits="userSpaceOnUse">
<stop offset="0.000892052" stop-color="#03989A"/>
<stop offset="0.276271" stop-color="#00E0AA"/>
<stop offset="1" stop-color="#00E0AA"/>
</linearGradient>
<linearGradient id="paint1_linear_728_180" x1="14.958" y1="17.6674" x2="10.3921" y2="33.6811" gradientUnits="userSpaceOnUse">
<stop stop-color="#03989A"/>
<stop offset="0.409966" stop-color="#00E0AA"/>
<stop offset="1" stop-color="#00E0AA"/>
</linearGradient>
<linearGradient id="paint2_linear_728_180" x1="2.48722" y1="16.7112" x2="8.33411" y2="27.2988" gradientUnits="userSpaceOnUse">
<stop stop-color="#03989A"/>
<stop offset="0.687018" stop-color="#00E0AA"/>
<stop offset="1" stop-color="#00E0AA"/>
</linearGradient>
<linearGradient id="paint3_linear_728_180" x1="0" y1="0.769287" x2="0" y2="20.0735" gradientUnits="userSpaceOnUse">
<stop stop-color="#00E0AA"/>
<stop offset="0.714856" stop-color="#00E0AA"/>
<stop offset="0.999919" stop-color="#00E0AA" stop-opacity="0.5"/>
</linearGradient>
</defs>
</svg>
