<svg width="525" height="74" viewBox="0 0 525 74" fill="none" xmlns="http://www.w3.org/2000/svg">
<path d="M1.744 21.408C1.744 17.312 2.8 13.696 4.912 10.56C7.024 7.424 9.936 4.992 13.648 3.264C17.424 1.472 21.776 0.575998 26.704 0.575998C31.44 0.575998 35.536 1.408 38.992 3.07199C42.512 4.736 45.232 7.104 47.152 10.176C49.136 13.248 50.192 16.896 50.32 21.12H38.032C37.904 18.112 36.816 15.776 34.768 14.112C32.72 12.384 29.968 11.52 26.512 11.52C22.736 11.52 19.696 12.384 17.392 14.112C15.152 15.776 14.032 18.08 14.032 21.024C14.032 23.52 14.704 25.504 16.048 26.976C17.456 28.384 19.632 29.44 22.576 30.144L33.616 32.64C39.632 33.92 44.112 36.128 47.056 39.264C50 42.336 51.472 46.496 51.472 51.744C51.472 56.032 50.416 59.808 48.304 63.072C46.192 66.336 43.184 68.864 39.28 70.656C35.44 72.384 30.928 73.248 25.744 73.248C20.816 73.248 16.496 72.416 12.784 70.752C9.072 69.024 6.16 66.624 4.048 63.552C2 60.48 0.912 56.864 0.784 52.704H13.072C13.136 55.648 14.288 57.984 16.528 59.712C18.832 61.376 21.936 62.208 25.84 62.208C29.936 62.208 33.168 61.376 35.536 59.712C37.968 57.984 39.184 55.712 39.184 52.896C39.184 50.464 38.544 48.544 37.264 47.136C35.984 45.664 33.904 44.64 31.024 44.064L19.888 41.568C13.936 40.288 9.424 37.984 6.352 34.656C3.28 31.264 1.744 26.848 1.744 21.408ZM74.8765 1.824V72H62.5885V1.824H74.8765ZM90.3325 47.808H71.9005V36.864H87.7405C91.9645 36.864 95.1645 35.808 97.3405 33.696C99.5805 31.52 100.701 28.512 100.701 24.672C100.701 20.832 99.5805 17.888 97.3405 15.84C95.1645 13.792 92.0285 12.768 87.9325 12.768H70.7485V1.824H90.3325C95.0685 1.824 99.1645 2.784 102.621 4.704C106.077 6.624 108.765 9.312 110.685 12.768C112.605 16.16 113.565 20.16 113.565 24.768C113.565 29.248 112.605 33.248 110.685 36.768C108.765 40.224 106.077 42.944 102.621 44.928C99.1645 46.848 95.0685 47.808 90.3325 47.808ZM136.189 1.824V72H123.901V1.824H136.189ZM163.841 72H151.745V1.824H163.937L200.417 57.024H196.865V1.824H208.961V72H196.865L160.289 16.896H163.841V72ZM263.496 31.296L268.488 37.728C265.672 39.072 263.368 40.48 261.576 41.952C259.848 43.424 258.568 44.992 257.736 46.656C256.904 48.32 256.488 50.176 256.488 52.224C256.488 55.68 257.768 58.368 260.328 60.288C262.952 62.208 266.504 63.168 270.984 63.168C277.576 63.168 282.664 61.024 286.248 56.736C289.896 52.384 291.72 46.304 291.72 38.496H303.144C303.144 45.472 301.768 51.584 299.016 56.832C296.264 62.016 292.36 66.048 287.304 68.928C282.312 71.808 276.424 73.248 269.64 73.248C264.584 73.248 260.136 72.416 256.296 70.752C252.456 69.024 249.448 66.688 247.272 63.744C245.16 60.8 244.104 57.344 244.104 53.376C244.104 50.304 244.84 47.424 246.312 44.736C247.784 42.048 249.96 39.584 252.84 37.344C255.72 35.104 259.272 33.088 263.496 31.296ZM273.96 35.712L268.392 29.088C271.4 27.552 273.608 25.728 275.016 23.616C276.488 21.504 277.224 19.136 277.224 16.512C277.224 14.464 276.648 12.864 275.496 11.712C274.408 10.56 272.84 9.984 270.792 9.984C268.68 9.984 267.016 10.592 265.8 11.808C264.584 12.96 263.976 14.56 263.976 16.608C263.976 17.824 264.168 19.008 264.552 20.16C265 21.312 265.704 22.592 266.664 24C267.688 25.408 269.032 27.072 270.696 28.992L309.096 72H295.464L261.288 33.6C258.216 30.144 256.04 27.168 254.76 24.672C253.48 22.112 252.84 19.456 252.84 16.704C252.84 13.568 253.608 10.816 255.144 8.44799C256.744 6.016 258.888 4.128 261.576 2.784C264.264 1.376 267.336 0.671997 270.792 0.671997C274.248 0.671997 277.256 1.312 279.816 2.592C282.44 3.872 284.488 5.696 285.96 8.064C287.432 10.368 288.167 13.056 288.167 16.128C288.167 19.84 287.048 23.264 284.808 26.4C282.568 29.472 278.952 32.576 273.96 35.712ZM354.774 72L333.846 1.824H346.614L357.75 38.88C358.326 40.8 358.87 42.848 359.382 45.024C359.894 47.136 360.406 49.728 360.918 52.8C361.494 49.664 362.038 47.072 362.55 45.024C363.126 42.912 363.702 40.864 364.278 38.88L375.414 1.824H388.95L399.798 38.88C400.374 40.864 400.918 42.944 401.43 45.12C402.006 47.296 402.582 49.856 403.158 52.8C403.798 49.536 404.374 46.88 404.886 44.832C405.462 42.72 406.006 40.8 406.518 39.072L417.846 1.824H430.326L409.014 72H397.11L382.134 20.928L366.774 72H354.774ZM451.845 1.824V72H439.557V1.824H451.845ZM479.497 72H467.401V1.824H479.593L516.073 57.024H512.521V1.824H524.617V72H512.521L475.945 16.896H479.497V72Z" fill="url(#paint0_linear_702_87)"/>
<defs>
<linearGradient id="paint0_linear_702_87" x1="692.9" y1="-73.2593" x2="85.1408" y2="253.1" gradientUnits="userSpaceOnUse">
<stop stop-color="#0D5FFF"/>
<stop offset="0.453125" stop-color="#FF0C8F"/>
<stop offset="0.948165" stop-color="#56FFB8" stop-opacity="0.88"/>
</linearGradient>
</defs>
</svg>
