<svg width="393" height="81" viewBox="0 0 393 81" fill="none" xmlns="http://www.w3.org/2000/svg">
<path d="M97.2087 8.028C97.2087 6.492 97.6047 5.136 98.3967 3.96C99.1887 2.784 100.281 1.872 101.673 1.224C103.089 0.551999 104.721 0.215999 106.569 0.215999C108.345 0.215999 109.881 0.527999 111.177 1.152C112.497 1.776 113.517 2.664 114.237 3.816C114.981 4.968 115.377 6.336 115.425 7.92H110.817C110.769 6.792 110.361 5.916 109.593 5.292C108.825 4.644 107.793 4.32 106.497 4.32C105.081 4.32 103.941 4.644 103.077 5.292C102.237 5.916 101.817 6.78 101.817 7.884C101.817 8.82 102.069 9.564 102.573 10.116C103.101 10.644 103.917 11.04 105.021 11.304L109.161 12.24C111.417 12.72 113.097 13.548 114.201 14.724C115.305 15.876 115.857 17.436 115.857 19.404C115.857 21.012 115.461 22.428 114.669 23.652C113.877 24.876 112.749 25.824 111.285 26.496C109.845 27.144 108.153 27.468 106.209 27.468C104.361 27.468 102.741 27.156 101.349 26.532C99.9567 25.884 98.8647 24.984 98.0727 23.832C97.3047 22.68 96.8967 21.324 96.8487 19.764H101.457C101.481 20.868 101.913 21.744 102.753 22.392C103.617 23.016 104.781 23.328 106.245 23.328C107.781 23.328 108.993 23.016 109.881 22.392C110.793 21.744 111.249 20.892 111.249 19.836C111.249 18.924 111.009 18.204 110.529 17.676C110.049 17.124 109.269 16.74 108.189 16.524L104.013 15.588C101.781 15.108 100.089 14.244 98.9367 12.996C97.7847 11.724 97.2087 10.068 97.2087 8.028ZM124.633 0.684V27H120.025V0.684H124.633ZM130.429 17.928H123.517V13.824H129.457C131.041 13.824 132.241 13.428 133.057 12.636C133.897 11.82 134.317 10.692 134.317 9.252C134.317 7.812 133.897 6.708 133.057 5.94C132.241 5.172 131.065 4.788 129.529 4.788H123.085V0.684H130.429C132.205 0.684 133.741 1.044 135.037 1.764C136.333 2.484 137.341 3.492 138.061 4.788C138.781 6.06 139.141 7.56 139.141 9.288C139.141 10.968 138.781 12.468 138.061 13.788C137.341 15.084 136.333 16.104 135.037 16.848C133.741 17.568 132.205 17.928 130.429 17.928ZM147.626 0.684V27H143.018V0.684H147.626ZM157.995 27H153.459V0.684H158.031L171.711 21.384H170.379V0.684H174.915V27H170.379L156.663 6.336H157.995V27ZM195.366 11.736L197.238 14.148C196.182 14.652 195.318 15.18 194.646 15.732C193.998 16.284 193.518 16.872 193.206 17.496C192.894 18.12 192.738 18.816 192.738 19.584C192.738 20.88 193.218 21.888 194.178 22.608C195.162 23.328 196.494 23.688 198.174 23.688C200.646 23.688 202.554 22.884 203.898 21.276C205.266 19.644 205.95 17.364 205.95 14.436H210.234C210.234 17.052 209.718 19.344 208.686 21.312C207.654 23.256 206.19 24.768 204.294 25.848C202.422 26.928 200.214 27.468 197.67 27.468C195.774 27.468 194.106 27.156 192.666 26.532C191.226 25.884 190.098 25.008 189.282 23.904C188.49 22.8 188.094 21.504 188.094 20.016C188.094 18.864 188.37 17.784 188.922 16.776C189.474 15.768 190.29 14.844 191.37 14.004C192.45 13.164 193.782 12.408 195.366 11.736ZM199.29 13.392L197.202 10.908C198.33 10.332 199.158 9.648 199.686 8.856C200.238 8.064 200.514 7.176 200.514 6.192C200.514 5.424 200.298 4.824 199.866 4.392C199.458 3.96 198.87 3.744 198.102 3.744C197.31 3.744 196.686 3.972 196.23 4.428C195.774 4.86 195.546 5.46 195.546 6.228C195.546 6.684 195.618 7.128 195.762 7.56C195.93 7.992 196.194 8.472 196.554 9C196.938 9.528 197.442 10.152 198.066 10.872L212.466 27H207.354L194.538 12.6C193.386 11.304 192.57 10.188 192.09 9.252C191.61 8.292 191.37 7.296 191.37 6.264C191.37 5.088 191.658 4.056 192.234 3.168C192.834 2.256 193.638 1.548 194.646 1.044C195.654 0.515999 196.806 0.251999 198.102 0.251999C199.398 0.251999 200.526 0.491999 201.486 0.971998C202.47 1.452 203.238 2.136 203.79 3.024C204.342 3.888 204.617 4.896 204.617 6.048C204.617 7.44 204.198 8.724 203.358 9.9C202.518 11.052 201.162 12.216 199.29 13.392ZM229.595 27L221.747 0.684H226.535L230.711 14.58C230.927 15.3 231.131 16.068 231.323 16.884C231.515 17.676 231.707 18.648 231.899 19.8C232.115 18.624 232.319 17.652 232.511 16.884C232.727 16.092 232.943 15.324 233.159 14.58L237.335 0.684H242.411L246.479 14.58C246.695 15.324 246.899 16.104 247.091 16.92C247.307 17.736 247.523 18.696 247.739 19.8C247.979 18.576 248.195 17.58 248.387 16.812C248.603 16.02 248.807 15.3 248.999 14.652L253.247 0.684H257.927L249.935 27H245.471L239.855 7.848L234.095 27H229.595ZM265.997 0.684V27H261.389V0.684H265.997ZM276.366 27H271.83V0.684H276.402L290.082 21.384H288.75V0.684H293.286V27H288.75L275.034 6.336H276.366V27ZM0.982094 70.388V53.684H5.59009V70.1C5.59009 71.996 6.09409 73.448 7.10209 74.456C8.11009 75.464 9.53809 75.968 11.3861 75.968C13.2581 75.968 14.6981 75.464 15.7061 74.456C16.7141 73.424 17.2181 71.972 17.2181 70.1V53.684H21.8261V70.388C21.8261 72.428 21.3941 74.204 20.5301 75.716C19.6901 77.204 18.4901 78.368 16.9301 79.208C15.3701 80.024 13.5221 80.432 11.3861 80.432C9.27409 80.432 7.43809 80.024 5.87809 79.208C4.31809 78.392 3.10609 77.228 2.24209 75.716C1.40209 74.204 0.982094 72.428 0.982094 70.388ZM32.1021 53.684V80H27.4941V53.684H32.1021ZM37.8981 70.928H30.9861V66.824H36.9261C38.5101 66.824 39.7101 66.428 40.5261 65.636C41.3661 64.82 41.7861 63.692 41.7861 62.252C41.7861 60.812 41.3661 59.708 40.5261 58.94C39.7101 58.172 38.5341 57.788 36.9981 57.788H30.5541V53.684H37.8981C39.6741 53.684 41.2101 54.044 42.5061 54.764C43.8021 55.484 44.8101 56.492 45.5301 57.788C46.2501 59.06 46.6101 60.56 46.6101 62.288C46.6101 63.968 46.2501 65.468 45.5301 66.788C44.8101 68.084 43.8021 69.104 42.5061 69.848C41.2101 70.568 39.6741 70.928 37.8981 70.928ZM70.1974 55.88V80H65.5894V55.88H70.1974ZM57.8854 57.932V53.684H77.9014V57.932H57.8854ZM104.38 66.824C104.38 69.488 103.84 71.852 102.76 73.916C101.68 75.956 100.18 77.552 98.2603 78.704C96.3403 79.856 94.1203 80.432 91.6003 80.432C89.1043 80.432 86.8963 79.856 84.9763 78.704C83.0563 77.552 81.5563 75.956 80.4763 73.916C79.4203 71.876 78.8923 69.524 78.8923 66.86C78.8923 64.172 79.4323 61.808 80.5123 59.768C81.5923 57.704 83.0803 56.096 84.9763 54.944C86.8963 53.792 89.1163 53.216 91.6363 53.216C94.1563 53.216 96.3643 53.792 98.2603 54.944C100.18 56.096 101.68 57.692 102.76 59.732C103.84 61.772 104.38 64.136 104.38 66.824ZM99.5563 66.824C99.5563 64.952 99.2323 63.332 98.5843 61.964C97.9363 60.596 97.0243 59.54 95.8483 58.796C94.6723 58.028 93.2683 57.644 91.6363 57.644C90.0283 57.644 88.6243 58.028 87.4243 58.796C86.2483 59.54 85.3363 60.596 84.6883 61.964C84.0403 63.332 83.7163 64.952 83.7163 66.824C83.7163 68.696 84.0403 70.328 84.6883 71.72C85.3363 73.088 86.2483 74.144 87.4243 74.888C88.6243 75.632 90.0283 76.004 91.6363 76.004C93.2683 76.004 94.6723 75.632 95.8483 74.888C97.0243 74.12 97.9363 73.052 98.5843 71.684C99.2323 70.292 99.5563 68.672 99.5563 66.824ZM126.112 80.432C124.288 80.432 122.68 80.072 121.288 79.352C119.92 78.608 118.852 77.576 118.084 76.256C117.34 74.912 116.968 73.352 116.968 71.576H121.504C121.504 73.064 121.924 74.228 122.764 75.068C123.604 75.908 124.756 76.328 126.22 76.328C127.252 76.328 128.14 76.124 128.884 75.716C129.652 75.284 130.24 74.672 130.648 73.88C131.08 73.088 131.296 72.164 131.296 71.108C131.296 70.1 131.092 69.212 130.684 68.444C130.3 67.652 129.736 67.04 128.992 66.608C128.248 66.176 127.348 65.96 126.292 65.96C125.284 65.96 124.348 66.188 123.484 66.644C122.644 67.076 121.984 67.64 121.504 68.336L117.436 67.472L120.676 53.684H134.392V57.932H122.8L124.348 56.492L122.224 64.88L120.676 65.528C121.252 64.424 122.116 63.584 123.268 63.008C124.444 62.408 125.764 62.108 127.228 62.108C128.98 62.108 130.504 62.48 131.8 63.224C133.12 63.968 134.14 65 134.86 66.32C135.604 67.616 135.976 69.128 135.976 70.856C135.976 72.752 135.556 74.42 134.716 75.86C133.9 77.3 132.748 78.428 131.26 79.244C129.796 80.036 128.08 80.432 126.112 80.432ZM154.161 80H149.697V53.684H154.161L162.657 74.636L171.153 53.684H175.689V80H171.225V71.9C171.225 70.58 171.225 69.476 171.225 68.588C171.225 67.676 171.237 66.908 171.261 66.284C171.285 65.66 171.309 65.108 171.333 64.628C171.357 64.148 171.405 63.668 171.477 63.188L164.781 80H160.533L153.873 63.224C153.993 64.016 154.065 65.024 154.089 66.248C154.137 67.472 154.161 68.912 154.161 70.568V80ZM186.122 53.684V80H181.514V53.684H186.122ZM196.563 53.684V80H191.955V53.684H196.563ZM192.747 80V75.752H207.543V80H192.747ZM215.934 53.684V80H211.326V53.684H215.934ZM212.118 80V75.752H226.914V80H212.118ZM235.305 53.684V80H230.697V53.684H235.305ZM265.115 66.824C265.115 69.488 264.575 71.852 263.495 73.916C262.415 75.956 260.915 77.552 258.995 78.704C257.075 79.856 254.855 80.432 252.335 80.432C249.839 80.432 247.631 79.856 245.711 78.704C243.791 77.552 242.291 75.956 241.211 73.916C240.155 71.876 239.627 69.524 239.627 66.86C239.627 64.172 240.167 61.808 241.247 59.768C242.327 57.704 243.815 56.096 245.711 54.944C247.631 53.792 249.851 53.216 252.371 53.216C254.891 53.216 257.099 53.792 258.995 54.944C260.915 56.096 262.415 57.692 263.495 59.732C264.575 61.772 265.115 64.136 265.115 66.824ZM260.291 66.824C260.291 64.952 259.967 63.332 259.319 61.964C258.671 60.596 257.759 59.54 256.583 58.796C255.407 58.028 254.003 57.644 252.371 57.644C250.763 57.644 249.359 58.028 248.159 58.796C246.983 59.54 246.071 60.596 245.423 61.964C244.775 63.332 244.451 64.952 244.451 66.824C244.451 68.696 244.775 70.328 245.423 71.72C246.071 73.088 246.983 74.144 248.159 74.888C249.359 75.632 250.763 76.004 252.371 76.004C254.003 76.004 255.407 75.632 256.583 74.888C257.759 74.12 258.671 73.052 259.319 71.684C259.967 70.292 260.291 68.672 260.291 66.824ZM273.975 80H269.439V53.684H274.011L287.691 74.384H286.359V53.684H290.895V80H286.359L272.643 59.336H273.975V80ZM310.96 80H306.424V53.684H310.996L324.676 74.384H323.344V53.684H327.88V80H323.344L309.628 59.336H310.96V80ZM338.313 53.684V80H333.705V53.684H338.313ZM349.977 57.932H334.065V53.684H349.977V57.932ZM348.105 69.236H333.993V65.096H348.105V69.236ZM364.139 55.88V80H359.531V55.88H364.139ZM351.827 57.932V53.684H371.843V57.932H351.827ZM373.853 61.028C373.853 59.492 374.249 58.136 375.041 56.96C375.833 55.784 376.925 54.872 378.317 54.224C379.733 53.552 381.365 53.216 383.213 53.216C384.989 53.216 386.525 53.528 387.821 54.152C389.141 54.776 390.161 55.664 390.881 56.816C391.625 57.968 392.021 59.336 392.069 60.92H387.461C387.413 59.792 387.005 58.916 386.237 58.292C385.469 57.644 384.437 57.32 383.141 57.32C381.725 57.32 380.585 57.644 379.721 58.292C378.881 58.916 378.461 59.78 378.461 60.884C378.461 61.82 378.713 62.564 379.217 63.116C379.745 63.644 380.561 64.04 381.665 64.304L385.805 65.24C388.061 65.72 389.741 66.548 390.845 67.724C391.949 68.876 392.501 70.436 392.501 72.404C392.501 74.012 392.105 75.428 391.313 76.652C390.521 77.876 389.393 78.824 387.929 79.496C386.489 80.144 384.797 80.468 382.853 80.468C381.005 80.468 379.385 80.156 377.993 79.532C376.601 78.884 375.509 77.984 374.717 76.832C373.949 75.68 373.541 74.324 373.493 72.764H378.101C378.125 73.868 378.557 74.744 379.397 75.392C380.261 76.016 381.425 76.328 382.889 76.328C384.425 76.328 385.637 76.016 386.525 75.392C387.437 74.744 387.893 73.892 387.893 72.836C387.893 71.924 387.653 71.204 387.173 70.676C386.693 70.124 385.913 69.74 384.833 69.524L380.657 68.588C378.425 68.108 376.733 67.244 375.581 65.996C374.429 64.724 373.853 63.068 373.853 61.028Z" fill="url(#paint0_linear_702_6790)"/>
<defs>
<linearGradient id="paint0_linear_702_6790" x1="196" y1="-13" x2="196" y2="93" gradientUnits="userSpaceOnUse">
<stop stop-color="#FF0000"/>
<stop offset="1" stop-color="#FA00FF"/>
</linearGradient>
</defs>
</svg>
