<?xml version="1.0" encoding="utf-8"?>
<!-- Generator: Adobe Illustrator 27.5.0, SVG Export Plug-In . SVG Version: 6.00 Build 0)  -->
<svg version="1.1" id="Layer_1" xmlns="http://www.w3.org/2000/svg" xmlns:xlink="http://www.w3.org/1999/xlink" x="0px" y="0px"
	 viewBox="0 0 324 324" style="enable-background:new 0 0 324 324;" xml:space="preserve">
<style type="text/css">
	.st0{fill:#6D6D6D;}
	.st1{fill-rule:evenodd;clip-rule:evenodd;fill:#FFFFFF;}
	.st2{fill-rule:evenodd;clip-rule:evenodd;fill:#6D6D6D;}
	.st3{fill:#5245E3;}
	.st4{fill-rule:evenodd;clip-rule:evenodd;fill:url(#SVGID_1_);}
	.st5{fill-rule:evenodd;clip-rule:evenodd;fill:#3D2EE0;}
	.st6{fill-rule:evenodd;clip-rule:evenodd;fill:url(#SVGID_00000058558523074961603980000008971170855047884673_);}
	.st7{fill:#FFFFFF;}
	
		.st8{fill-rule:evenodd;clip-rule:evenodd;fill:none;stroke:#FFFFFF;stroke-width:8;stroke-linecap:round;stroke-linejoin:round;stroke-miterlimit:10;}
	.st9{fill:#DCEAFD;}
	.st10{fill:#F8F8F8;}
	.st11{fill:#E3FFF7;}
	.st12{fill:#CAFFF0;}
	.st13{fill:#B1FFE9;}
	.st14{fill:#98FFE2;}
	.st15{fill:#7FFFDC;}
	.st16{fill:#66FED5;}
	.st17{fill:#4DFECE;}
	.st18{fill:#34FEC7;}
	.st19{fill:#1BFEC0;}
	.st20{fill:#E2E1EA;}
	.st21{fill:#C8C7D8;}
	.st22{fill:#AFACC6;}
	.st23{fill:#9592B4;}
	.st24{fill:#7B78A2;}
	.st25{fill:#615D8F;}
	.st26{fill:#48437D;}
	.st27{fill:#2E286B;}
	.st28{fill:#140E59;}
	.st29{fill:#E7E5FB;}
	.st30{fill:#D2CEF8;}
	.st31{fill:#BDB7F4;}
	.st32{fill:#A7A0F1;}
	.st33{fill:#928AEE;}
	.st34{fill:#7D73EA;}
	.st35{fill:#685CE7;}
	.st36{fill:#3D2EE0;}
	.st37{fill:#CCCCCC;}
	.st38{fill:#FF3EFF;}
	.st39{fill:#FFFFFF;stroke:#000000;stroke-miterlimit:10;}
	.st40{fill:url(#SVGID_00000129912443111171492820000005951247130388989109_);}
	.st41{fill:url(#SVGID_00000124862372106622149730000002367744859590301325_);}
	.st42{fill:url(#SVGID_00000010996482105229414320000016619464785618850744_);}
	.st43{fill:#1AE8B7;}
	.st44{fill:#1AD2AD;}
	.st45{fill:#19BDA4;}
	.st46{fill:#18A79B;}
	.st47{fill:#189191;}
	.st48{fill:#177B88;}
	.st49{fill:#17657E;}
	.st50{fill:#164F75;}
	.st51{fill:#153A6C;}
	.st52{fill:#152462;}
	.st53{fill:#EA3AF0;}
	.st54{fill:#D435E1;}
	.st55{fill:#BF31D2;}
	.st56{fill:#AA2DC3;}
	.st57{fill:#9428B4;}
	.st58{fill:#7F24A4;}
	.st59{fill:#691F95;}
	.st60{fill:#541B86;}
	.st61{fill:#3F1777;}
	.st62{fill:#291268;}
	.st63{fill:#4C40D6;}
	.st64{fill:#473BCA;}
	.st65{fill:#4136BD;}
	.st66{fill:#3B31B1;}
	.st67{fill:#362CA4;}
	.st68{fill:#302798;}
	.st69{fill:#2B228B;}
	.st70{fill:#251D7F;}
	.st71{fill:#1F1872;}
	.st72{fill:#1A1366;}
	.st73{fill:#17D5A8;}
	.st74{fill:url(#SVGID_00000164503339702867334440000006569278571262820265_);}
	.st75{fill:url(#SVGID_00000102529052916483565450000004578229848199212721_);}
	.st76{fill:url(#SVGID_00000044861560024192186520000016474005493519298709_);}
	.st77{fill:#FFFFFF;stroke:#3D2EE0;stroke-width:12;stroke-miterlimit:10;}
	.st78{fill:url(#SVGID_00000152236278425359019970000018231087401627383226_);}
	.st79{fill:url(#SVGID_00000070079846407999114770000015927675241353469573_);}
	.st80{fill:url(#SVGID_00000110468382965503733560000014266524075468489118_);}
	.st81{fill:url(#SVGID_00000176020284639842133320000012101390772372501939_);}
	.st82{fill:url(#SVGID_00000178193523633098529000000003643211426017938820_);}
	.st83{fill-rule:evenodd;clip-rule:evenodd;fill:url(#SVGID_00000033362365160931952680000003490411211692152983_);}
	.st84{fill-rule:evenodd;clip-rule:evenodd;fill:url(#SVGID_00000044862097743469224890000001101575424385125540_);}
	.st85{fill:#FFFFFF;stroke:#3D2EE0;stroke-width:8;stroke-miterlimit:10;}
	.st86{fill:url(#SVGID_00000080899371615660859590000007533309925425574055_);}
	.st87{fill:url(#SVGID_00000105418070432460992560000010795055161770939273_);}
	.st88{fill:url(#SVGID_00000008868473318854766050000017493291308302021006_);}
	.st89{fill:url(#SVGID_00000035498698786780663540000007806037309225364888_);}
	.st90{fill:url(#SVGID_00000068646282800980794430000004751866403189638274_);}
	.st91{fill:url(#SVGID_00000012432206010861502880000013926268316749334945_);}
	.st92{fill:url(#SVGID_00000098220262807089588260000011125720191433003397_);}
	.st93{fill:url(#SVGID_00000145758305215506561600000015011717400264033443_);}
	.st94{fill:url(#SVGID_00000044137836628336275460000012269348651807355809_);}
	.st95{fill:url(#SVGID_00000091703134913942317850000015793510313623181197_);}
	.st96{fill:url(#SVGID_00000034074007646086897120000016330124983407559595_);}
	.st97{fill-rule:evenodd;clip-rule:evenodd;fill:url(#SVGID_00000039825122557872617570000001806318225536403081_);}
	.st98{fill:url(#SVGID_00000072958536290086936140000017413896849794356644_);}
	.st99{fill:url(#SVGID_00000133495025723138526570000015876973507741004680_);}
	.st100{fill:url(#SVGID_00000065771855773545024410000001805137559047199125_);}
	.st101{fill:url(#SVGID_00000012474885087013986960000009257686433584110486_);}
	.st102{fill:url(#SVGID_00000021830322680456795440000005911676564115889298_);}
	.st103{fill:url(#SVGID_00000037688468174154754470000011406458920779099543_);}
	.st104{fill:url(#SVGID_00000181047593217520865480000000884982836426738579_);}
	.st105{fill:url(#SVGID_00000083798614908268072780000016741566196733632173_);}
	.st106{fill-rule:evenodd;clip-rule:evenodd;fill:url(#SVGID_00000165957014499274448710000002374562556978719619_);}
	.st107{fill:url(#SVGID_00000005224266126540393500000006342053959165198208_);}
	.st108{fill:url(#SVGID_00000067206201044245459350000006544669278710248615_);}
	.st109{fill-rule:evenodd;clip-rule:evenodd;fill:#FFFFFF;stroke:#6D6D6D;stroke-width:11;stroke-miterlimit:10;}
	.st110{fill-rule:evenodd;clip-rule:evenodd;fill:#FFFFFF;stroke:#3D2EE0;stroke-width:11;stroke-miterlimit:10;}
</style>
<g>
	<g>
		<path class="st0" d="M159.79,60.16c1.25-0.37,2.52-0.54,3.83-0.4c0.34,0.23,0.71,0.4,1.11,0.48c1.39,0.28,2.55,1,3.63,1.87
			c2.86,2.3,4.89,5.27,6.64,8.44c2.15,3.91,3.81,8.03,5.16,12.27c1.21,3.78,2.28,7.59,3.15,11.47c0.51,2.25,0.9,4.52,1.43,6.76
			c0.35,1.48,0.37,3,0.68,4.47c0.38,1.85,0.93,3.66,0.95,5.6c0,0.68,0.12,1.42,0.21,2.13c0.15,1.26,0.48,2.48,0.59,3.74
			c0.08,0.88-0.01,1.79,0.17,2.64c0.33,1.61,0.24,3.25,0.49,4.85c0.14,0.87,0.08,1.75,0.25,2.62c0.29,1.55,0.22,3.14,0.23,4.71
			c-0.46,0.64-1,0.33-1.46,0.05c-0.74-0.47-1.43-1.02-2.14-1.53c-0.02-0.26,0.01-0.51-0.26-0.71c-0.88-0.66-1.53-1.57-2.34-2.32
			c-2.35-2.18-4.94-3.99-7.87-5.26c-3.6-1.55-7.29-2.7-11.31-2.61c-1.82,0.04-3.65,0.02-5.45,0.24c-3.52,0.44-6.85,1.6-9.92,3.37
			c-2.62,1.5-5.08,3.24-7.02,5.58c-0.46,0.55-1.23,0.88-1.35,1.7c-0.8,0.52-1.39,1.34-2.34,1.66c-0.44,0.15-0.84,0.31-1.25-0.03
			c0.18-2.6,0.34-5.2,0.56-7.8c0.12-1.36,0.25-2.73,0.32-4.09c0.13-2.49,0.66-4.93,0.93-7.4c0.13-1.17,0.24-2.34,0.43-3.5
			c0.25-1.56,0.63-3.1,0.84-4.66c0.48-3.66,1.31-7.24,2.06-10.85c0.35-1.67,0.93-3.25,1.34-4.89c0.8-3.16,1.83-6.24,2.96-9.3
			c1.19-3.22,2.57-6.34,4.24-9.33c1.25-2.24,2.63-4.42,4.48-6.21C155.46,62.24,157.31,60.66,159.79,60.16z"/>
		<path class="st0" d="M188.28,131.81c0-1.57,0.07-3.16-0.23-4.71c-0.17-0.87-0.11-1.75-0.25-2.62c-0.25-1.6-0.16-3.24-0.49-4.85
			c-0.18-0.85-0.09-1.76-0.17-2.64c-0.11-1.27-0.44-2.49-0.59-3.74c-0.09-0.71-0.2-1.45-0.21-2.13c-0.01-1.94-0.57-3.74-0.95-5.6
			c-0.3-1.48-0.33-2.99-0.68-4.47c-0.53-2.24-0.92-4.51-1.43-6.76c-0.87-3.88-1.94-7.69-3.15-11.47c-1.36-4.25-3.02-8.37-5.16-12.27
			c-1.74-3.17-3.78-6.14-6.64-8.44c-1.08-0.87-2.25-1.58-3.63-1.87c-0.4-0.08-0.77-0.25-1.11-0.48c1.94-0.1,3.85,0.09,5.77,0.38
			c1.35,0.21,2.74,0.16,4.09,0.35c1.17,0.16,2.3,0.64,3.47,0.72c1.92,0.12,3.66,1.05,5.58,1.14c0.32,0.02,0.63,0.29,0.96,0.39
			c2.98,0.89,5.89,2.01,8.78,3.16c1.32,0.53,2.46,1.44,3.83,1.81c1.37,0.37,2.51,1.23,3.67,1.89c2.06,1.18,4.09,2.48,6.03,3.88
			c4,2.9,7.81,6.02,11.23,9.6c1.86,1.95,3.6,4,5.26,6.12c2.43,3.11,4.59,6.39,6.53,9.81c1.99,3.51,3.61,7.18,5.02,10.96
			c1.21,3.24,2.23,6.54,2.87,9.92c0.54,2.86,1.34,5.69,1.29,8.64c-0.02,1.63-0.51,1.98-2.12,1.45c-0.03-0.48-0.52-0.57-0.76-0.88
			c-1.02-1.35-2.36-2.36-3.62-3.45c-0.32-0.22-0.53-0.55-0.92-0.71c-0.5-0.22-1.01-0.48-1.42-0.83c-1.09-0.91-2.4-1.44-3.63-2.08
			c-1.92-0.98-4.1-1.3-6.09-2.12c-0.15-0.06-0.31-0.09-0.47-0.1c-1.87-0.12-3.74-0.26-5.61-0.35c-0.94-0.04-1.88,0.12-2.8,0.13
			c-1.6,0.01-3.15,0.17-4.69,0.66c-1.88,0.59-3.78,1.12-5.54,2.06c-1.22,0.65-2.4,1.33-3.57,2.07c-1.62,1.04-3.08,2.21-4.3,3.69
			c-0.81,0.59-1.41,1.37-2.04,2.13C189.84,130.89,189.42,131.85,188.28,131.81z"/>
		<path class="st0" d="M159.79,60.16c-2.48,0.51-4.33,2.08-6.06,3.75c-1.85,1.79-3.23,3.96-4.48,6.21
			c-1.67,2.99-3.04,6.12-4.24,9.33c-1.13,3.06-2.16,6.14-2.96,9.3c-0.42,1.64-0.99,3.22-1.34,4.89c-0.75,3.61-1.58,7.19-2.06,10.85
			c-0.2,1.56-0.59,3.1-0.84,4.66c-0.19,1.16-0.3,2.33-0.43,3.5c-0.27,2.47-0.8,4.92-0.93,7.4c-0.07,1.37-0.21,2.73-0.32,4.09
			c-0.22,2.6-0.38,5.2-0.56,7.8c-1.09-0.21-1.53-1.18-2.2-1.89c-0.56-0.59-0.97-1.33-1.75-1.69c-0.2-0.38-0.36-0.77-0.69-1.08
			c-2.45-2.28-5.18-4.15-8.25-5.47c-3.04-1.31-6.21-2.03-9.54-2.23c-2.51-0.15-5.02-0.28-7.49,0.11c-4.71,0.75-8.95,2.7-12.83,5.45
			c-0.17,0.12-0.25,0.27-0.24,0.48c-0.3,0.07-0.54,0.22-0.75,0.44c-1.19,1.3-2.78,2.22-3.69,3.79c-1.45,0.63-2.16,0.15-2.14-1.42
			c0.02-1.99,0.59-3.88,0.88-5.82c0.8-5.33,2.42-10.43,4.44-15.4c0.88-2.16,1.89-4.26,2.91-6.36c0.86-1.75,1.82-3.44,2.88-5.07
			c1.61-2.48,3.16-5.01,5.15-7.23c0.52-0.58,1.04-1.19,1.37-1.93c0.19-0.42,0.68-0.64,1-1.01c1.99-2.25,4.08-4.41,6.33-6.4
			c3.3-2.92,6.8-5.59,10.54-7.91c2.59-1.6,5.28-3.02,8.04-4.34c2.61-1.25,5.29-2.33,8.04-3.23c2.91-0.96,5.87-1.81,8.89-2.42
			c3.31-0.68,6.65-1.08,10-1.47C157.6,59.72,158.72,59.67,159.79,60.16z"/>
		<path class="st0" d="M131.62,128.37c0.78,0.36,1.19,1.1,1.75,1.69c0.67,0.71,1.11,1.68,2.2,1.89c0.41,0.34,0.82,0.17,1.25,0.03
			c0.95-0.32,1.54-1.14,2.34-1.66c0.24,0.19,0.18,0.49,0.28,0.73c1.72,4.15,3.42,8.32,5.14,12.47c2.34,5.62,4.72,11.22,7.05,16.85
			c1.77,4.27,3.49,8.57,5.26,12.85c1.03,2.49,2.15,4.93,3.16,7.43c0.49,1.22,1,2.44,1.56,3.63c0.11,0.23,0.1,0.63,0.43,0.59
			c0.28-0.03,0.29-0.42,0.39-0.66c1.46-3.54,2.88-7.1,4.36-10.63c2.53-6.03,5.12-12.03,7.64-18.06c3.22-7.68,6.41-15.36,9.6-23.05
			c0.29-0.69,0.57-1.39,0.66-2.15c0.71,0.52,1.4,1.07,2.14,1.53c0.45,0.28,0.99,0.6,1.46-0.05c1.14,0.04,1.56-0.92,2.14-1.61
			c0.63-0.76,1.24-1.54,2.04-2.13c-0.33,1.13-1.02,2.1-1.36,3.24c-0.32,1.1-0.88,2.14-1.33,3.2c-2.63,6.32-5.26,12.65-7.89,18.97
			c-1.06,2.55-2.13,5.09-3.19,7.64c-1.95,4.7-3.9,9.4-5.86,14.1c-0.77,1.85-1.67,3.64-2.29,5.55c-0.1,0.17-0.31,0.37-0.09,0.53
			c0.13,0.1,0.24-0.15,0.32-0.28c1.16-0.98,2.16-2.12,3.32-3.1c1.2-1.01,2.34-2.11,3.5-3.17c2.09-1.9,4.13-3.85,6.27-5.7
			c1.57-1.35,3.03-2.82,4.56-4.22c7.21-6.58,14.43-13.15,21.64-19.74c5.12-4.67,10.22-9.37,15.35-14.02
			c2.02-1.83,3.95-3.75,6.09-5.43c1.26,1.09,2.61,2.1,3.62,3.45c0.23,0.31,0.72,0.39,0.76,0.88c-2.95,2.41-5.71,5.03-8.5,7.61
			c-1.1,1.02-2.13,2.16-3.26,3.1c-2.13,1.78-4.11,3.71-6.18,5.53c-1.77,1.55-3.53,3.11-5.21,4.76c-1.72,1.69-3.67,3.13-5.39,4.81
			c-1.44,1.41-2.85,2.91-4.36,4.21c-2.29,1.96-4.46,4.06-6.73,6.04c-1.44,1.25-2.82,2.56-4.23,3.85
			c-4.62,4.23-9.25,8.45-13.87,12.68c-0.92,0.84-1.83,1.68-2.75,2.53c-3.17,0.28-6.34,0.11-9.51,0.15
			c-5.12,0.05-10.23-0.29-15.35-0.16c-0.7,0.02-1.43,0.31-2.1-0.17c-2.55-2.18-4.99-4.49-7.47-6.74c-2.38-2.17-4.73-4.36-7.09-6.56
			c-1.92-1.78-3.84-3.56-5.82-5.27c-2.09-1.81-4.06-3.76-6.1-5.62c-0.64-0.58-1.27-1.16-2.05-1.61c-0.54-0.31-0.84-1.04-1.35-1.49
			c-2.09-1.89-4.17-3.79-6.26-5.69c-0.96-0.87-1.91-1.74-2.87-2.62c-1.87-1.71-3.75-3.42-5.62-5.13c-1.84-1.68-3.68-3.37-5.53-5.04
			c-1.37-1.24-2.78-2.46-4.13-3.72c-1.99-1.87-4.03-3.69-6.04-5.55c0.91-1.57,2.5-2.49,3.69-3.79c0.21-0.23,0.45-0.37,0.75-0.44
			c0.61,0.6,1.19,1.26,1.85,1.8c1.62,1.31,3.05,2.83,4.67,4.15c1.11,0.91,2.05,2.03,3.12,2.99c2.26,2.04,4.55,4.05,6.76,6.14
			c1.45,1.37,3.03,2.62,4.48,3.99c1.88,1.78,3.79,3.53,5.73,5.26c2.3,2.05,4.5,4.21,6.84,6.22c1.56,1.34,3.01,2.8,4.54,4.19
			c1.8,1.64,3.64,3.23,5.41,4.89c1.64,1.54,3.29,3.06,4.97,4.56c4.1,3.66,8.11,7.42,12.16,11.14c0.09,0.08,0.15,0.24,0.32,0.12
			c0.16-0.12,0.03-0.24-0.01-0.35c-0.16-0.45-0.3-0.91-0.48-1.34c-1.95-4.71-3.91-9.42-5.87-14.13
			c-3.39-8.13-6.79-16.25-10.18-24.37C135.13,136.71,133.37,132.54,131.62,128.37z"/>
		<path class="st9" d="M170.54,180.78c0.08,0.09,0.16,0.17,0.23,0.26c-0.08,0.13-0.19,0.37-0.32,0.28
			C170.23,181.16,170.44,180.95,170.54,180.78z"/>
	</g>
	<g>
		<circle class="st0" cx="163.86" cy="219.54" r="44.75"/>
		<g id="tubiao_00000119092655726853124720000015278538946514306965_">
			<path id="Fill-15_00000018938821072177295010000017709121418552554884_" class="st1" d="M174.82,215.96l-3.8,9.7
				c0.89,1.21,1.59,2.58,2.05,4.06l0,0l1.79,5.76c0.01,0.02,0.01,0.05,0.02,0.07l0,0l7.67-19.59H174.82z"/>
			<path id="Fill-17_00000156550678030219793990000005872461918037479297_" class="st1" d="M187.85,196.78
				c-0.5-0.37-1.28-0.35-0.97-0.05c1.26,1.24,2.05,3,2.05,4.96c0,3.76-2.92,6.81-6.52,6.82h-18.7c2.15,1.45,3.83,3.64,4.68,6.31
				l0.36,1.14c0,0,0,0.01,0,0.01h6.07l7.57,0v0.02c5.44-0.19,9.79-4.85,9.79-10.56C192.18,201.85,190.47,198.69,187.85,196.78"/>
			<path id="Fill-19_00000183939174780084111390000006036592823923284882_" class="st1" d="M147.66,222.27l6.9,17.66
				c1.06,2.7,3.55,4.45,6.35,4.45l0,0l6.4,0c1.95,0,3.79-0.98,4.93-2.62l0,0c1.15-1.64,1.47-3.77,0.87-5.7l0,0l-1.79-5.76v0
				c-1.49-4.81-5.76-8.04-10.61-8.04l0,0L147.66,222.27z M158.3,229.73h2.42c1.74,0,3.27,1.16,3.8,2.88l0,0l1.07,3.44
				c0.14,0.44-0.18,0.88-0.62,0.88l0,0h-3.86L158.3,229.73z"/>
			<path id="Fill-21_00000180367696740663784500000016555673399251132344_" class="st1" d="M157.49,215.96
				c1.07,0,2.02,0.71,2.36,1.78l0,0l0.36,1.14c0.25,0.8,0.13,1.64-0.35,2.32l0,0c-0.47,0.68-1.2,1.07-2.01,1.07l0,0h-2.47
				l-1.89-4.82h-7.73l4.81,12.27h7.28h0c3.13,0,5.97-1.51,7.81-4.15l0,0c1.83-2.64,2.32-5.93,1.35-9.02l0,0l-0.36-1.14
				c-0.4-1.26-1.41-1.7-2.62-1.7l0,0C161.28,213.71,157.49,215.96,157.49,215.96"/>
			<path id="Fill-23_00000001654583036774252050000003207171991894718357_" class="st1" d="M140.65,196.5
				c-0.22,0.01-0.53,0.09-0.78,0.28l0,0c-2.62,1.91-4.32,5.07-4.32,8.65l0,0c0,5.71,4.35,10.36,9.79,10.56l0,0v-0.02h7.57h4.59
				c1.07,0,2.02,0.71,2.36,1.78l0,0l0.36,1.14c0.21,0.68,0.14,1.38-0.17,2l0,0l6.94,2.01c0.66-2.02,0.7-4.22,0.03-6.33l0,0
				l-0.36-1.14c-1.3-4.13-4.98-6.9-9.15-6.9l0,0h-0.51h-11.65h-0.03c-3.61-0.01-6.52-3.06-6.52-6.82l0,0c0-1.95,0.79-3.71,2.05-4.96
				l0,0c0.15-0.14,0.05-0.22-0.14-0.23l0,0H140.65z"/>
		</g>
	</g>
</g>
</svg>
