<svg width="36" height="37" viewBox="0 0 36 37" fill="none" xmlns="http://www.w3.org/2000/svg">
<path d="M16.2191 20.4269C16.0773 20.4274 15.9384 20.3876 15.8191 20.3122C15.6997 20.2369 15.6051 20.1292 15.5464 20.0022L12.2339 14.9178L5.17729 4.08692L5.06306 3.93702C4.98691 3.7996 4.96153 3.67468 5.06306 3.57474C5.09089 3.55215 5.1235 3.536 5.15851 3.52747C5.19351 3.51893 5.23002 3.51824 5.26533 3.52543C5.30065 3.53262 5.33387 3.54752 5.36257 3.56902C5.39126 3.59053 5.41469 3.6181 5.43112 3.64969L6.24339 4.6116L17.7294 18.3532C17.8596 18.4978 17.9425 18.6776 17.9674 18.8692C17.9923 19.0608 17.958 19.2554 17.869 19.4276C17.7634 19.7624 17.5379 20.0482 17.2346 20.232C16.9312 20.4158 16.5704 20.485 16.2191 20.4269Z" fill="#3D2EE0"/>
<path d="M20.0655 14.9434C20.0631 15.0663 20.0279 15.1865 19.9632 15.2918C19.8986 15.3971 19.8069 15.4837 19.6975 15.543C19.5906 15.6139 19.4646 15.6518 19.3357 15.6518C19.2069 15.6518 19.0809 15.6139 18.974 15.543C18.8853 15.4766 18.8082 15.3964 18.7456 15.3056L12.7932 7.21058C12.717 7.08566 12.552 6.94824 12.7932 6.81083C13.0343 6.67341 13.0851 6.81083 13.1866 6.94824L19.8498 14.4437C19.9737 14.5835 20.0493 14.7585 20.0655 14.9434Z" fill="#3D2EE0"/>
<path d="M12.3989 20.4143C12.4059 20.5569 12.3649 20.6979 12.2823 20.8153C12.1997 20.9327 12.0801 21.0201 11.942 21.0639C11.8006 21.1135 11.646 21.1133 11.5048 21.0631C11.3636 21.013 11.2444 20.9161 11.1678 20.789C10.8759 20.3518 10.6094 19.8896 10.3301 19.4398L5.9769 12.2068C5.88806 12.0569 5.68498 11.8695 5.88805 11.7196C6.09112 11.5697 6.21804 11.832 6.33226 11.9819L12.1958 19.9146C12.3251 20.05 12.3976 20.2284 12.3989 20.4143Z" fill="#3D2EE0"/>
<path d="M8.16375 28.3745C8.15468 28.2742 8.15468 28.1732 8.16375 28.0729C8.37933 27.6115 8.41748 27.0817 8.27039 26.5919C8.1233 26.1022 7.8021 25.6896 7.37258 25.4386C7.23287 25.3689 7.12136 25.2498 7.05779 25.1026C6.99422 24.9554 6.98268 24.7895 7.02523 24.6343C7.14101 24.2723 7.46906 24.2321 7.75852 24.2321C8.24766 24.2972 8.74215 24.1647 9.14048 23.8618C9.53882 23.5589 9.81076 23.1086 9.90048 22.6033C9.90048 22.3217 10.132 22 10.4987 22C10.8653 22 11.0004 22.3419 11.0969 22.6234C11.1909 23.125 11.4647 23.5704 11.8625 23.8692C12.2604 24.168 12.7525 24.2978 13.2388 24.2321C13.3868 24.201 13.5405 24.224 13.6741 24.2973C13.8077 24.3705 13.913 24.4896 13.9721 24.6343C14.0879 24.9761 13.8178 25.1571 13.6248 25.3582C13.202 25.6261 12.8942 26.0531 12.7649 26.5508C12.6356 27.0486 12.6947 27.5791 12.9301 28.0327C13.0061 28.1727 13.0323 28.3361 13.004 28.4943C12.9758 28.6525 12.895 28.7952 12.7757 28.8973C12.4863 29.1386 12.1775 28.8973 11.9652 28.7566C11.5869 28.4169 11.1042 28.23 10.6048 28.23C10.1054 28.23 9.62268 28.4169 9.24438 28.7566C8.54969 29.199 8.16375 28.9979 8.16375 28.3745Z" fill="#3D2EE0"/>
<path d="M23.8672 18.4503C23.8586 18.3955 23.8586 18.3396 23.8672 18.2847C24.0128 17.9554 24.0341 17.5814 23.927 17.2366C23.8198 16.8917 23.5919 16.601 23.2882 16.4218C23.1085 16.2976 22.9288 16.132 23.0286 15.8629C23.1284 15.5938 23.3481 15.6145 23.5677 15.5731H23.987C24.2253 15.5934 24.4625 15.5224 24.6538 15.3737C24.8451 15.2249 24.9772 15.0087 25.0253 14.7659C25.145 14.4761 25.2049 14 25.6242 14C26.0435 14 26.0835 14.4761 26.2033 14.7866C26.2521 14.9835 26.3558 15.1611 26.5013 15.2973C26.6469 15.4335 26.828 15.5222 27.0219 15.5524H27.4612C27.6608 15.5524 27.9004 15.5524 27.9803 15.8836C28.0602 16.2148 27.8805 16.2562 27.7407 16.4011C27.6677 16.5109 27.5722 16.6028 27.4612 16.6702C27.2591 16.8058 27.1088 17.0101 27.0359 17.248C26.9631 17.4858 26.9722 17.7426 27.0618 17.9742C27.0618 18.2847 27.3014 18.678 27.0618 18.9057C26.8222 19.1334 26.4429 18.9057 26.2432 18.678C25.5643 18.0984 25.0452 18.678 24.4662 18.8643C23.8872 19.0506 23.8472 18.9678 23.8672 18.4503Z" fill="#3D2EE0"/>
<path d="M13.5492 32.1409C13.765 31.7536 13.5492 31.4788 13.1939 31.204C12.8385 30.9291 13.0289 30.8292 13.3081 30.8167C13.5031 30.8199 13.6938 30.7607 13.8517 30.6481C14.0096 30.5355 14.1262 30.3755 14.1838 30.1921C14.298 29.9298 14.5011 29.9423 14.6026 30.1921C14.6513 30.3843 14.7615 30.5561 14.9169 30.6821C15.0723 30.808 15.2647 30.8815 15.4657 30.8917C15.8084 30.8917 15.7957 31.129 15.5799 31.3039C15.4324 31.4034 15.3217 31.5473 15.2644 31.714C15.2072 31.8807 15.2066 32.0612 15.2626 32.2284C15.3515 32.5407 15.1738 32.6906 14.8819 32.5032C14.7391 32.3978 14.5654 32.3408 14.3869 32.3408C14.2084 32.3408 14.0347 32.3978 13.8919 32.5032C13.6508 32.6656 13.5112 32.5532 13.5492 32.1409Z" fill="#3D2EE0"/>
<path fill-rule="evenodd" clip-rule="evenodd" d="M30 26.6663C30 30.4403 26.8918 33.4997 23.0576 33.4997C19.2234 33.4997 16.1152 30.4403 16.1152 26.6663C16.1152 22.8924 19.2234 19.833 23.0576 19.833C26.8918 19.833 30 22.8924 30 26.6663ZM22.0679 29.9392C22.474 30.0767 22.6644 30.2016 22.5502 30.4764C22.5049 30.6076 22.4668 30.741 22.436 30.8762C22.4486 31.1135 22.6517 31.2509 22.9309 31.2509C23.2102 31.2509 23.4259 31.1135 23.4259 30.8762C23.445 30.6809 23.445 30.4843 23.4259 30.289C23.4132 30.1141 23.4767 30.0017 23.6924 30.0017C25.3931 29.5895 25.9896 28.0029 24.8474 26.9536C24.2929 26.4889 23.5826 26.244 22.8548 26.2665C22.6018 26.2731 22.3514 26.2143 22.1287 26.096C21.906 25.9776 21.7187 25.8038 21.5856 25.5919C21.4514 25.3952 21.4002 25.1549 21.4428 24.9217C21.4854 24.6886 21.6186 24.4809 21.8141 24.3427C22.0129 24.1675 22.2516 24.042 22.51 23.9768C22.7685 23.9115 23.0391 23.9085 23.299 23.9679C23.5889 23.9913 23.8618 24.1121 24.072 24.31C24.2823 24.5078 24.4171 24.7707 24.4539 25.0547C24.4554 25.1127 24.469 25.1698 24.4938 25.2225C24.5186 25.2752 24.5541 25.3223 24.5981 25.3609C24.6421 25.3995 24.6937 25.4289 24.7497 25.4471C24.8056 25.4653 24.8648 25.4721 24.9235 25.467C25.2535 25.4795 25.4566 25.3296 25.4566 25.0547C25.4061 24.6071 25.2072 24.1883 24.8906 23.8631C24.574 23.5379 24.1574 23.3245 23.7051 23.2558C23.5148 23.2183 23.4513 23.1559 23.4513 23.006C23.464 22.798 23.464 22.5894 23.4513 22.3814C23.4386 22.144 23.2228 21.9941 22.9436 22.0066C22.6644 22.0191 22.4613 22.1565 22.4613 22.3938C22.4423 22.5933 22.4423 22.794 22.4613 22.9935C22.474 23.1559 22.3979 23.2683 22.1948 23.2683C21.7508 23.333 21.3404 23.539 21.0265 23.8548C20.7125 24.1706 20.5122 24.5789 20.4561 25.0172C20.4561 26.0916 21.5602 27.0035 22.9944 27.0035C24.0859 27.0285 24.7839 27.7781 24.4286 28.5401C24.2705 28.8098 24.033 29.0259 23.7474 29.1597C23.4619 29.2936 23.1417 29.3389 22.8294 29.2896C22.5233 29.293 22.2263 29.1875 21.9931 28.9923C21.7599 28.7972 21.6061 28.5257 21.5602 28.2278C21.5658 28.1573 21.5523 28.0867 21.5211 28.023C21.4899 27.9594 21.4421 27.905 21.3825 27.8655C21.2959 27.8227 21.2003 27.8003 21.1033 27.8003C21.0064 27.8003 20.9108 27.8227 20.8241 27.8655C20.7427 27.8883 20.6717 27.938 20.6231 28.0062C20.5746 28.0745 20.5514 28.1572 20.5576 28.2403C20.5895 28.6459 20.7538 29.0305 21.026 29.3367C21.2982 29.6429 21.6637 29.8542 22.0679 29.9392Z" fill="#3F3F46"/>
</svg>
