<svg width="24" height="24" viewBox="0 0 24 24" fill="none" xmlns="http://www.w3.org/2000/svg">
<path d="M19.3359 16.749C19.1967 16.749 19.0601 16.7102 18.9416 16.637C18.8232 16.5638 18.7274 16.459 18.6651 16.3344C18.6028 16.2099 18.5765 16.0704 18.589 15.9317C18.6015 15.793 18.6524 15.6605 18.7359 15.549C19.5005 14.5234 19.9135 13.2783 19.9135 11.999C19.9135 10.7198 19.5005 9.47469 18.7359 8.44903C18.6166 8.2899 18.5653 8.08987 18.5935 7.89296C18.6216 7.69605 18.7268 7.51837 18.8859 7.39903C19.0451 7.27968 19.2451 7.22843 19.442 7.25656C19.6389 7.28469 19.8166 7.3899 19.9359 7.54903C20.8952 8.83433 21.4135 10.3952 21.4135 11.999C21.4135 13.6028 20.8952 15.1637 19.9359 16.449C19.7959 16.649 19.5659 16.749 19.3359 16.749Z" fill="#202326"/>
<path d="M17.1164 15C17.0179 15 16.9213 14.9755 16.8375 14.9293C16.7537 14.883 16.686 14.8168 16.6419 14.7382C16.5979 14.6595 16.5792 14.5714 16.5881 14.4838C16.5969 14.3962 16.6329 14.3125 16.692 14.2421C17.2328 13.5943 17.5249 12.808 17.5249 12C17.5249 11.192 17.2328 10.4057 16.692 9.7579C16.6076 9.65739 16.5714 9.53106 16.5913 9.4067C16.6112 9.28233 16.6856 9.17012 16.7981 9.09474C16.9107 9.01936 17.0522 8.987 17.1915 9.00476C17.3307 9.02253 17.4564 9.08897 17.5408 9.18948C18.2194 10.0012 18.5859 10.9871 18.5859 12C18.5859 13.0129 18.2194 13.9988 17.5408 14.8105C17.4418 14.9368 17.2791 15 17.1164 15Z" fill="#202326" stroke="#202326" stroke-width="0.2"/>
<path d="M8.25235 6.39192L8.25868 6.38748L8.26492 6.38291L10.8813 4.4669C10.8815 4.46673 10.8818 4.46655 10.882 4.46638C12.047 3.61817 12.9794 3.60054 13.6263 4.01813C14.3161 4.46921 14.8359 5.50947 14.8359 7.19211V16.8094C14.8359 18.491 14.3167 19.531 13.6275 19.9825C13.3422 20.1649 13.0319 20.2531 12.7247 20.2499L12.7247 20.2499H12.717C12.2012 20.2499 11.582 20.0462 10.8829 19.5357C10.8828 19.5357 10.8828 19.5357 10.8828 19.5357C10.8826 19.5355 10.8823 19.5353 10.8821 19.5351L8.26492 17.6186L8.25869 17.614L8.25235 17.6096C7.96756 17.4099 7.61381 17.2746 7.23008 17.2746H5.94801C5.03184 17.2746 4.42015 16.9872 4.02317 16.5234C3.61024 16.0409 3.33594 15.258 3.33594 14.096V9.90547C3.33594 8.74343 3.61024 7.96061 4.02317 7.47809C4.42015 7.01422 5.03184 6.72686 5.94801 6.72686H7.23008C7.61381 6.72686 7.96756 6.59158 8.25235 6.39192Z" stroke="#202326" stroke-width="1.5"/>
</svg>
