<?xml version="1.0" encoding="utf-8"?>
<!-- Generator: Adobe Illustrator 27.5.0, SVG Export Plug-In . SVG Version: 6.00 Build 0)  -->
<svg version="1.1" id="Layer_1" xmlns="http://www.w3.org/2000/svg" xmlns:xlink="http://www.w3.org/1999/xlink" x="0px" y="0px"
	 viewBox="0 0 324 324" style="enable-background:new 0 0 324 324;" xml:space="preserve">
<style type="text/css">
	.st0{fill:#6D6D6D;}
	.st1{fill-rule:evenodd;clip-rule:evenodd;fill:#FFFFFF;}
	.st2{fill-rule:evenodd;clip-rule:evenodd;fill:#6D6D6D;}
	.st3{fill:#5245E3;}
	.st4{fill-rule:evenodd;clip-rule:evenodd;fill:url(#SVGID_1_);}
	.st5{fill-rule:evenodd;clip-rule:evenodd;fill:#3D2EE0;}
	.st6{fill-rule:evenodd;clip-rule:evenodd;fill:url(#SVGID_00000098210696141522772490000006283717093169012893_);}
	.st7{fill:#FFFFFF;}
	
		.st8{fill-rule:evenodd;clip-rule:evenodd;fill:none;stroke:#FFFFFF;stroke-width:8;stroke-linecap:round;stroke-linejoin:round;stroke-miterlimit:10;}
	.st9{fill:#DCEAFD;}
	.st10{fill:#F8F8F8;}
	.st11{fill:#E3FFF7;}
	.st12{fill:#CAFFF0;}
	.st13{fill:#B1FFE9;}
	.st14{fill:#98FFE2;}
	.st15{fill:#7FFFDC;}
	.st16{fill:#66FED5;}
	.st17{fill:#4DFECE;}
	.st18{fill:#34FEC7;}
	.st19{fill:#1BFEC0;}
	.st20{fill:#E2E1EA;}
	.st21{fill:#C8C7D8;}
	.st22{fill:#AFACC6;}
	.st23{fill:#9592B4;}
	.st24{fill:#7B78A2;}
	.st25{fill:#615D8F;}
	.st26{fill:#48437D;}
	.st27{fill:#2E286B;}
	.st28{fill:#140E59;}
	.st29{fill:#E7E5FB;}
	.st30{fill:#D2CEF8;}
	.st31{fill:#BDB7F4;}
	.st32{fill:#A7A0F1;}
	.st33{fill:#928AEE;}
	.st34{fill:#7D73EA;}
	.st35{fill:#685CE7;}
	.st36{fill:#3D2EE0;}
	.st37{fill:#CCCCCC;}
	.st38{fill:#FF3EFF;}
	.st39{fill:#FFFFFF;stroke:#000000;stroke-miterlimit:10;}
	.st40{fill:url(#SVGID_00000016077780392593505530000007679880740464663230_);}
	.st41{fill:url(#SVGID_00000060737136739652680780000016667918688578524553_);}
	.st42{fill:url(#SVGID_00000085221663719866438190000011056131253419960718_);}
	.st43{fill:#1AE8B7;}
	.st44{fill:#1AD2AD;}
	.st45{fill:#19BDA4;}
	.st46{fill:#18A79B;}
	.st47{fill:#189191;}
	.st48{fill:#177B88;}
	.st49{fill:#17657E;}
	.st50{fill:#164F75;}
	.st51{fill:#153A6C;}
	.st52{fill:#152462;}
	.st53{fill:#EA3AF0;}
	.st54{fill:#D435E1;}
	.st55{fill:#BF31D2;}
	.st56{fill:#AA2DC3;}
	.st57{fill:#9428B4;}
	.st58{fill:#7F24A4;}
	.st59{fill:#691F95;}
	.st60{fill:#541B86;}
	.st61{fill:#3F1777;}
	.st62{fill:#291268;}
	.st63{fill:#4C40D6;}
	.st64{fill:#473BCA;}
	.st65{fill:#4136BD;}
	.st66{fill:#3B31B1;}
	.st67{fill:#362CA4;}
	.st68{fill:#302798;}
	.st69{fill:#2B228B;}
	.st70{fill:#251D7F;}
	.st71{fill:#1F1872;}
	.st72{fill:#1A1366;}
	.st73{fill:#17D5A8;}
	.st74{fill:url(#SVGID_00000109747746417176579390000017227994983080481458_);}
	.st75{fill:url(#SVGID_00000088832679053809545360000009707157676828028836_);}
	.st76{fill:url(#SVGID_00000004526857420904909430000013176741593664995235_);}
	.st77{fill:#FFFFFF;stroke:#3D2EE0;stroke-width:12;stroke-miterlimit:10;}
	.st78{fill:url(#SVGID_00000098187457510461678590000005535808308227310979_);}
	.st79{fill:url(#SVGID_00000141420129505162923490000011697374115342052528_);}
	.st80{fill:url(#SVGID_00000036241935535686377030000006988134914863048628_);}
	.st81{fill:url(#SVGID_00000041979671559136897000000011827831114773436801_);}
	.st82{fill:url(#SVGID_00000079482483300232249060000013740093327976803775_);}
	.st83{fill-rule:evenodd;clip-rule:evenodd;fill:url(#SVGID_00000058575614281142592330000000486739399691603120_);}
	.st84{fill-rule:evenodd;clip-rule:evenodd;fill:url(#SVGID_00000111887903899719925580000013366661348770680464_);}
	.st85{fill:#FFFFFF;stroke:#3D2EE0;stroke-width:8;stroke-miterlimit:10;}
	.st86{fill:url(#SVGID_00000145777642184662734900000015831090622768119207_);}
	.st87{fill:url(#SVGID_00000114050880114918072870000006958571903480652459_);}
	.st88{fill:url(#SVGID_00000054988476534633282280000015320252418798228136_);}
	.st89{fill:url(#SVGID_00000042733192079262610810000005406405632202150064_);}
	.st90{fill:url(#SVGID_00000109025889982515375550000016617787895096726711_);}
	.st91{fill:url(#SVGID_00000146485183023852153340000004837706707791020166_);}
	.st92{fill:url(#SVGID_00000070100688963413996920000002918607136154831233_);}
	.st93{fill:url(#SVGID_00000059300883165401473460000012022410853284212375_);}
	.st94{fill:url(#SVGID_00000172402639538622757710000002500186574036651437_);}
	.st95{fill:url(#SVGID_00000069377479812800467460000008193012666057621906_);}
	.st96{fill:url(#SVGID_00000064349248157801903820000000747039272133952897_);}
	.st97{fill-rule:evenodd;clip-rule:evenodd;fill:url(#SVGID_00000070105075950193682740000000457870339466313378_);}
	.st98{fill:url(#SVGID_00000169542932938230739310000015352716531961854108_);}
	.st99{fill:url(#SVGID_00000075877684891157247730000007948439792814795454_);}
	.st100{fill:url(#SVGID_00000088845213540257949480000001430998694503566230_);}
	.st101{fill:url(#SVGID_00000127746069920083286600000001623671913859432383_);}
	.st102{fill:url(#SVGID_00000085949914580104578620000002729054436826967189_);}
	.st103{fill:url(#SVGID_00000172426041737223443340000000392324372086086784_);}
	.st104{fill:url(#SVGID_00000087381054864623266410000013738178768142703260_);}
	.st105{fill:url(#SVGID_00000039122087774831774300000017877416081891993526_);}
	.st106{fill-rule:evenodd;clip-rule:evenodd;fill:url(#SVGID_00000070799723248123494830000005965889873153048717_);}
	.st107{fill:url(#SVGID_00000080176113706035050490000007325793694087762851_);}
	.st108{fill:url(#SVGID_00000085228132013920055520000007403584657891082633_);}
	.st109{fill-rule:evenodd;clip-rule:evenodd;fill:#FFFFFF;stroke:#6D6D6D;stroke-width:11;stroke-miterlimit:10;}
	.st110{fill-rule:evenodd;clip-rule:evenodd;fill:#FFFFFF;stroke:#3D2EE0;stroke-width:11;stroke-miterlimit:10;}
</style>
<g>
	<path class="st0" d="M212.5,163.94H174v-35h38.5c9.66,0,17.5,7.84,17.5,17.5v0C230,156.11,222.16,163.94,212.5,163.94z"/>
	<path class="st0" d="M203.22,76.97c-0.06-3.28-2.73-5.91-6.02-5.91c-3.22,0-5.85,2.53-6.01,5.71l-0.02,0
		c-2.54,32.37-73.25,39.35-73.25,39.35H84.56v0.04C68.65,116.98,56,130.14,56,146.26s12.65,29.28,28.56,30.1v51.45h0.01
		c0,0.11-0.01,0.21-0.01,0.32c0,9.29,7.53,16.82,16.82,16.82s16.82-7.53,16.82-16.82c0-0.11-0.01-0.21-0.01-0.32h0.01v-52.87
		c59.42,1.19,73.08,42.71,73.08,42.71l0.01,0c0.52,2.8,2.97,4.92,5.92,4.92c3.24,0,5.87-2.55,6.01-5.75l0.01,0L203.22,76.97
		L203.22,76.97z"/>
	<path class="st0" d="M249.56,106.36l-9.92,9.92c-2.22,2.22-5.83,2.22-8.05,0v0c-2.22-2.22-2.22-5.83,0-8.05l9.92-9.92
		c2.22-2.22,5.83-2.22,8.05,0l0,0C251.78,100.53,251.78,104.13,249.56,106.36z"/>
	<path class="st0" d="M262.31,149.48h-14.03c-3.14,0-5.69-2.55-5.69-5.69v0c0-3.14,2.55-5.69,5.69-5.69h14.03
		c3.14,0,5.69,2.55,5.69,5.69v0C268,146.93,265.45,149.48,262.31,149.48z"/>
	<path class="st0" d="M241.51,188.69l-9.92-9.92c-2.22-2.22-2.22-5.83,0-8.05v0c2.22-2.22,5.83-2.22,8.05,0l9.92,9.92
		c2.22,2.22,2.22,5.83,0,8.05l0,0C247.34,190.91,243.73,190.91,241.51,188.69z"/>
</g>
</svg>
