<svg width="24" height="24" viewBox="0 0 24 24" fill="none" xmlns="http://www.w3.org/2000/svg">
<g clip-path="url(#clip0_3923_713)">
<g clip-path="url(#clip1_3923_713)">
<path d="M16.8444 2.87495L18.3685 3.10258C18.7248 3.16196 18.8337 3.34999 18.6555 3.66669L17.1116 6.48727C17.1116 6.55655 16.9929 6.60603 17.1116 6.72479C17.3041 6.90225 17.4184 7.14872 17.4295 7.41025C17.4406 7.67178 17.3477 7.92707 17.171 8.12024C17.171 8.18952 17.2502 8.16972 17.2997 8.18952C18.3993 8.51219 19.3691 9.1737 20.0708 10.0798C20.5911 10.7605 20.8635 11.5985 20.8427 12.455C20.8427 13.5932 20.7042 14.7313 20.6844 15.8793C20.6418 16.6713 20.7355 17.4646 20.9615 18.2248C21.1796 18.9213 21.5555 19.5581 22.06 20.0854C22.1981 20.2073 22.3054 20.3602 22.3731 20.5315C22.4408 20.7027 22.467 20.8876 22.4497 21.071C22.4323 21.2543 22.3718 21.431 22.2731 21.5865C22.1744 21.742 22.0404 21.872 21.8819 21.9658C21.527 22.2595 21.0807 22.4202 20.62 22.4202C20.1594 22.4202 19.7131 22.2595 19.3582 21.9658C19.007 21.6963 18.5735 21.5565 18.131 21.57C17.4677 21.5455 16.8038 21.5953 16.1516 21.7184C15.0105 21.8966 13.8487 21.8966 12.7076 21.7184C12.1652 21.6244 11.6149 21.5846 11.0647 21.5996C10.5583 21.6052 10.0706 21.7912 9.68905 22.1242C9.4617 22.2876 9.20224 22.401 8.92783 22.4568C8.65342 22.5126 8.3703 22.5095 8.09716 22.4478C7.82403 22.386 7.5671 22.267 7.34336 22.0987C7.11961 21.9303 6.93414 21.7164 6.79919 21.471C6.67053 21.1246 6.49239 21.1147 6.18559 21.1048C4.92011 21.1232 3.66205 20.9085 2.4743 20.4714C1.93903 20.2779 1.4502 19.9745 1.03927 19.5807C0.932147 19.4808 0.84693 19.3597 0.789011 19.2251C0.731091 19.0905 0.701728 18.9454 0.702779 18.7989C0.702779 16.3643 0.702779 13.9296 0.702779 11.495C0.69491 11.2076 0.760824 10.923 0.894231 10.6683C1.02764 10.4136 1.22409 10.1974 1.46483 10.0402C2.13947 9.58741 2.90133 9.28065 3.7015 9.13961C5.68975 8.71174 7.7506 8.75581 9.71874 9.26826C9.77903 9.28868 9.84359 9.29302 9.90607 9.28088C9.96855 9.26873 10.0268 9.2405 10.075 9.19899C10.6101 8.79455 11.2135 8.48951 11.8564 8.29838C11.995 8.29838 12.0346 8.2291 11.9356 8.10045C11.8024 7.92739 11.7302 7.71513 11.7302 7.49674C11.7302 7.27835 11.8024 7.06609 11.9356 6.89304C11.974 6.85936 12.0005 6.81422 12.0112 6.76431C12.0219 6.7144 12.0162 6.66237 11.995 6.61593C11.7575 5.89347 11.5299 5.1611 11.2824 4.43864C11.2428 4.38592 11.217 4.32414 11.2074 4.25891C11.1977 4.19369 11.2045 4.12708 11.2271 4.06514C11.2497 4.0032 11.2874 3.94789 11.3369 3.90423C11.3863 3.86058 11.4458 3.82995 11.5101 3.81514C11.9158 3.54793 12.3018 3.26092 12.6977 2.99371C12.7253 2.98266 12.7502 2.96551 12.7703 2.94352C12.7904 2.92154 12.8053 2.8953 12.8139 2.86676C12.8224 2.83822 12.8244 2.80811 12.8197 2.77868C12.815 2.74925 12.8038 2.72127 12.7867 2.69681C12.5987 2.28114 12.4305 1.86548 12.2622 1.43992C12.094 1.01436 12.2622 0.945079 12.5987 0.925285L16.8147 0.667969H17.0226C17.2997 0.667969 17.4382 0.836214 17.3689 1.09353C17.171 1.67744 17.0127 2.27125 16.8444 2.87495ZM14.5682 8.49632H13.9051C12.9459 8.49159 11.9993 8.7155 11.1439 9.1495C10.6424 9.36887 10.1948 9.69507 9.8324 10.1053C9.47001 10.5156 9.20155 11 9.04576 11.5247C8.91421 12.2265 8.89417 12.9446 8.98638 13.6525C9.07692 14.6858 9.11326 15.7231 9.09524 16.7601C9.06923 17.6697 8.83206 18.5608 8.40247 19.363C8.16288 19.7979 7.87756 20.206 7.55135 20.5803C7.4483 20.6556 7.37908 20.7684 7.3587 20.8944C7.33832 21.0204 7.36843 21.1493 7.44248 21.2533C7.54495 21.3978 7.67494 21.5206 7.825 21.6148C7.97505 21.709 8.14222 21.7726 8.31692 21.802C8.49162 21.8315 8.6704 21.8261 8.84303 21.7863C9.01565 21.7464 9.17872 21.6729 9.32287 21.57C9.84123 21.1437 10.4926 20.9126 11.1637 20.9168C11.8073 20.9183 12.4496 20.9746 13.0836 21.085C13.9866 21.2087 14.9023 21.2087 15.8053 21.085C16.5567 20.9512 17.3182 20.8816 18.0815 20.8772C18.7275 20.8699 19.3539 21.0987 19.8431 21.5205C20.1215 21.7235 20.4666 21.813 20.8086 21.7707C21.1505 21.7284 21.4634 21.5576 21.6839 21.2928C21.7321 21.2458 21.7704 21.1896 21.7965 21.1276C21.8227 21.0656 21.8362 20.9989 21.8362 20.9316C21.8362 20.8643 21.8227 20.7977 21.7965 20.7356C21.7704 20.6736 21.7321 20.6174 21.6839 20.5704L21.3178 20.1547C20.4628 19.061 20.0181 17.7023 20.0609 16.3148C20.0609 15.2558 20.1598 14.187 20.2192 13.128C20.3061 12.4352 20.2211 11.7316 19.9718 11.0794C19.5122 10.1242 18.705 9.38077 17.7153 9.00105C16.7209 8.58654 15.6424 8.41357 14.5682 8.49632ZM9.34266 9.69383C7.50767 9.28682 5.60578 9.28682 3.77078 9.69383C3.05891 9.81977 2.38329 10.1002 1.79142 10.5153C1.20751 10.9507 1.20751 11.4258 1.79142 11.8711C2.22647 12.1736 2.71264 12.3949 3.22646 12.5243C4.78343 12.9425 6.40639 13.0567 8.0066 12.8608C8.28371 12.8608 8.33319 12.7519 8.3134 12.5144C8.26977 11.6178 8.55877 10.7368 9.12493 10.0402L9.34266 9.69383ZM17.943 3.65679L16.8048 3.46876C16.6762 3.46876 16.6762 3.53803 16.6465 3.61721L16.3496 4.74544C16.2605 5.07203 16.1319 5.1809 15.9141 5.13141C15.6964 5.08193 15.637 4.91368 15.7261 4.58709C16.0032 3.59741 16.2803 2.52856 16.5772 1.4993C16.5772 1.34095 16.5772 1.30136 16.4189 1.32116H15.8053L13.2519 1.4795C12.955 1.4795 12.955 1.4795 13.0638 1.77641L14.1525 4.47823C14.2218 4.66627 14.2416 4.83451 14.0337 4.94337C13.8259 5.05224 13.6676 4.94338 13.5686 4.74544L13.0638 3.45886C12.7274 3.68648 12.4305 3.90421 12.0742 4.11205C12.0462 4.1256 12.0213 4.14475 12.001 4.1683C11.9807 4.19185 11.9655 4.21931 11.9562 4.24899C11.9469 4.27866 11.9438 4.30992 11.9471 4.34083C11.9504 4.37175 11.9599 4.40167 11.9752 4.42874C12.1731 5.03245 12.3711 5.62625 12.5492 6.22006C12.5612 6.27964 12.5956 6.33234 12.6454 6.36732C12.6951 6.4023 12.7563 6.4169 12.8164 6.4081C13.9348 6.4081 15.063 6.4081 16.1813 6.4081C16.2462 6.41601 16.3119 6.403 16.3689 6.37095C16.4259 6.33891 16.4711 6.28951 16.498 6.22996C16.8048 5.64605 17.1215 5.08193 17.4382 4.50792C17.6164 4.23081 17.7747 3.9537 17.943 3.65679ZM6.41322 17.9081C6.97192 17.908 7.53022 17.8783 8.08577 17.8191C8.25402 17.8191 8.32329 17.7399 8.35298 17.5816C8.43714 17.0747 8.47688 16.5614 8.47175 16.0476C8.47175 15.9189 8.47175 15.8793 8.2936 15.8892C7.04634 16.0673 5.7801 16.0673 4.53283 15.8892C3.45242 15.7915 2.40755 15.4533 1.47473 14.8995C1.47473 14.8995 1.40545 14.8204 1.35597 14.85C1.30648 14.8797 1.35597 14.9292 1.35597 14.9688C1.35597 15.3152 1.35597 15.6616 1.35597 16.008C1.34601 16.1695 1.37927 16.3307 1.45233 16.4751C1.52539 16.6195 1.63561 16.7418 1.77163 16.8294C2.05699 17.0453 2.37417 17.2156 2.71182 17.3341C3.90114 17.7462 5.15496 17.9406 6.41322 17.9081ZM1.31638 12.2769C1.31638 12.6728 1.31638 13.029 1.31638 13.3754C1.30724 13.578 1.35647 13.779 1.45823 13.9545C1.55998 14.1299 1.70999 14.2724 1.89039 14.3651C2.0488 14.4658 2.21416 14.5551 2.38523 14.6323C3.40066 15.0666 4.488 15.3082 5.59179 15.3449C6.46354 15.3995 7.33852 15.3697 8.20453 15.2558C8.3134 15.2558 8.47175 15.2558 8.46185 15.0777C8.46185 14.5531 8.39257 14.0187 8.36288 13.4942C8.36288 13.3952 8.36288 13.3457 8.19464 13.3655C7.29227 13.4826 6.38018 13.5058 5.47302 13.4348C4.00958 13.4223 2.57549 13.0228 1.31638 12.2769ZM1.31638 17.2847C1.31638 17.73 1.31638 18.1457 1.31638 18.5514C1.31158 18.6856 1.33974 18.8189 1.3984 18.9397C1.45706 19.0605 1.54444 19.165 1.65287 19.2442C1.95027 19.4818 2.28459 19.669 2.64255 19.7984C3.94093 20.2561 5.31491 20.461 6.69033 20.4021C6.72874 20.4021 6.76662 20.3932 6.80098 20.376C6.83533 20.3588 6.86522 20.3339 6.88826 20.3032C7.00702 20.1448 7.15548 19.9964 7.28413 19.8281C7.62474 19.4219 7.8926 18.9598 8.07588 18.4624C8.01856 18.4403 7.95506 18.4403 7.89773 18.4624C7.09271 18.553 6.28107 18.5696 5.47302 18.5119C4.01384 18.47 2.59103 18.0469 1.34607 17.2847H1.31638ZM14.5781 7.81344H16.3298C16.3794 7.82034 16.43 7.81698 16.4783 7.80354C16.5266 7.79011 16.5716 7.76691 16.6106 7.73536C16.6496 7.70381 16.6817 7.6646 16.7048 7.62015C16.728 7.5757 16.7419 7.52696 16.7454 7.47695C16.7523 7.42545 16.7488 7.37309 16.7349 7.32301C16.7211 7.27292 16.6973 7.22615 16.6649 7.18549C16.6326 7.14483 16.5924 7.11111 16.5467 7.08637C16.501 7.06163 16.4508 7.04636 16.3991 7.04149H16.1121H13.3805C13.1926 7.0316 13.0043 7.0316 12.8164 7.04149C12.5294 7.04149 12.3513 7.24932 12.3711 7.46705C12.3909 7.68478 12.5789 7.82334 12.856 7.82334L14.5781 7.81344Z" fill="#202326" stroke="#202326" stroke-width="0.525472" stroke-miterlimit="10"/>
<path d="M16.6436 16.52C16.6368 16.9167 16.4962 17.2995 16.2445 17.6061C15.9928 17.9128 15.6448 18.1254 15.257 18.2095C14.989 18.2794 14.9308 18.3959 14.9541 18.6289C14.9715 18.776 14.9715 18.9246 14.9541 19.0716C14.95 19.1184 14.9362 19.1637 14.9135 19.2048C14.8909 19.2459 14.86 19.2819 14.8227 19.3104C14.7855 19.3389 14.7427 19.3593 14.6971 19.3704C14.6515 19.3814 14.6041 19.3828 14.5579 19.3746C14.3599 19.3746 14.1851 19.2231 14.22 19.025C14.3132 18.4891 14.1035 18.2328 13.5559 18.058C13.2799 17.9636 13.0363 17.7932 12.8528 17.5665C12.6694 17.3398 12.5536 17.0659 12.5189 16.7763C12.5189 16.4501 12.5888 16.2171 12.8451 16.1938C13.1015 16.1705 13.2296 16.3219 13.2763 16.6482C13.3305 16.8921 13.4617 17.1121 13.6505 17.2757C13.8393 17.4393 14.0758 17.538 14.3249 17.557C14.5264 17.5934 14.7331 17.5894 14.9331 17.5454C15.1331 17.5014 15.3224 17.4182 15.4901 17.3007C15.6303 17.2079 15.7425 17.0785 15.8144 16.9265C15.8862 16.7745 15.9151 16.6057 15.8979 16.4385C15.877 16.2708 15.8074 16.1129 15.6976 15.9845C15.5878 15.8561 15.4427 15.7627 15.2803 15.7161C14.8674 15.5866 14.4472 15.4816 14.022 15.4015C13.9236 15.3837 13.8264 15.3604 13.7307 15.3316C13.4045 15.281 13.1046 15.1227 12.8787 14.8821C12.6528 14.6414 12.5138 14.3321 12.4839 14.0033C12.4378 13.6759 12.4909 13.3422 12.6363 13.0452C12.7816 12.7482 13.0127 12.5016 13.2996 12.3372C13.4977 12.2041 13.719 12.1092 13.952 12.0576C14.1035 12.0576 14.1734 11.976 14.1618 11.8129C14.1501 11.6422 14.1501 11.4709 14.1618 11.3003C14.157 11.2525 14.162 11.2042 14.1767 11.1585C14.1914 11.1127 14.2153 11.0705 14.247 11.0344C14.2787 10.9983 14.3175 10.9692 14.361 10.9488C14.4044 10.9284 14.4517 10.9171 14.4997 10.9158C14.5496 10.911 14.6 10.9163 14.6478 10.9314C14.6956 10.9466 14.7398 10.9712 14.7779 11.0038C14.816 11.0365 14.8471 11.0764 14.8693 11.1214C14.8916 11.1663 14.9046 11.2152 14.9075 11.2653C14.9189 11.4282 14.9189 11.5917 14.9075 11.7547C14.9075 11.9411 14.9075 12.0226 15.1522 12.0809C15.4936 12.1349 15.8119 12.287 16.0684 12.5187C16.325 12.7504 16.5086 13.0517 16.597 13.3858C16.6082 13.4904 16.6082 13.5959 16.597 13.7004C16.6054 13.7484 16.6033 13.7977 16.5909 13.8449C16.5784 13.892 16.556 13.9359 16.525 13.9735C16.494 14.0112 16.4552 14.0416 16.4113 14.0629C16.3674 14.0841 16.3195 14.0956 16.2707 14.0966C16.2212 14.1067 16.1702 14.106 16.121 14.0945C16.0718 14.0831 16.0257 14.0611 15.9858 14.0301C15.946 13.9991 15.9133 13.9598 15.8901 13.915C15.8668 13.8701 15.8536 13.8208 15.8513 13.7703C15.8381 13.5475 15.7541 13.3346 15.6116 13.1628C15.4691 12.991 15.2755 12.8691 15.059 12.8149C14.8174 12.7217 14.5561 12.6909 14.2995 12.7256C14.0428 12.7602 13.7991 12.8591 13.5908 13.013C13.4603 13.1069 13.3582 13.2351 13.2958 13.3833C13.2334 13.5316 13.2131 13.6942 13.2372 13.8532C13.2613 14.0122 13.3288 14.1615 13.4324 14.2846C13.5359 14.4077 13.6713 14.4999 13.8239 14.551C14.2706 14.6898 14.726 14.7988 15.1871 14.8772C15.4559 14.9374 15.7149 15.0355 15.9561 15.1685C16.1866 15.3059 16.3735 15.5058 16.4951 15.7449C16.6168 15.9841 16.6682 16.2528 16.6436 16.52Z" fill="#202326" stroke="#202326" stroke-width="0.522727" stroke-miterlimit="10"/>
</g>
</g>
<defs>
<clipPath id="clip0_3923_713">
<rect width="24" height="24" rx="6" fill="white"/>
</clipPath>
<clipPath id="clip1_3923_713">
<rect width="23" height="23" fill="white" transform="translate(0.5 0.5)"/>
</clipPath>
</defs>
</svg>
