<?xml version="1.0" encoding="utf-8"?>
<!-- Generator: Adobe Illustrator 27.5.0, SVG Export Plug-In . SVG Version: 6.00 Build 0)  -->
<svg version="1.1" id="Layer_1" xmlns="http://www.w3.org/2000/svg" xmlns:xlink="http://www.w3.org/1999/xlink" x="0px" y="0px"
	 viewBox="0 0 324 324" style="enable-background:new 0 0 324 324;" xml:space="preserve">
<style type="text/css">
	.st0{fill:#6D6D6D;}
	.st1{fill-rule:evenodd;clip-rule:evenodd;fill:#FFFFFF;}
	.st2{fill-rule:evenodd;clip-rule:evenodd;fill:#6D6D6D;}
	.st3{fill:#5245E3;}
	.st4{fill-rule:evenodd;clip-rule:evenodd;fill:url(#SVGID_1_);}
	.st5{fill-rule:evenodd;clip-rule:evenodd;fill:#3D2EE0;}
	.st6{fill-rule:evenodd;clip-rule:evenodd;fill:url(#SVGID_00000148621664566459574670000006634382640193755029_);}
	.st7{fill:#FFFFFF;}
	
		.st8{fill-rule:evenodd;clip-rule:evenodd;fill:none;stroke:#FFFFFF;stroke-width:8;stroke-linecap:round;stroke-linejoin:round;stroke-miterlimit:10;}
	.st9{fill:#DCEAFD;}
	.st10{fill:#F8F8F8;}
	.st11{fill:#E3FFF7;}
	.st12{fill:#CAFFF0;}
	.st13{fill:#B1FFE9;}
	.st14{fill:#98FFE2;}
	.st15{fill:#7FFFDC;}
	.st16{fill:#66FED5;}
	.st17{fill:#4DFECE;}
	.st18{fill:#34FEC7;}
	.st19{fill:#1BFEC0;}
	.st20{fill:#E2E1EA;}
	.st21{fill:#C8C7D8;}
	.st22{fill:#AFACC6;}
	.st23{fill:#9592B4;}
	.st24{fill:#7B78A2;}
	.st25{fill:#615D8F;}
	.st26{fill:#48437D;}
	.st27{fill:#2E286B;}
	.st28{fill:#140E59;}
	.st29{fill:#E7E5FB;}
	.st30{fill:#D2CEF8;}
	.st31{fill:#BDB7F4;}
	.st32{fill:#A7A0F1;}
	.st33{fill:#928AEE;}
	.st34{fill:#7D73EA;}
	.st35{fill:#685CE7;}
	.st36{fill:#3D2EE0;}
	.st37{fill:#CCCCCC;}
	.st38{fill:#FF3EFF;}
	.st39{fill:#FFFFFF;stroke:#000000;stroke-miterlimit:10;}
	.st40{fill:url(#SVGID_00000145058434761573209280000009050375321465843388_);}
	.st41{fill:url(#SVGID_00000025423040319531746710000005509182309576053674_);}
	.st42{fill:url(#SVGID_00000168833659383789591080000016581174984084206759_);}
	.st43{fill:#1AE8B7;}
	.st44{fill:#1AD2AD;}
	.st45{fill:#19BDA4;}
	.st46{fill:#18A79B;}
	.st47{fill:#189191;}
	.st48{fill:#177B88;}
	.st49{fill:#17657E;}
	.st50{fill:#164F75;}
	.st51{fill:#153A6C;}
	.st52{fill:#152462;}
	.st53{fill:#EA3AF0;}
	.st54{fill:#D435E1;}
	.st55{fill:#BF31D2;}
	.st56{fill:#AA2DC3;}
	.st57{fill:#9428B4;}
	.st58{fill:#7F24A4;}
	.st59{fill:#691F95;}
	.st60{fill:#541B86;}
	.st61{fill:#3F1777;}
	.st62{fill:#291268;}
	.st63{fill:#4C40D6;}
	.st64{fill:#473BCA;}
	.st65{fill:#4136BD;}
	.st66{fill:#3B31B1;}
	.st67{fill:#362CA4;}
	.st68{fill:#302798;}
	.st69{fill:#2B228B;}
	.st70{fill:#251D7F;}
	.st71{fill:#1F1872;}
	.st72{fill:#1A1366;}
	.st73{fill:#17D5A8;}
	.st74{fill:url(#SVGID_00000142159573165178860380000005256335125219798453_);}
	.st75{fill:url(#SVGID_00000152240784962836180550000000594483591323247249_);}
	.st76{fill:url(#SVGID_00000027601730894002489820000014999469393126006425_);}
	.st77{fill:#FFFFFF;stroke:#3D2EE0;stroke-width:12;stroke-miterlimit:10;}
	.st78{fill:url(#SVGID_00000052062451520781438500000003182991168550554026_);}
	.st79{fill:url(#SVGID_00000052791667955921425700000012005301966663318416_);}
	.st80{fill:url(#SVGID_00000079473300898432211700000008168505568861980067_);}
	.st81{fill:url(#SVGID_00000122716048239288940530000009183618096602415510_);}
	.st82{fill:url(#SVGID_00000041285696403197047700000002132590447514614191_);}
	.st83{fill-rule:evenodd;clip-rule:evenodd;fill:url(#SVGID_00000116218615769733312820000006651625625073664650_);}
	.st84{fill-rule:evenodd;clip-rule:evenodd;fill:url(#SVGID_00000065038254540636506780000013054935710382543776_);}
	.st85{fill:#FFFFFF;stroke:#3D2EE0;stroke-width:8;stroke-miterlimit:10;}
	.st86{fill:url(#SVGID_00000049904615764513456500000014697292191772297617_);}
	.st87{fill:url(#SVGID_00000152985745704818405090000009550184468248510605_);}
	.st88{fill:url(#SVGID_00000103250589145390164460000007526298459983162778_);}
	.st89{fill:url(#SVGID_00000119085235246810651880000015350257629827391899_);}
	.st90{fill:url(#SVGID_00000170964845032604850070000007801347038393436578_);}
	.st91{fill:url(#SVGID_00000132068744611857337380000011070558337465078931_);}
	.st92{fill:url(#SVGID_00000165913904759164161240000011953142897336193460_);}
	.st93{fill:url(#SVGID_00000116946867027979396020000005787213113334179261_);}
	.st94{fill:url(#SVGID_00000121960521840224562150000013223135810707598466_);}
	.st95{fill:url(#SVGID_00000046327901558165338080000000461172720692534915_);}
	.st96{fill:url(#SVGID_00000075865431127484614110000003757224973466110623_);}
	.st97{fill-rule:evenodd;clip-rule:evenodd;fill:url(#SVGID_00000163075168740069437120000014565799833701910165_);}
	.st98{fill:url(#SVGID_00000132088198957592637310000000425244337585498014_);}
	.st99{fill:url(#SVGID_00000102525834448137889540000001233110645430926010_);}
	.st100{fill:url(#SVGID_00000056403707641844665040000010888021691022213812_);}
	.st101{fill:url(#SVGID_00000174583899783911615260000017081998157965591426_);}
	.st102{fill:url(#SVGID_00000119806160527580512230000012291234993559187878_);}
	.st103{fill:url(#SVGID_00000082330013424273573400000016933825734645443252_);}
	.st104{fill:url(#SVGID_00000176034495597983807360000009065470634536254115_);}
	.st105{fill:url(#SVGID_00000088832367580808866810000018320443306362376372_);}
	.st106{fill-rule:evenodd;clip-rule:evenodd;fill:url(#SVGID_00000105402331205912552830000010454501660806680988_);}
	.st107{fill:url(#SVGID_00000152972039797192994910000011507204980915874494_);}
	.st108{fill:url(#SVGID_00000178908429573784071910000006182252713517074082_);}
	.st109{fill-rule:evenodd;clip-rule:evenodd;fill:#FFFFFF;stroke:#6D6D6D;stroke-width:11;stroke-miterlimit:10;}
	.st110{fill-rule:evenodd;clip-rule:evenodd;fill:#FFFFFF;stroke:#3D2EE0;stroke-width:11;stroke-miterlimit:10;}
</style>
<g>
	<g>
		<path class="st0" d="M85.84,202c-0.24-2.04-0.53-4.07-0.7-6.12c-0.17-1.97-0.21-3.94-0.34-5.91c-0.05-0.68,0.09-0.95,0.88-0.96
			c13-0.19,24.36-4.67,34.09-13.27c5.76-5.09,10.21-11.18,13.23-18.25c2.34-5.47,3.9-11.16,4.06-17.16
			c0.1-3.74,0.23-7.49,1.14-11.15c2.41-9.63,8.02-16.8,16.74-21.51c5.31-2.87,11.06-4.17,17.04-3.66
			c12.68,1.09,21.92,7.46,27.58,18.85c2.65,5.34,3.49,11.11,3.15,17.02c-0.26,4.57-0.59,9.16-1.22,13.69
			c-1,7.16-2.75,14.15-5.08,21.01c-5.55,16.37-14.37,30.76-26.23,43.28c-8.59,9.06-18.41,16.57-29.41,22.5
			c-5.52,2.98-11.23,5.55-17.17,7.55c-3.37,1.14-6.87,1.9-10.24,3.04c-1.33,0.45-2.04,0.09-2.85-0.82c-2.9-3.24-5.85-6.44-8.92-9.81
			c0.52-0.21,0.76-0.36,1.01-0.4c5.54-0.89,10.94-2.31,16.24-4.12c7.13-2.44,13.92-5.62,20.35-9.55
			c9.21-5.63,17.42-12.45,24.51-20.59c8.04-9.23,14.35-19.51,18.81-30.93c2.34-5.98,4.1-12.13,5.32-18.43
			c1.38-7.1,1.86-14.28,1.62-21.49c-0.25-7.71-5.96-14.84-13.83-17.05c-10.73-3.01-20.21,2.56-23.88,11.35
			c-1.14,2.74-1.32,5.57-1.41,8.44c-0.48,15.63-5.56,29.53-15.72,41.48c-7.41,8.71-16.5,15.08-27.24,19.03
			c-6.66,2.44-13.55,3.79-20.66,4.01c-0.2,0.01-0.41,0.01-0.61,0C86.02,202.06,85.94,202.02,85.84,202z"/>
		<path class="st0" d="M255.01,163.34c0,10.11,0.05,20.22-0.04,30.32c-0.02,2.57-0.5,5.14-0.75,7.71c-0.06,0.66-0.46,0.62-0.92,0.55
			c-3.42-0.54-6.19-2.21-8.39-4.86c-2.34-2.83-2.94-6.19-2.95-9.71c-0.02-16.5,0.04-33-0.04-49.5c-0.02-4.06-0.21-8.14-0.73-12.16
			c-0.44-3.43-1.3-6.84-2.29-10.17c-2.27-7.62-5.8-14.66-10.48-21.09c-7.54-10.36-17.13-18.23-28.79-23.55
			c-7.78-3.55-15.96-5.66-24.51-6.07c-5.09-0.24-10.22-0.32-15.3,0.43c-8.07,1.19-15.75,3.57-22.99,7.35
			c-6.53,3.41-12.4,7.71-17.65,12.9c-6.22,6.16-11.12,13.22-14.78,21.15c-2.4,5.21-4.12,10.63-5.2,16.27
			c-0.78,4.12-1.07,8.28-1.21,12.46c-0.09,2.61-0.41,5.16-1.74,7.46c-2.37,4.07-5.88,6.38-10.6,6.8c-0.63,0.06-0.88-0.1-0.87-0.78
			c0.06-5.2-0.05-10.4,0.15-15.59c0.18-4.75,0.8-9.47,1.81-14.13c4.03-18.5,13.18-34,27.35-46.52c7.69-6.79,16.39-11.94,25.98-15.59
			c5.08-1.93,10.31-3.35,15.66-4.29c6.8-1.19,13.65-1.51,20.55-0.98c3.77,0.29,7.5,0.79,11.19,1.6c6.76,1.48,13.3,3.65,19.51,6.73
			c16.53,8.18,29.21,20.38,38.01,36.6c3.52,6.48,6.09,13.34,7.77,20.51c1.6,6.83,2.35,13.78,2.34,20.8c-0.01,8.45,0,16.91,0,25.36
			C255.08,163.34,255.05,163.34,255.01,163.34z"/>
		<path class="st0" d="M251.08,215.1c-0.63,1.75-1.22,3.56-1.93,5.33c-0.76,1.91-1.61,3.79-2.44,5.67
			c-0.54,1.22-0.55,1.16-1.81,0.79c-3.64-1.05-7.12-2.48-10.33-4.51c-7.83-4.94-13.4-11.73-16.49-20.49
			c-1.57-4.44-2.28-9.01-2.26-13.74c0.07-16.18-0.04-32.36,0.07-48.53c0.03-4.77-0.19-9.48-1.37-14.08
			c-2.73-10.64-8.5-19.29-17.33-25.87c-5.31-3.96-11.23-6.65-17.71-7.96c-5.46-1.1-10.97-1.38-16.53-0.41
			c-17,2.98-28.79,12.51-35.59,28.28c-2.4,5.57-3.13,11.49-3.37,17.5c-0.65,16.81-8.89,28.59-23.97,35.67
			c-4.48,2.1-9.34,2.89-14.27,3.18c-0.77,0.05-0.99-0.17-0.99-0.96c0.04-3.75,0.03-7.49-0.01-11.24c-0.01-0.77,0.24-0.99,0.99-1
			c7.45-0.1,13.59-3.11,18.57-8.54c4.15-4.53,6.35-9.92,6.7-16.05c0.14-2.55,0.07-5.12,0.37-7.65c0.32-2.76,0.8-5.52,1.48-8.21
			c1.82-7.12,4.84-13.71,9.14-19.69c6.65-9.26,15.22-16.1,25.78-20.43c8.68-3.56,17.72-5.15,27.07-4.27
			c10.12,0.95,19.53,4.16,27.96,9.96c11.66,8.03,19.62,18.77,23.61,32.39c0.75,2.55,1.44,5.15,1.84,7.77
			c0.39,2.6,0.51,5.26,0.52,7.9c0.04,17.31,0.04,34.62,0.02,51.93c-0.01,4,0.52,7.89,2.17,11.54c3.15,6.98,8.26,11.89,15.56,14.39
			C247.96,214.26,249.42,214.62,251.08,215.1z"/>
		<path class="st0" d="M89.03,215.1c2.43-0.22,4.76-0.32,7.05-0.65c7.35-1.06,14.45-3.04,21.21-6.15
			c10.13-4.66,18.94-11.11,26.34-19.46c6.24-7.04,11.09-14.92,14.51-23.69c1.94-4.96,3.46-10.05,4.21-15.31
			c0.64-4.47,0.85-9.01,1.16-13.53c0.23-3.29,3.05-6.09,6.27-6.22c2.85-0.12,6.64,2.56,6.58,6.22c-0.07,4.32-0.07,8.63-0.75,12.93
			c-0.73,4.62-1.64,9.2-2.99,13.66c-5.01,16.56-14.01,30.61-26.9,42.15c-8.21,7.35-17.47,13-27.74,17.02
			c-6.32,2.48-12.87,4.06-19.53,5.22c-1.23,0.21-2.48,0.3-3.72,0.36c-0.31,0.01-0.82-0.24-0.93-0.49
			c-1.58-3.73-3.11-7.49-4.64-11.24C89.08,215.68,89.08,215.41,89.03,215.1z"/>
		<path class="st0" d="M183.66,223.09c1.54,2.49,2.98,4.82,4.43,7.16c7.23,11.67,16.84,20.85,28.81,27.56
			c0.56,0.31,1.1,0.65,1.64,0.98c0.09,0.05,0.13,0.17,0.23,0.3c-3.84,2.56-7.71,4.98-11.86,6.93c-0.62,0.29-1.09,0.25-1.67-0.13
			c-8.89-5.84-16.58-12.97-23.02-21.44c-0.12-0.16-0.26-0.31-0.37-0.49c-0.31-0.5-0.57-0.46-1.01-0.06
			c-7.91,7.15-16.49,13.39-25.86,18.48c-4.35,2.37-8.84,4.47-13.3,6.63c-0.45,0.22-1.16,0.21-1.64,0.02
			c-4.61-1.84-9.12-3.87-13.36-6.48c-0.49-0.3-1-0.58-1.5-0.87c-0.06-0.04-0.08-0.14-0.16-0.27c11.32-3.62,21.9-8.72,31.82-15.21
			C166.78,239.71,175.5,231.8,183.66,223.09z"/>
		<path class="st0" d="M202.75,194.1c3.14,22.13,15.26,37.05,36.22,45.02c-0.78,1.03-1.52,2.09-2.36,3.07
			c-2.02,2.36-4.09,4.68-6.16,6.99c-0.15,0.17-0.59,0.27-0.78,0.18c-2.89-1.48-5.86-2.83-8.61-4.53c-12.93-8-22.1-19.13-27.42-33.4
			c-0.28-0.76-0.23-1.34,0.22-2.01c3.18-4.72,6.06-9.62,8.53-14.75C202.5,194.43,202.66,194.23,202.75,194.1z"/>
		<path class="st0" d="M190.83,271.93c-9.67,2.35-19.22,3.33-29.18,2.12c0.53-0.37,0.89-0.66,1.28-0.88
			c5.47-3.07,10.69-6.53,15.71-10.29c1.14-0.85,1.09-0.83,2.12,0.1c3.13,2.81,6.29,5.59,9.43,8.38
			C190.33,271.49,190.47,271.62,190.83,271.93z"/>
	</g>
</g>
</svg>
