<svg width="21" height="20" viewBox="0 0 21 20" fill="none" xmlns="http://www.w3.org/2000/svg">
<g id="Group 3466743">
<ellipse id="Ellipse 280" cx="8.59091" cy="8.18182" rx="8.59091" ry="8.18182" transform="matrix(-1 0 0 1 18.6255 1.81836)" fill="white" stroke="white" stroke-width="1.81818"/>
<path id="Ellipse 279" d="M3.53008 10C3.53008 14.6231 7.27783 18.3708 11.9009 18.3708C16.524 18.3708 20.2717 14.6231 20.2717 10C20.2717 5.37691 16.524 1.62916 11.9009 1.62916C7.27783 1.62916 3.53008 5.37691 3.53008 10Z" fill="#FFFCF8" stroke="#3D2EE0" stroke-width="1.25831"/>
<path id="Subtract" fill-rule="evenodd" clip-rule="evenodd" d="M15.2044 13.1078L14.8488 10.9863L16.3477 9.49166C16.586 9.25436 16.667 8.90638 16.5587 8.59204C16.4505 8.27771 16.1704 8.04837 15.8338 7.9979L13.7992 7.69508L12.8814 5.79136C12.7323 5.48057 12.4112 5.28223 12.0583 5.28223C11.7054 5.28223 11.3843 5.48057 11.2352 5.79136L10.3174 7.69508L8.28369 7.9979C7.94716 8.04749 7.66793 8.27682 7.55878 8.59204C7.44963 8.90726 7.53149 9.25436 7.7698 9.49166L9.26782 10.9863L8.91219 13.1078C8.85579 13.4425 9.00132 13.7799 9.28601 13.9747C9.44245 14.0818 9.62618 14.1367 9.80991 14.1367C9.96089 14.1367 10.1119 14.0995 10.2501 14.0261L12.0583 13.0529L13.8665 14.0261C14.1703 14.1899 14.545 14.1695 14.8306 13.9747C15.1153 13.779 15.2608 13.4425 15.2044 13.1078ZM11.1594 9.00761L11.9453 7.40443L12.7311 9.00761L14.5402 9.23976L13.2168 10.4627L13.549 12.2094L11.9453 11.362L10.3415 12.2094L10.6738 10.4627L9.35035 9.23976L11.1594 9.00761Z" fill="#3D2EE0"/>
</g>
</svg>
