<svg width="36" height="37" viewBox="0 0 36 37" fill="none" xmlns="http://www.w3.org/2000/svg">
<g clip-path="url(#clip0_3128_955)">
<path d="M18.7434 15.2236L19.4092 15.3586C20.1852 15.5672 20.8844 15.9958 21.4223 16.5928C21.9603 17.1898 22.3141 17.9297 22.441 18.7232C22.5311 19.2928 22.5012 19.8749 22.3531 20.4322C22.2051 20.9895 21.9422 21.5097 21.5814 21.9595C21.2206 22.4093 20.7697 22.7787 20.2578 23.044C19.7458 23.3094 19.184 23.4648 18.6085 23.5003C17.797 23.5588 16.9863 23.3768 16.2777 22.977C15.5691 22.5772 14.9941 21.9774 14.6245 21.2527C14.2549 20.5279 14.1072 19.7102 14.1997 18.9019C14.2923 18.0936 14.621 17.3305 15.1449 16.708C15.7425 15.9916 16.5684 15.5024 17.4839 15.3226L17.9608 15.2236H18.7434Z" fill="#3F3F46"/>
<path d="M18.437 32.443H14.3616C13.6806 32.4692 13.0092 32.2769 12.4453 31.8942C12.1245 31.6805 11.856 31.3973 11.6597 31.0655C11.4635 30.7338 11.3445 30.362 11.3118 29.9779C11.1728 28.5694 11.3701 27.148 11.8876 25.8306C12.1746 25.0307 12.7356 24.3583 13.4709 23.9323C13.9511 23.6728 14.4906 23.5426 15.0363 23.5545C15.2184 23.5762 15.3934 23.6376 15.5491 23.7344C15.81 23.8694 16.0439 24.0493 16.2958 24.2022C16.9318 24.6331 17.6823 24.8634 18.4504 24.8634C19.2186 24.8634 19.9691 24.6331 20.6051 24.2022C20.803 24.0763 21.0099 23.9503 21.1989 23.8154C21.3611 23.6962 21.5473 23.6136 21.7445 23.5733C21.9417 23.5329 22.1454 23.5357 22.3414 23.5815C22.8598 23.6499 23.3535 23.8449 23.7787 24.1493C24.2039 24.4537 24.5476 24.8581 24.7794 25.3268C25.2297 26.1925 25.4962 27.142 25.5621 28.1157C25.6074 28.6151 25.6254 29.1167 25.6161 29.6181C25.6315 30.3273 25.3725 31.0152 24.8932 31.5381C24.4138 32.0611 23.751 32.3788 23.0431 32.425C22.8542 32.425 22.6743 32.425 22.4853 32.425L18.437 32.443Z" fill="#3F3F46"/>
<path d="M20.8499 8.25038C20.3348 8.10903 19.8099 8.00632 19.2795 7.9431C18.95 7.9431 18.7963 7.67971 18.6535 7.41633C18.5107 7.15295 18.2142 6.62618 17.9946 6.2311C17.9397 6.12136 17.8957 6.01162 17.753 6.00064C17.6102 5.98967 17.5443 6.12136 17.4784 6.2311L16.7316 7.56997C16.6916 7.66019 16.6293 7.73875 16.5505 7.79827C16.4717 7.85778 16.3791 7.89629 16.2813 7.91017C15.7542 7.98699 15.238 8.11869 14.7109 8.22843C14.4144 8.29427 14.3594 8.42597 14.5571 8.65643C14.862 9.04032 15.1883 9.40671 15.5345 9.75386C15.6535 9.84564 15.7414 9.97161 15.7866 10.1148C15.8317 10.258 15.8319 10.4117 15.7871 10.555C15.7322 11.0269 15.6663 11.4988 15.6334 11.9707C15.6004 12.4426 15.7322 12.3767 16.0397 12.2341C16.3472 12.0914 16.9732 11.828 17.4345 11.5975C17.5256 11.5486 17.6275 11.5229 17.731 11.5229C17.8345 11.5229 17.9364 11.5486 18.0275 11.5975C18.4668 11.828 18.9281 12.0255 19.3893 12.2341C19.8506 12.4426 19.8725 12.3218 19.8396 11.9377C19.8066 11.5536 19.7517 10.9171 19.6639 10.4123C19.6445 10.3178 19.6495 10.2198 19.6783 10.1277C19.7071 10.0356 19.7588 9.95227 19.8286 9.88555C20.202 9.49047 20.5534 9.0954 20.9268 8.70032C21.0696 8.50279 21.1245 8.31622 20.8499 8.25038Z" fill="#3D2EE0"/>
<path d="M13.3751 10.7569L12.3537 10.5594C12.1934 10.5382 12.0426 10.471 11.9197 10.3657C11.7969 10.2605 11.7073 10.1219 11.6619 9.96676C11.5301 9.6924 11.3653 9.43999 11.2116 9.17661C11.0578 8.91322 10.937 8.94615 10.8052 9.17661L10.2232 10.2082C10.1864 10.2871 10.1314 10.3561 10.0626 10.4095C9.99387 10.4629 9.91339 10.4993 9.82783 10.5155C9.43247 10.5813 9.03711 10.6801 8.63076 10.7679C8.22442 10.8557 8.3013 10.9215 8.49898 11.141C8.69666 11.3605 8.97121 11.6897 9.23479 11.9421C9.32834 12.0169 9.40011 12.1155 9.4426 12.2274C9.4851 12.3394 9.49677 12.4607 9.4764 12.5786C9.40117 12.9662 9.35346 13.3586 9.33363 13.7529C9.33363 13.9614 9.42149 14.0382 9.61917 13.9614C9.83469 13.8821 10.0439 13.7867 10.2452 13.6761C10.4601 13.5183 10.7198 13.4332 10.9865 13.4332C11.2531 13.4332 11.5128 13.5183 11.7278 13.6761C11.9092 13.785 12.1004 13.8769 12.2988 13.9504C12.6173 14.0931 12.7271 13.9504 12.6832 13.6541C12.6393 13.3578 12.5624 12.8859 12.5624 12.5128C12.5471 12.4223 12.5552 12.3295 12.586 12.243C12.6167 12.1566 12.6691 12.0795 12.7381 12.019C13.0017 11.7446 13.2653 11.4593 13.5179 11.163C13.7705 10.8667 13.6606 10.8228 13.3751 10.7569Z" fill="#3D2EE0"/>
<path d="M26.6185 13.6279C26.6185 13.2986 26.5526 12.9584 26.4977 12.6292C26.4679 12.5049 26.4726 12.3748 26.5113 12.253C26.55 12.1311 26.6212 12.0222 26.7174 11.9378C26.9919 11.6854 27.2225 11.4001 27.4751 11.1257C27.7277 10.8514 27.6179 10.8075 27.3763 10.7526L26.2781 10.5331C26.1405 10.5196 26.0091 10.4698 25.8972 10.3888C25.7852 10.3078 25.6969 10.1985 25.6411 10.0722C25.5219 9.77587 25.3862 9.48643 25.2347 9.20521C25.059 8.91988 24.9382 8.91988 24.7625 9.20521C24.5865 9.49317 24.4252 9.78986 24.2793 10.0941C24.2248 10.2161 24.1394 10.3217 24.0315 10.4006C23.9237 10.4795 23.7971 10.529 23.6643 10.5441C23.3129 10.5989 22.9724 10.6648 22.632 10.7526C22.2915 10.8404 22.3135 10.9392 22.5002 11.1586C22.6869 11.3781 22.9614 11.6854 23.214 11.9268C23.3094 12.0026 23.3823 12.1029 23.4249 12.217C23.4675 12.3311 23.4781 12.4546 23.4556 12.5743L23.3238 13.6059C23.3238 13.9571 23.3897 14.0449 23.7082 13.9022C24.0267 13.7595 24.3891 13.6059 24.7296 13.4413C24.808 13.396 24.897 13.3722 24.9876 13.3722C25.0783 13.3722 25.1673 13.396 25.2457 13.4413C25.5972 13.6169 25.9486 13.7705 26.344 13.9242C26.7393 14.0778 26.6515 13.99 26.6185 13.6279Z" fill="#3D2EE0"/>
<path d="M10.0179 15.0607L9.22719 14.9071C9.0805 14.8882 8.94238 14.8274 8.8294 14.732C8.71642 14.6366 8.63337 14.5107 8.59022 14.3693C8.51735 14.2076 8.42909 14.0533 8.32664 13.9084C8.32664 13.8206 8.26075 13.667 8.11798 13.667C7.97521 13.667 7.9203 13.7877 7.87637 13.8975C7.77787 14.2418 7.566 14.5429 7.27503 14.752C6.98406 14.9611 6.631 15.066 6.27297 15.0498C6.16314 15.0498 6.05332 15.0498 6.00939 15.1924C5.96546 15.3351 6.08627 15.379 6.15216 15.4448C6.21805 15.5107 6.51457 15.8728 6.71225 16.0704C6.78092 16.1229 6.83154 16.1955 6.85712 16.2781C6.8827 16.3607 6.88196 16.4491 6.85502 16.5313C6.85502 16.7947 6.78913 17.0581 6.76717 17.3214C6.7452 17.5848 6.76717 17.7165 7.14056 17.5629C7.2402 17.5341 7.33605 17.4936 7.4261 17.4422C7.6162 17.2997 7.84741 17.2227 8.08503 17.2227C8.32266 17.2227 8.55387 17.2997 8.74397 17.4422C8.93067 17.5629 9.19424 17.7933 9.36996 17.6397C9.54567 17.4861 9.36996 17.1788 9.36996 16.9373C9.30491 16.7456 9.29837 16.539 9.35117 16.3436C9.40397 16.1481 9.51372 15.9728 9.66648 15.8399C9.82129 15.6945 9.96795 15.5406 10.1058 15.379C10.2815 15.2253 10.2595 15.1046 10.0179 15.0607Z" fill="#3D2EE0"/>
<path d="M29.8725 15.0623L29.0818 14.9086C28.9351 14.8897 28.797 14.8289 28.684 14.7335C28.5711 14.6382 28.488 14.5122 28.4449 14.3709C28.3928 14.2409 28.3225 14.119 28.2362 14.0087C28.1593 13.877 28.1374 13.6905 27.9616 13.6685C27.7859 13.6466 27.742 13.8661 27.6871 13.9978C27.4345 14.5465 27.116 14.9854 26.4241 14.9964C26.2484 14.9964 25.9629 14.9964 25.886 15.172C25.8091 15.3476 26.0947 15.5012 26.2155 15.6658C26.3363 15.8305 26.7646 16.1158 26.7206 16.5328L26.6218 17.3559C26.6218 17.6632 26.7316 17.729 26.9623 17.5754C27.2535 17.3478 27.612 17.2232 27.9817 17.2212C28.3514 17.2192 28.7113 17.3399 29.0049 17.5644C29.2795 17.74 29.4223 17.6522 29.3344 17.323C29.207 16.9752 29.1982 16.595 29.3094 16.2417C29.4206 15.8884 29.6457 15.5818 29.9494 15.3695C29.9494 15.3695 30.1032 15.1062 29.8725 15.0623Z" fill="#3D2EE0"/>
</g>
<defs>
<clipPath id="clip0_3128_955">
<rect width="24.0385" height="25" fill="white" transform="translate(5.98047 6)"/>
</clipPath>
</defs>
</svg>
