<?xml version="1.0" encoding="utf-8"?>
<!-- Generator: Adobe Illustrator 27.5.0, SVG Export Plug-In . SVG Version: 6.00 Build 0)  -->
<svg version="1.1" id="Layer_1" xmlns="http://www.w3.org/2000/svg" xmlns:xlink="http://www.w3.org/1999/xlink" x="0px" y="0px"
	 viewBox="0 0 324 324" style="enable-background:new 0 0 324 324;" xml:space="preserve">
<style type="text/css">
	.st0{fill:#6D6D6D;}
	.st1{fill-rule:evenodd;clip-rule:evenodd;fill:#FFFFFF;}
	.st2{fill-rule:evenodd;clip-rule:evenodd;fill:#6D6D6D;}
	.st3{fill:#5245E3;}
	.st4{fill-rule:evenodd;clip-rule:evenodd;fill:url(#SVGID_1_);}
	.st5{fill-rule:evenodd;clip-rule:evenodd;fill:#3D2EE0;}
	.st6{fill-rule:evenodd;clip-rule:evenodd;fill:url(#SVGID_00000006670547299389731720000008617525202360006826_);}
	.st7{fill:#FFFFFF;}
	
		.st8{fill-rule:evenodd;clip-rule:evenodd;fill:none;stroke:#FFFFFF;stroke-width:8;stroke-linecap:round;stroke-linejoin:round;stroke-miterlimit:10;}
	.st9{fill:#DCEAFD;}
	.st10{fill:#F8F8F8;}
	.st11{fill:#E3FFF7;}
	.st12{fill:#CAFFF0;}
	.st13{fill:#B1FFE9;}
	.st14{fill:#98FFE2;}
	.st15{fill:#7FFFDC;}
	.st16{fill:#66FED5;}
	.st17{fill:#4DFECE;}
	.st18{fill:#34FEC7;}
	.st19{fill:#1BFEC0;}
	.st20{fill:#E2E1EA;}
	.st21{fill:#C8C7D8;}
	.st22{fill:#AFACC6;}
	.st23{fill:#9592B4;}
	.st24{fill:#7B78A2;}
	.st25{fill:#615D8F;}
	.st26{fill:#48437D;}
	.st27{fill:#2E286B;}
	.st28{fill:#140E59;}
	.st29{fill:#E7E5FB;}
	.st30{fill:#D2CEF8;}
	.st31{fill:#BDB7F4;}
	.st32{fill:#A7A0F1;}
	.st33{fill:#928AEE;}
	.st34{fill:#7D73EA;}
	.st35{fill:#685CE7;}
	.st36{fill:#3D2EE0;}
	.st37{fill:#CCCCCC;}
	.st38{fill:#FF3EFF;}
	.st39{fill:#FFFFFF;stroke:#000000;stroke-miterlimit:10;}
	.st40{fill:url(#SVGID_00000007404365566586461710000016011160600659548572_);}
	.st41{fill:url(#SVGID_00000163034151067360977620000012373224937008714430_);}
	.st42{fill:url(#SVGID_00000016774880076124638360000010959106368388603037_);}
	.st43{fill:#1AE8B7;}
	.st44{fill:#1AD2AD;}
	.st45{fill:#19BDA4;}
	.st46{fill:#18A79B;}
	.st47{fill:#189191;}
	.st48{fill:#177B88;}
	.st49{fill:#17657E;}
	.st50{fill:#164F75;}
	.st51{fill:#153A6C;}
	.st52{fill:#152462;}
	.st53{fill:#EA3AF0;}
	.st54{fill:#D435E1;}
	.st55{fill:#BF31D2;}
	.st56{fill:#AA2DC3;}
	.st57{fill:#9428B4;}
	.st58{fill:#7F24A4;}
	.st59{fill:#691F95;}
	.st60{fill:#541B86;}
	.st61{fill:#3F1777;}
	.st62{fill:#291268;}
	.st63{fill:#4C40D6;}
	.st64{fill:#473BCA;}
	.st65{fill:#4136BD;}
	.st66{fill:#3B31B1;}
	.st67{fill:#362CA4;}
	.st68{fill:#302798;}
	.st69{fill:#2B228B;}
	.st70{fill:#251D7F;}
	.st71{fill:#1F1872;}
	.st72{fill:#1A1366;}
	.st73{fill:#17D5A8;}
	.st74{fill:url(#SVGID_00000016048891869635937400000017093723225190049192_);}
	.st75{fill:url(#SVGID_00000086681229338624853710000016252518919417028481_);}
	.st76{fill:url(#SVGID_00000120544375877172055760000002117178164574379683_);}
	.st77{fill:#FFFFFF;stroke:#3D2EE0;stroke-width:12;stroke-miterlimit:10;}
	.st78{fill:url(#SVGID_00000117672833238093501860000008957437063845338558_);}
	.st79{fill:url(#SVGID_00000030474305209072215200000012055716634342852998_);}
	.st80{fill:url(#SVGID_00000151512789342126561530000018408480608365704121_);}
	.st81{fill:url(#SVGID_00000100346919743923615820000002132076277557261452_);}
	.st82{fill:url(#SVGID_00000179625261309930152640000004458915812663068852_);}
	.st83{fill-rule:evenodd;clip-rule:evenodd;fill:url(#SVGID_00000023964836567475168730000008936049658556126872_);}
	.st84{fill-rule:evenodd;clip-rule:evenodd;fill:url(#SVGID_00000109006538522929998260000005106588557194448791_);}
	.st85{fill:#FFFFFF;stroke:#3D2EE0;stroke-width:8;stroke-miterlimit:10;}
	.st86{fill:url(#SVGID_00000126285877775624680390000013234743449792399533_);}
	.st87{fill:url(#SVGID_00000111890701852396485070000010708119944687793797_);}
	.st88{fill:url(#SVGID_00000118375746729029116680000013009952881998524591_);}
	.st89{fill:url(#SVGID_00000089573348902037474940000013881209524617158790_);}
	.st90{fill:url(#SVGID_00000064314479724669889270000007971223164580004262_);}
	.st91{fill:url(#SVGID_00000077313444727478978520000014507618970689337528_);}
	.st92{fill:url(#SVGID_00000114774062613888780350000003463676678059117231_);}
	.st93{fill:url(#SVGID_00000132780258249862864160000012125803310174331543_);}
	.st94{fill:url(#SVGID_00000101089741624488462460000004167751409406354610_);}
	.st95{fill:url(#SVGID_00000142146256309018649260000006564827124222157501_);}
	.st96{fill:url(#SVGID_00000090265637470583633130000004707459369946850954_);}
	.st97{fill-rule:evenodd;clip-rule:evenodd;fill:url(#SVGID_00000160885487346408476970000003411499333788860341_);}
	.st98{fill:url(#SVGID_00000130616163294336021180000017717429432759403965_);}
	.st99{fill:url(#SVGID_00000165231891867603445680000005035692875433140659_);}
	.st100{fill:url(#SVGID_00000098223311255290172970000012969839378758236857_);}
	.st101{fill:url(#SVGID_00000093874257377851033090000014064309845541460386_);}
	.st102{fill:url(#SVGID_00000026148406937110072140000002716406852899387277_);}
	.st103{fill:url(#SVGID_00000170237677320657894850000013262383489238001555_);}
	.st104{fill:url(#SVGID_00000102518193381717879810000013140655742323314055_);}
	.st105{fill:url(#SVGID_00000023259029231537496900000008905383668704740254_);}
	.st106{fill-rule:evenodd;clip-rule:evenodd;fill:url(#SVGID_00000057827350388767132210000000541364945157722766_);}
	.st107{fill:url(#SVGID_00000098902757086029045270000015286705598761659793_);}
	.st108{fill:url(#SVGID_00000137853432616857646920000017006146451088875452_);}
	.st109{fill-rule:evenodd;clip-rule:evenodd;fill:#FFFFFF;stroke:#6D6D6D;stroke-width:11;stroke-miterlimit:10;}
	.st110{fill-rule:evenodd;clip-rule:evenodd;fill:#FFFFFF;stroke:#3D2EE0;stroke-width:11;stroke-miterlimit:10;}
</style>
<g>
	<g>
		<circle class="st7" cx="147.42" cy="104.06" r="40"/>
		<path class="st0" d="M147.42,150.06c-25.36,0-46-20.64-46-46s20.64-46,46-46s46,20.64,46,46S172.78,150.06,147.42,150.06z
			 M147.42,70.06c-18.75,0-34,15.25-34,34s15.25,34,34,34s34-15.25,34-34S166.17,70.06,147.42,70.06z"/>
	</g>
	<g>
		<path class="st7" d="M212.42,218.06c0-35.9-29.1-65-65-65s-65,29.1-65,65H212.42z"/>
		<path class="st0" d="M218.42,224.06h-142v-6c0-39.15,31.85-71,71-71s71,31.85,71,71V224.06z M88.72,212.06h117.39
			c-3.02-29.73-28.19-53-58.7-53S91.74,182.34,88.72,212.06z"/>
	</g>
	<g>
		<path class="st0" d="M186.06,272.7l-7.6-13.06c-0.75-1.28-2.06-1.65-3.37-0.93l-13.24,7.28c-2.63,1.45-4.73-1.57-3.7-5.31
			l10-36.09c0.72-2.61,2.71-4.34,4.43-3.87l27.58,7.64c1.72,0.48,2.53,2.98,1.8,5.59l-10,36.09
			C190.92,273.79,187.57,275.29,186.06,272.7z"/>
	</g>
	<g>
		<path class="st0" d="M246.61,264.67l-13.72-6.34c-1.35-0.62-2.64-0.17-3.29,1.17l-6.67,13.56c-1.33,2.7-4.78,1.43-6.07-2.23
			l-12.5-35.3c-0.9-2.55-0.27-5.11,1.41-5.7l26.98-9.55c1.68-0.6,3.78,0.99,4.68,3.55l12.5,35.3
			C251.22,262.78,249.34,265.93,246.61,264.67z"/>
	</g>
	<g>
		<circle class="st0" cx="201.58" cy="196.05" r="51.55"/>
	</g>
	<g id="tubiao_00000029732364397013164010000010785449027441132209_">
		<g id="Fill-15_00000129895625640633411870000010811728393314880907_">
			<path class="st1" d="M214.8,195.04l-4.58,11.7c1.07,1.46,1.92,3.11,2.47,4.9l0,0l2.16,6.95c0.01,0.03,0.01,0.06,0.02,0.08l0,0
				l9.25-23.63H214.8z"/>
		</g>
		<g id="Fill-17_00000129908669964292926590000009746100730042464417_">
			<path class="st1" d="M230.52,171.89c-0.61-0.44-1.54-0.42-1.17-0.06c1.52,1.5,2.47,3.62,2.47,5.98c0,4.53-3.52,8.21-7.86,8.23
				H201.4c2.6,1.75,4.62,4.38,5.64,7.6l0.43,1.37c0,0,0,0.01,0,0.01h7.32h9.13v0.03c6.56-0.23,11.81-5.84,11.81-12.73
				C235.73,178.01,233.67,174.2,230.52,171.89"/>
		</g>
		<g id="Fill-19_00000165931497245624023390000014941498458698388384_">
			<path class="st1" d="M182.04,202.65l8.33,21.31c1.27,3.26,4.28,5.37,7.66,5.37l0,0l7.71,0c2.35,0,4.57-1.18,5.95-3.16l0,0
				c1.38-1.98,1.77-4.55,1.05-6.87l0,0l-2.16-6.95v0c-1.8-5.8-6.94-9.7-12.8-9.7l0,0L182.04,202.65z M194.87,211.64h2.92
				c2.1,0,3.94,1.4,4.59,3.48l0,0l1.29,4.15c0.16,0.53-0.21,1.06-0.74,1.06l0,0h-4.65L194.87,211.64z"/>
		</g>
		<g id="Fill-21_00000016769325548346297370000018145027227030603143_">
			<path class="st1" d="M193.9,195.04c1.3,0,2.44,0.86,2.84,2.14l0,0l0.43,1.37c0.3,0.96,0.15,1.98-0.42,2.8l0,0
				c-0.57,0.82-1.45,1.29-2.42,1.29l0,0h-2.98l-2.28-5.81h-9.32l5.8,14.8h8.78h0c3.77,0,7.2-1.83,9.41-5.01l0,0
				c2.21-3.18,2.8-7.15,1.62-10.88l0,0l-0.43-1.37c-0.48-1.52-1.7-2.05-3.16-2.05l0,0C198.46,192.32,193.9,195.04,193.9,195.04"/>
		</g>
		<g id="Fill-23_00000160870075742619327510000000916238261031090566_">
			<path class="st1" d="M173.58,171.56c-0.26,0.01-0.64,0.11-0.94,0.33l0,0c-3.15,2.3-5.22,6.12-5.22,10.44l0,0
				c0,6.89,5.25,12.5,11.81,12.73l0,0v-0.03h9.14h5.53c1.3,0,2.44,0.86,2.84,2.14l0,0l0.43,1.37c0.26,0.81,0.17,1.67-0.21,2.41l0,0
				l8.36,2.42c0.8-2.44,0.85-5.09,0.04-7.64l0,0l-0.43-1.37c-1.57-4.98-6.01-8.33-11.04-8.33l0,0h-0.62h-14.05h-0.03
				c-4.35-0.02-7.87-3.69-7.87-8.23l0,0c0-2.36,0.95-4.48,2.47-5.98l0,0c0.18-0.17,0.06-0.27-0.17-0.27l0,0H173.58z"/>
		</g>
	</g>
</g>
</svg>
