<svg width="36" height="37" viewBox="0 0 36 37" fill="none" xmlns="http://www.w3.org/2000/svg">
<g clip-path="url(#clip0_3128_1017)">
<path d="M16.3654 18H6.6346C6.28412 18 6 18.3511 6 18.7843V20.2157C6 20.6489 6.28412 21 6.6346 21H16.3654C16.7159 21 17 20.6489 17 20.2157V18.7843C17 18.3511 16.7159 18 16.3654 18Z" fill="#3F3F46"/>
<path d="M17.3034 22H5.69658C5.31187 22 5 22.3511 5 22.7843V24.2157C5 24.6489 5.31187 25 5.69658 25H17.3034C17.6881 25 18 24.6489 18 24.2157V22.7843C18 22.3511 17.6881 22 17.3034 22Z" fill="#3F3F46"/>
<path d="M19.3034 26H7.69658C7.31187 26 7 26.3511 7 26.7843V28.2157C7 28.6489 7.31187 29 7.69658 29H19.3034C19.6881 29 20 28.6489 20 28.2157V26.7843C20 26.3511 19.6881 26 19.3034 26Z" fill="#3F3F46"/>
<path d="M15.2906 14H5.70935C5.31759 14 5 14.338 5 14.7549V16.2451C5 16.662 5.31759 17 5.70935 17H15.2906C15.6824 17 16 16.662 16 16.2451V14.7549C16 14.338 15.6824 14 15.2906 14Z" fill="#3F3F46"/>
<path d="M21.3927 26.669C19.9945 25.1016 18.9343 23.2628 18.2784 21.2675C17.3539 18.6793 17.0084 15.9199 17.2661 13.1837C17.3784 11.5793 17.8538 10.0213 18.6565 8.62756C19.2183 7.563 20.1573 6.74655 21.2896 6.33819C21.9124 6.141 22.5712 6.08458 23.2184 6.17299C23.8656 6.26141 24.4851 6.49245 25.0322 6.84945C26.2729 7.58552 27.325 8.60059 28.105 9.81412C30.5261 13.3918 31.6199 17.7035 31.1971 22.0026C31.0896 23.6781 30.5747 25.302 29.6971 26.7334C29.1703 27.6488 28.356 28.3649 27.3808 28.7704C26.7888 28.9953 26.1545 29.0864 25.5231 29.0373C24.8918 28.9882 24.2792 28.8001 23.7291 28.4864C22.843 28.0328 22.0504 27.4162 21.3927 26.669ZM26.6435 11.2023C26.3177 10.9047 25.9907 10.5964 25.6555 10.3107C25.4283 10.139 25.1902 9.98217 24.9427 9.8414C24.237 9.38202 23.3834 9.20727 22.554 9.35239C21.7245 9.4975 20.981 9.95169 20.4732 10.6234C19.7408 11.5293 19.2783 12.623 19.1385 13.7795C18.5851 17.1352 19.3667 20.5743 21.3163 23.3611C21.9249 24.2483 22.7508 24.9646 23.7153 25.4415C24.3714 25.8151 25.136 25.952 25.8811 25.8293C26.6261 25.7066 27.3065 25.3317 27.8082 24.7674C28.4691 24.0203 28.9341 23.1206 29.1612 22.1493C29.6237 20.2284 29.6055 18.2231 29.1084 16.3108C28.7001 14.4377 27.8556 12.6875 26.6435 11.2023Z" fill="#3D2EE0"/>
<path d="M19.5712 6.70821C17.9792 8.26046 17.0041 10.3374 16.8268 12.5538C16.2786 16.8282 17.1899 21.1625 19.4132 24.8542C20.2768 26.4565 21.5491 27.8016 23.1008 28.7532C23.5478 28.9823 24.0076 29.1857 24.4778 29.3625L24.6582 29.4283C23.3087 29.9862 21.8004 30.0242 20.4246 29.535C19.5078 29.1235 18.6758 28.5447 17.9712 27.8282C16.3054 26.0831 15.0843 23.9626 14.411 21.6459C13.451 18.7091 13.2484 15.5774 13.822 12.5414C14.0411 11.2504 14.5425 10.0236 15.2903 8.94862C15.6194 8.44919 16.044 8.0197 16.5396 7.68485C17.0352 7.34999 17.5921 7.11636 18.1782 6.99738C18.6261 6.94608 19.0548 6.82137 19.5712 6.70821Z" fill="#3D2EE0"/>
<path d="M24.7005 23.0067C24.7312 22.6143 24.5493 22.4407 24.1836 22.2665C23.7547 22.0204 23.3883 21.6788 23.1127 21.2682C22.8371 20.8576 22.6597 20.3891 22.5944 19.8989C22.5616 19.8051 22.5566 19.7038 22.58 19.6071C22.6034 19.5105 22.6543 19.4228 22.7265 19.3544C22.7954 19.302 22.8819 19.2785 22.9678 19.2888C23.0537 19.2992 23.1322 19.3425 23.1866 19.4098C23.3174 19.5514 23.3987 19.7316 23.4183 19.9234C23.4608 20.2643 23.6016 20.5855 23.8235 20.8478C24.0453 21.1101 24.3387 21.3023 24.6679 21.4008C25.2489 21.4747 25.7049 21.0227 25.7937 20.2887C25.8651 19.8137 25.7507 19.3295 25.4743 18.9367C25.198 18.5438 24.7808 18.2725 24.3097 18.1792C23.6441 18.0736 23.0351 17.7425 22.5844 17.2416C22.1337 16.7406 21.8687 16.1 21.8338 15.427C21.7218 14.9523 21.7583 14.4546 21.9382 14.0013C22.1181 13.5479 22.4328 13.1607 22.8398 12.8919C22.9998 12.8736 23.0372 12.7288 22.989 12.4967C22.9402 12.2144 22.9076 11.9296 22.8913 11.6436C22.8535 11.313 22.9701 11.1052 23.1952 11.0902C23.4204 11.0753 23.6274 11.2784 23.6865 11.6066C23.736 11.8996 23.7698 12.195 23.7879 12.4916C23.7845 12.573 23.8093 12.6531 23.8581 12.7184C23.9069 12.7836 23.9768 12.8301 24.0558 12.8499C24.547 13.079 24.9723 13.4285 25.2925 13.8658C25.6126 14.3032 25.8172 14.8143 25.8872 15.3517C25.9312 15.7356 25.817 15.9647 25.5455 15.9526C25.2741 15.9405 25.1561 15.7596 25.0801 15.3793C25.0391 15.0436 24.9066 14.7255 24.6971 14.4599C24.4876 14.1943 24.2091 13.9914 23.8921 13.8733C23.7817 13.8357 23.6649 13.8207 23.5486 13.8292C23.4323 13.8376 23.3189 13.8694 23.2151 13.9226C23.1113 13.9758 23.0193 14.0494 22.9445 14.1389C22.8697 14.2284 22.8138 14.332 22.7799 14.4436C22.6611 14.7177 22.6082 15.0158 22.6254 15.314C22.6427 15.6122 22.7297 15.9022 22.8793 16.1608C22.9651 16.4161 23.123 16.6411 23.3339 16.8086C23.5448 16.9762 23.7997 17.0791 24.0678 17.105C24.4081 17.1067 24.7434 17.187 25.0475 17.3396C25.3517 17.4921 25.6165 17.7128 25.8215 17.9845C26.9939 19.4491 26.8747 21.7098 25.5955 22.3316C25.4429 22.4139 25.3993 22.5054 25.4475 22.7375C25.4957 22.9697 25.5123 23.3027 25.5452 23.5906C25.5782 23.8785 25.4546 24.1195 25.2294 24.1345C25.0043 24.1495 24.8068 23.9344 24.7369 23.6075C24.6671 23.2806 24.7512 23.2602 24.7005 23.0067Z" fill="#3D2EE0" stroke="#3D2EE0" stroke-width="1.07332" stroke-miterlimit="10" stroke-linecap="round"/>
</g>
<defs>
<clipPath id="clip0_3128_1017">
<rect width="28" height="25" fill="white" transform="translate(4 6)"/>
</clipPath>
</defs>
</svg>
