<?xml version="1.0" encoding="utf-8"?>
<!-- Generator: Adobe Illustrator 27.5.0, SVG Export Plug-In . SVG Version: 6.00 Build 0)  -->
<svg version="1.1" id="Layer_1" xmlns="http://www.w3.org/2000/svg" xmlns:xlink="http://www.w3.org/1999/xlink" x="0px" y="0px"
	 viewBox="0 0 324 324" style="enable-background:new 0 0 324 324;" xml:space="preserve">
<style type="text/css">
	.st0{fill:#6D6D6D;}
	.st1{fill-rule:evenodd;clip-rule:evenodd;fill:#FFFFFF;}
	.st2{fill-rule:evenodd;clip-rule:evenodd;fill:#6D6D6D;}
	.st3{fill:#5245E3;}
	.st4{fill-rule:evenodd;clip-rule:evenodd;fill:url(#SVGID_1_);}
	.st5{fill-rule:evenodd;clip-rule:evenodd;fill:#3D2EE0;}
	.st6{fill-rule:evenodd;clip-rule:evenodd;fill:url(#SVGID_00000165228553884135346530000001350864905013812886_);}
	.st7{fill:#FFFFFF;}
	
		.st8{fill-rule:evenodd;clip-rule:evenodd;fill:none;stroke:#FFFFFF;stroke-width:8;stroke-linecap:round;stroke-linejoin:round;stroke-miterlimit:10;}
	.st9{fill:#DCEAFD;}
	.st10{fill:#F8F8F8;}
	.st11{fill:#E3FFF7;}
	.st12{fill:#CAFFF0;}
	.st13{fill:#B1FFE9;}
	.st14{fill:#98FFE2;}
	.st15{fill:#7FFFDC;}
	.st16{fill:#66FED5;}
	.st17{fill:#4DFECE;}
	.st18{fill:#34FEC7;}
	.st19{fill:#1BFEC0;}
	.st20{fill:#E2E1EA;}
	.st21{fill:#C8C7D8;}
	.st22{fill:#AFACC6;}
	.st23{fill:#9592B4;}
	.st24{fill:#7B78A2;}
	.st25{fill:#615D8F;}
	.st26{fill:#48437D;}
	.st27{fill:#2E286B;}
	.st28{fill:#140E59;}
	.st29{fill:#E7E5FB;}
	.st30{fill:#D2CEF8;}
	.st31{fill:#BDB7F4;}
	.st32{fill:#A7A0F1;}
	.st33{fill:#928AEE;}
	.st34{fill:#7D73EA;}
	.st35{fill:#685CE7;}
	.st36{fill:#3D2EE0;}
	.st37{fill:#CCCCCC;}
	.st38{fill:#FF3EFF;}
	.st39{fill:#FFFFFF;stroke:#000000;stroke-miterlimit:10;}
	.st40{fill:url(#SVGID_00000011731971979859319880000012581405405244487089_);}
	.st41{fill:url(#SVGID_00000175296591768288676630000012992295571432809406_);}
	.st42{fill:url(#SVGID_00000176011104081479095240000005502005766895412625_);}
	.st43{fill:#1AE8B7;}
	.st44{fill:#1AD2AD;}
	.st45{fill:#19BDA4;}
	.st46{fill:#18A79B;}
	.st47{fill:#189191;}
	.st48{fill:#177B88;}
	.st49{fill:#17657E;}
	.st50{fill:#164F75;}
	.st51{fill:#153A6C;}
	.st52{fill:#152462;}
	.st53{fill:#EA3AF0;}
	.st54{fill:#D435E1;}
	.st55{fill:#BF31D2;}
	.st56{fill:#AA2DC3;}
	.st57{fill:#9428B4;}
	.st58{fill:#7F24A4;}
	.st59{fill:#691F95;}
	.st60{fill:#541B86;}
	.st61{fill:#3F1777;}
	.st62{fill:#291268;}
	.st63{fill:#4C40D6;}
	.st64{fill:#473BCA;}
	.st65{fill:#4136BD;}
	.st66{fill:#3B31B1;}
	.st67{fill:#362CA4;}
	.st68{fill:#302798;}
	.st69{fill:#2B228B;}
	.st70{fill:#251D7F;}
	.st71{fill:#1F1872;}
	.st72{fill:#1A1366;}
	.st73{fill:#17D5A8;}
	.st74{fill:url(#SVGID_00000137101773434941321380000000198460001732048032_);}
	.st75{fill:url(#SVGID_00000016068494214728248130000012692248743262537639_);}
	.st76{fill:url(#SVGID_00000138567019662872842210000008954148886951542146_);}
	.st77{fill:#FFFFFF;stroke:#3D2EE0;stroke-width:12;stroke-miterlimit:10;}
	.st78{fill:url(#SVGID_00000163771968548279279960000002110569484331491762_);}
	.st79{fill:url(#SVGID_00000098189277372166177780000018175070139848461493_);}
	.st80{fill:url(#SVGID_00000132084813796158091010000014348897501707250076_);}
	.st81{fill:url(#SVGID_00000057144282203857723050000010845036568115164319_);}
	.st82{fill:url(#SVGID_00000072241866488342771900000015809786755370005386_);}
	.st83{fill-rule:evenodd;clip-rule:evenodd;fill:url(#SVGID_00000093154723752063729840000009619805193278755987_);}
	.st84{fill-rule:evenodd;clip-rule:evenodd;fill:url(#SVGID_00000180358173262481221380000018298467749888822153_);}
	.st85{fill:#FFFFFF;stroke:#3D2EE0;stroke-width:8;stroke-miterlimit:10;}
	.st86{fill:url(#SVGID_00000056426230485330251240000014717027791732500651_);}
	.st87{fill:url(#SVGID_00000025438071916891598010000014053293288690471336_);}
	.st88{fill:url(#SVGID_00000053540096308260111700000001195268262509277119_);}
	.st89{fill:url(#SVGID_00000127045786257003217420000006058527016784023216_);}
	.st90{fill:url(#SVGID_00000041985385016618160010000013099712503875763080_);}
	.st91{fill:url(#SVGID_00000171701852425608676390000007216760506242423467_);}
	.st92{fill:url(#SVGID_00000159454339740554545510000001603499954759954078_);}
	.st93{fill:url(#SVGID_00000099637385519775643720000006878571982659371431_);}
	.st94{fill:url(#SVGID_00000085227825678862919680000007560655960523743905_);}
	.st95{fill:url(#SVGID_00000040541692520487600840000009117857648315401099_);}
	.st96{fill:url(#SVGID_00000109014766142437179880000017212847657078959004_);}
	.st97{fill-rule:evenodd;clip-rule:evenodd;fill:url(#SVGID_00000173853774747823699520000005027860762803086472_);}
	.st98{fill:url(#SVGID_00000108994403695586480370000013609877051535342233_);}
	.st99{fill:url(#SVGID_00000163755334684349000310000014495738545694999938_);}
	.st100{fill:url(#SVGID_00000025441252696312907270000012580232599475304840_);}
	.st101{fill:url(#SVGID_00000163793706454797995450000016811493241590219153_);}
	.st102{fill:url(#SVGID_00000035515709152964559840000002403481502203363999_);}
	.st103{fill:url(#SVGID_00000142859071508941330120000015465219478280251552_);}
	.st104{fill:url(#SVGID_00000096026833175079382750000014884757788861862315_);}
	.st105{fill:url(#SVGID_00000013155771446636956890000009465671608533812654_);}
	.st106{fill-rule:evenodd;clip-rule:evenodd;fill:url(#SVGID_00000117675014439570102430000015824857135861400209_);}
	.st107{fill:url(#SVGID_00000049933143318051165860000002560139326895370909_);}
	.st108{fill:url(#SVGID_00000086682218532345188880000012856231401359537033_);}
	.st109{fill-rule:evenodd;clip-rule:evenodd;fill:#FFFFFF;stroke:#6D6D6D;stroke-width:11;stroke-miterlimit:10;}
	.st110{fill-rule:evenodd;clip-rule:evenodd;fill:#FFFFFF;stroke:#3D2EE0;stroke-width:11;stroke-miterlimit:10;}
</style>
<g>
	<circle class="st0" cx="162" cy="162" r="93.21"/>
	<g id="tubiao_00000055691634292014203820000014633293750624560033_">
		<path id="Fill-15_00000021818757465196380450000005642561603391079299_" class="st1" d="M181.53,155.89l-6.77,17.29
			c1.59,2.16,2.84,4.6,3.66,7.24l0,0l3.19,10.26c0.01,0.04,0.02,0.08,0.03,0.12l0,0l13.67-34.92H181.53z"/>
		<path id="Fill-17_00000085951172310539251310000011364541211315314590_" class="st1" d="M204.76,121.69
			c-0.89-0.65-2.27-0.63-1.72-0.08c2.25,2.22,3.66,5.36,3.66,8.84c0,6.7-5.2,12.13-11.62,12.16h-33.34
			c3.84,2.58,6.83,6.48,8.34,11.24l0.64,2.03c0,0.01,0,0.02,0.01,0.02h10.81h13.49v0.04c9.69-0.34,17.45-8.64,17.45-18.82
			C212.47,130.73,209.43,125.09,204.76,121.69"/>
		<path id="Fill-19_00000160158798938394120490000016556672416610154642_" class="st1" d="M133.12,167.14l12.31,31.49
			c1.88,4.82,6.33,7.93,11.32,7.93l0,0h11.4c3.47,0,6.75-1.74,8.79-4.67l0,0c2.04-2.92,2.62-6.72,1.55-10.16l0,0l-3.19-10.27v0
			c-2.66-8.57-10.26-14.33-18.91-14.33l0,0L133.12,167.14z M152.09,180.42h4.31c3.1,0,5.82,2.06,6.78,5.14l0,0l1.9,6.13
			c0.24,0.78-0.31,1.57-1.1,1.57l0,0h-6.88L152.09,180.42z"/>
		<path id="Fill-21_00000051348174561236161690000011724903669722793138_" class="st1" d="M150.65,155.89c1.92,0,3.6,1.27,4.2,3.17
			l0,0l0.64,2.03c0.45,1.42,0.22,2.93-0.62,4.14l0,0c-0.84,1.21-2.15,1.91-3.58,1.91l0,0h-4.41l-3.37-8.59h-13.78l8.58,21.88
			l12.98,0h0c5.57,0,10.65-2.7,13.91-7.4l0,0c3.27-4.71,4.14-10.57,2.4-16.09l0,0l-0.64-2.03c-0.71-2.25-2.51-3.03-4.67-3.03l0,0
			C157.39,151.87,150.65,155.89,150.65,155.89"/>
		<path id="Fill-23_00000147913938896457357450000013033067837664992921_" class="st1" d="M120.63,121.2
			c-0.39,0.01-0.95,0.17-1.39,0.49l0,0c-4.66,3.41-7.71,9.04-7.71,15.43l0,0c0,10.18,7.76,18.47,17.45,18.82l0,0v-0.04h13.5h8.18
			c1.92,0,3.6,1.27,4.2,3.17l0,0l0.64,2.03c0.38,1.2,0.25,2.46-0.31,3.56l0,0l12.36,3.58c1.18-3.61,1.25-7.52,0.06-11.29l0,0
			l-0.64-2.03c-2.32-7.36-8.88-12.3-16.32-12.3l0,0h-0.92l-20.76,0h-0.05c-6.43-0.03-11.63-5.46-11.63-12.16l0,0
			c0-3.48,1.41-6.62,3.66-8.84l0,0c0.26-0.26,0.09-0.4-0.25-0.41l0,0H120.63z"/>
	</g>
</g>
</svg>
