<?xml version="1.0" encoding="utf-8"?>
<!-- Generator: Adobe Illustrator 27.5.0, SVG Export Plug-In . SVG Version: 6.00 Build 0)  -->
<svg version="1.1" id="Layer_1" xmlns="http://www.w3.org/2000/svg" xmlns:xlink="http://www.w3.org/1999/xlink" x="0px" y="0px"
	 viewBox="0 0 324 324" style="enable-background:new 0 0 324 324;" xml:space="preserve">
<style type="text/css">
	.st0{fill:#6D6D6D;}
	.st1{fill-rule:evenodd;clip-rule:evenodd;fill:#FFFFFF;}
	.st2{fill-rule:evenodd;clip-rule:evenodd;fill:#6D6D6D;}
	.st3{fill:#5245E3;}
	.st4{fill-rule:evenodd;clip-rule:evenodd;fill:url(#SVGID_1_);}
	.st5{fill-rule:evenodd;clip-rule:evenodd;fill:#3D2EE0;}
	.st6{fill-rule:evenodd;clip-rule:evenodd;fill:url(#SVGID_00000039111616227053512910000011294993283419410066_);}
	.st7{fill:#FFFFFF;}
	
		.st8{fill-rule:evenodd;clip-rule:evenodd;fill:none;stroke:#FFFFFF;stroke-width:8;stroke-linecap:round;stroke-linejoin:round;stroke-miterlimit:10;}
	.st9{fill:#DCEAFD;}
	.st10{fill:#F8F8F8;}
	.st11{fill:#E3FFF7;}
	.st12{fill:#CAFFF0;}
	.st13{fill:#B1FFE9;}
	.st14{fill:#98FFE2;}
	.st15{fill:#7FFFDC;}
	.st16{fill:#66FED5;}
	.st17{fill:#4DFECE;}
	.st18{fill:#34FEC7;}
	.st19{fill:#1BFEC0;}
	.st20{fill:#E2E1EA;}
	.st21{fill:#C8C7D8;}
	.st22{fill:#AFACC6;}
	.st23{fill:#9592B4;}
	.st24{fill:#7B78A2;}
	.st25{fill:#615D8F;}
	.st26{fill:#48437D;}
	.st27{fill:#2E286B;}
	.st28{fill:#140E59;}
	.st29{fill:#E7E5FB;}
	.st30{fill:#D2CEF8;}
	.st31{fill:#BDB7F4;}
	.st32{fill:#A7A0F1;}
	.st33{fill:#928AEE;}
	.st34{fill:#7D73EA;}
	.st35{fill:#685CE7;}
	.st36{fill:#3D2EE0;}
	.st37{fill:#CCCCCC;}
	.st38{fill:#FF3EFF;}
	.st39{fill:#FFFFFF;stroke:#000000;stroke-miterlimit:10;}
	.st40{fill:url(#SVGID_00000106118697650576016050000004068580352241715870_);}
	.st41{fill:url(#SVGID_00000112626458402957005200000018292407439944557740_);}
	.st42{fill:url(#SVGID_00000167396565331652937300000002225885196076109748_);}
	.st43{fill:#1AE8B7;}
	.st44{fill:#1AD2AD;}
	.st45{fill:#19BDA4;}
	.st46{fill:#18A79B;}
	.st47{fill:#189191;}
	.st48{fill:#177B88;}
	.st49{fill:#17657E;}
	.st50{fill:#164F75;}
	.st51{fill:#153A6C;}
	.st52{fill:#152462;}
	.st53{fill:#EA3AF0;}
	.st54{fill:#D435E1;}
	.st55{fill:#BF31D2;}
	.st56{fill:#AA2DC3;}
	.st57{fill:#9428B4;}
	.st58{fill:#7F24A4;}
	.st59{fill:#691F95;}
	.st60{fill:#541B86;}
	.st61{fill:#3F1777;}
	.st62{fill:#291268;}
	.st63{fill:#4C40D6;}
	.st64{fill:#473BCA;}
	.st65{fill:#4136BD;}
	.st66{fill:#3B31B1;}
	.st67{fill:#362CA4;}
	.st68{fill:#302798;}
	.st69{fill:#2B228B;}
	.st70{fill:#251D7F;}
	.st71{fill:#1F1872;}
	.st72{fill:#1A1366;}
	.st73{fill:#17D5A8;}
	.st74{fill:url(#SVGID_00000144299246135910836950000016132919967369500861_);}
	.st75{fill:url(#SVGID_00000013194746545301599620000018352212472966407821_);}
	.st76{fill:url(#SVGID_00000008858947029761551660000003272315767718818994_);}
	.st77{fill:#FFFFFF;stroke:#3D2EE0;stroke-width:12;stroke-miterlimit:10;}
	.st78{fill:url(#SVGID_00000005240982501579458420000015322114283032558750_);}
	.st79{fill:url(#SVGID_00000045617499282548021090000017889330910641487519_);}
	.st80{fill:url(#SVGID_00000000921757517232201600000007885086962859975570_);}
	.st81{fill:url(#SVGID_00000088096416375820585050000013021398988836146820_);}
	.st82{fill:url(#SVGID_00000054263727136871615060000013213119250909037972_);}
	.st83{fill-rule:evenodd;clip-rule:evenodd;fill:url(#SVGID_00000159440226385884545790000015298185437111429762_);}
	.st84{fill-rule:evenodd;clip-rule:evenodd;fill:url(#SVGID_00000065784682982100213830000011333035014947361212_);}
	.st85{fill:#FFFFFF;stroke:#3D2EE0;stroke-width:8;stroke-miterlimit:10;}
	.st86{fill:url(#SVGID_00000161628713568329331790000008046482032657309838_);}
	.st87{fill:url(#SVGID_00000091712702391053466650000010313382176500681134_);}
	.st88{fill:url(#SVGID_00000031911907917666707290000001596226982208495773_);}
	.st89{fill:url(#SVGID_00000007401423249715369950000001580736214235078790_);}
	.st90{fill:url(#SVGID_00000138562469425280390770000001509353486693814680_);}
	.st91{fill:url(#SVGID_00000068677650842320248300000011272330641276073379_);}
	.st92{fill:url(#SVGID_00000060715078317747228470000006932135893825298585_);}
	.st93{fill:url(#SVGID_00000102502560702595601720000014053336181498972307_);}
	.st94{fill:url(#SVGID_00000087371092816504824450000014958727578357043601_);}
	.st95{fill:url(#SVGID_00000090285113225624259730000007013172592875107499_);}
	.st96{fill:url(#SVGID_00000122685164294067458180000016322705018355348393_);}
	.st97{fill-rule:evenodd;clip-rule:evenodd;fill:url(#SVGID_00000164512784386413734910000012294866098838717586_);}
	.st98{fill:url(#SVGID_00000074419075863720433240000003529248797259394177_);}
	.st99{fill:url(#SVGID_00000081627993149915920030000015707295819869411249_);}
	.st100{fill:url(#SVGID_00000052787921746737914980000016758558297547738548_);}
	.st101{fill:url(#SVGID_00000107560930137473589610000010055452192154329022_);}
	.st102{fill:url(#SVGID_00000110456632120098351920000006070672512678519728_);}
	.st103{fill:url(#SVGID_00000142869646846994722730000015324751501206088614_);}
	.st104{fill:url(#SVGID_00000055679059969281134300000003195135820908272284_);}
	.st105{fill:url(#SVGID_00000021809407673869897110000001549136910144310200_);}
	.st106{fill-rule:evenodd;clip-rule:evenodd;fill:url(#SVGID_00000171699498462953313470000002811282654525042570_);}
	.st107{fill:url(#SVGID_00000041269205047733744160000012055686087462962362_);}
	.st108{fill:url(#SVGID_00000162351156529172367740000006209175961151976325_);}
	.st109{fill-rule:evenodd;clip-rule:evenodd;fill:#FFFFFF;stroke:#6D6D6D;stroke-width:11;stroke-miterlimit:10;}
	.st110{fill-rule:evenodd;clip-rule:evenodd;fill:#FFFFFF;stroke:#3D2EE0;stroke-width:11;stroke-miterlimit:10;}
</style>
<g>
	<g>
		<path class="st0" d="M178.46,225.19c-17.24,0-34.48,0.03-51.72-0.01c-12.81-0.03-22.89-5.59-30.44-15.7
			c-4.4-5.9-6.34-12.82-7.35-20.1c-0.84-5.98-2.23-11.88-3.35-17.82c-1.1-5.83-2.17-11.66-3.27-17.48
			c-2.39-12.68-4.76-25.35-7.19-38.02c-1.66-8.68-3.39-17.34-5.14-26c-0.63-3.12-3.55-5.77-6.74-6.24
			c-1.26-0.19-2.55-0.23-3.83-0.24c-4.66-0.03-9.32,0.04-13.98-0.04c-3.97-0.07-7.23-3.36-7.47-7.37c-0.27-4.5,2.38-8.49,6.46-8.76
			c5.8-0.38,11.64-0.26,17.45-0.24c1.91,0.01,3.88,0.13,5.7,0.63c7.81,2.14,13.73,6.64,17.18,14.15c2.3,5,2.75,10.43,3.79,15.72
			c1.64,8.33,3.23,16.67,4.79,25.01c1.07,5.72,2.02,11.46,3.1,17.17c1.77,9.36,3.59,18.72,5.42,28.07
			c1.71,8.73,3.08,17.55,5.3,26.15c2.08,8.09,8.4,13.19,16.58,14.16c3.1,0.37,6.28,0.18,9.42,0.19c31.63,0.01,63.25-0.04,94.88,0.05
			c4.49,0.01,8.83-0.15,12.89-2.28c6.25-3.28,9.54-8.58,10.78-15.41c2.15-11.78,4.37-23.55,6.62-35.32
			c1.67-8.74,3.46-17.45,5.13-26.19c2.1-10.97,4.13-21.95,6.2-32.92c0.81-4.32,4.55-7.2,8.76-6.83c3.67,0.32,8.18,3.44,7.56,8.38
			c-0.6,4.72-1.49,9.41-2.35,14.1c-1.71,9.32-3.45,18.64-5.23,27.95c-1.53,8-3.13,15.98-4.68,23.97
			c-2.09,10.79-3.97,21.63-6.29,32.37c-2.4,11.1-8.86,19.32-18.95,24.59c-5.89,3.08-12.17,4.38-18.83,4.34
			c-17.06-0.1-34.13-0.03-51.2-0.03C178.46,225.18,178.46,225.18,178.46,225.19z"/>
		<path class="st0" d="M218.19,236.64c8.07-0.48,17.41,7.38,17.23,17.37c-0.15,8.25-8.1,16.3-16.66,16.42
			c-9.57,0.13-16.84-8.52-17.18-16.23C201.16,244.95,209.7,236.49,218.19,236.64z"/>
		<path class="st0" d="M122.74,253.6c-0.83-7.93,7.35-16.89,16.36-16.99c8.9-0.1,16.92,7.35,17.15,16.52
			c0.26,10.33-8.84,16.71-15.71,17.33C132.16,271.21,121.94,262.7,122.74,253.6z"/>
	</g>
	<g>
		<circle class="st0" cx="179.55" cy="123.19" r="69.68"/>
		<g id="tubiao_00000056408205689352485140000012478085114571103676_">
			<path id="Fill-15_00000026850620977495492520000017210764933723095742_" class="st1" d="M191.84,114.08l-0.53,13.87
				c1.65,1.14,3.13,2.55,4.36,4.21l0,0l4.77,6.46c0.02,0.03,0.03,0.05,0.05,0.08l0,0l1.06-28.01L191.84,114.08z"/>
			<path id="Fill-17_00000023280544929564430010000001803693211656736953_" class="st1" d="M199.83,84.22
				c-0.79-0.24-1.76,0.12-1.24,0.37c2.13,1.01,3.9,2.88,4.75,5.34c1.65,4.73-0.69,9.84-5.21,11.44l-23.53,8.2
				c3.34,0.88,6.42,2.89,8.65,5.88l0.95,1.27c0,0,0.01,0.01,0.01,0.01l7.63-2.66l9.52-3.32l0.01,0.03
				c6.76-2.63,10.19-10.39,7.69-17.57C207.49,88.71,203.95,85.48,199.83,84.22"/>
			<path id="Fill-19_00000091016562097702356230000005699182363680885150_" class="st1" d="M160.43,133.92l16.43,19.2
				c2.52,2.94,6.42,4.05,9.94,2.82l0,0l8.05-2.8c2.45-0.85,4.34-2.89,5.06-5.46l0,0c0.72-2.56,0.2-5.39-1.4-7.55l0,0l-4.77-6.46l0,0
				c-3.99-5.4-10.77-7.59-16.87-5.47l0,0L160.43,133.92z M177.08,138.64l3.04-1.06c2.19-0.76,4.62,0.03,6.05,1.96l0,0l2.85,3.86
				c0.36,0.49,0.17,1.19-0.39,1.38l0,0l-4.85,1.69L177.08,138.64z"/>
			<path id="Fill-21_00000054243332795628718560000005445223792066547892_" class="st1" d="M170.04,121.67
				c1.35-0.47,2.86,0.01,3.74,1.2l0,0l0.95,1.28c0.67,0.89,0.88,2.01,0.58,3.08l0,0c-0.3,1.06-1.05,1.87-2.06,2.23l0,0l-3.11,1.08
				l-4.49-5.23l-9.73,3.39l11.43,13.33l9.16-3.19l0,0c3.93-1.37,6.85-4.52,8-8.65l0,0c1.15-4.13,0.33-8.48-2.26-11.95l0,0
				l-0.95-1.28c-1.06-1.41-2.52-1.52-4.05-0.99l0,0C173.81,117.18,170.04,121.67,170.04,121.67"/>
			<path id="Fill-23_00000129893114817358726330000015547204591489834164_" class="st1" d="M140.31,104.56
				c-0.27,0.1-0.63,0.35-0.86,0.69l0,0c-2.45,3.55-3.22,8.28-1.65,12.79l0,0c2.5,7.19,10.02,11.13,16.94,8.99l0,0l-0.01-0.03
				l9.53-3.32l5.77-2.01c1.35-0.47,2.86,0.01,3.74,1.2l0,0l0.95,1.28c0.56,0.76,0.78,1.68,0.66,2.59l0,0l9.61-0.51
				c-0.05-2.84-0.97-5.62-2.73-7.99l0,0l-0.95-1.28c-3.45-4.62-9.29-6.5-14.54-4.67l0,0l-0.65,0.23l-14.66,5.1l-0.03,0.01
				c-4.54,1.56-9.55-0.99-11.2-5.72l0,0c-0.86-2.46-0.64-5.02,0.41-7.14l0,0c0.12-0.24-0.03-0.3-0.28-0.22l0,0L140.31,104.56z"/>
		</g>
	</g>
</g>
</svg>
