<?xml version="1.0" encoding="utf-8"?>
<!-- Generator: Adobe Illustrator 27.0.0, SVG Export Plug-In . SVG Version: 6.00 Build 0)  -->
<svg version="1.1" id="Layer_1" xmlns="http://www.w3.org/2000/svg" xmlns:xlink="http://www.w3.org/1999/xlink" x="0px" y="0px"
	 viewBox="0 0 324 324" style="enable-background:new 0 0 324 324;" xml:space="preserve">
<style type="text/css">
	.st0{fill:#6D6D6D;}
	.st1{fill:#FFFFFF;}
</style>
<g>
	<g>
		<g>
			<circle class="st0" cx="196.6" cy="112.7" r="39.6"/>
		</g>
		<g>
			<path class="st0" d="M261,225.6c0-35.5-28.8-64.3-64.3-64.3s-64.3,28.8-64.3,64.3H261z"/>
		</g>
	</g>
	<g>
		<circle class="st1" cx="130" cy="114.8" r="36.7"/>
		<path class="st0" d="M130,157.5c-23.6,0-42.7-19.2-42.7-42.7s19.2-42.7,42.7-42.7s42.7,19.2,42.7,42.7S153.6,157.5,130,157.5z
			 M130,84.1c-16.9,0-30.7,13.8-30.7,30.7s13.8,30.7,30.7,30.7s30.7-13.8,30.7-30.7S147,84.1,130,84.1z"/>
	</g>
	<g>
		<path class="st1" d="M189.7,219.4c0-32.9-26.7-59.7-59.6-59.7s-59.7,26.7-59.7,59.6L189.7,219.4L189.7,219.4z"/>
		<path class="st0" d="M195.7,225.4H64.4v-6c0-36.2,29.4-65.7,65.7-65.7s65.6,29.4,65.6,65.6V225.4z M76.7,213.4h106.6
			c-3-26.8-25.8-47.7-53.3-47.7C102.5,165.8,79.7,186.7,76.7,213.4z"/>
	</g>
</g>
</svg>
