<svg width="36" height="37" viewBox="0 0 36 37" fill="none" xmlns="http://www.w3.org/2000/svg">
<path d="M9.35645 25.046H10.9644C11.0708 25.0661 11.1658 25.1252 11.2305 25.2116C12.2088 26.3657 13.4707 27.2479 14.8933 27.7722C16.3158 28.2965 17.8505 28.4451 19.3478 28.2034C21.4152 27.9255 23.3107 26.9093 24.6817 25.3441C24.7625 25.2352 24.8705 25.1493 24.9951 25.0951C25.1196 25.0408 25.2563 25.0201 25.3914 25.0349C25.7906 25.0349 26.201 25.0349 26.7221 25.0349C25.915 26.2793 24.8469 27.3351 23.5912 28.1297C22.3355 28.9244 20.922 29.4391 19.4476 29.6386C17.4998 29.9241 15.5107 29.6424 13.7201 28.8275C11.9295 28.0126 10.414 26.6993 9.35645 25.046Z" fill="#3F3F46" stroke="#3F3F46" stroke-width="0.5"/>
<path d="M10.665 10.3192C11.6185 9.34682 12.7576 8.57407 14.0155 8.04647C15.2734 7.51887 16.6245 7.24707 17.9895 7.24707C19.3544 7.24707 20.7056 7.51887 21.9635 8.04647C23.2213 8.57407 24.3605 9.34682 25.3139 10.3192C24.8371 10.4407 24.338 10.5732 23.839 10.6725C23.7116 10.6737 23.5887 10.6263 23.4953 10.54C22.2507 9.58961 20.7796 8.97715 19.2259 8.7626C18.0561 8.5976 16.865 8.66691 15.7224 8.96644C14.5798 9.26598 13.5089 9.78972 12.5724 10.5069C12.4912 10.5842 12.3883 10.635 12.2774 10.6527C12.1665 10.6705 12.0528 10.6543 11.9514 10.6063C11.5284 10.4865 11.0989 10.3907 10.665 10.3192Z" fill="#3F3F46" stroke="#3F3F46" stroke-width="0.5"/>
<path d="M12.1939 23.1534H11.8237H6.78857C5.88768 23.1534 5.55448 22.748 5.48044 21.8511C5.43575 21.1173 5.58414 20.3845 5.91094 19.7252C6.23775 19.0659 6.73168 18.5028 7.34392 18.0917C7.41976 18.0329 7.51313 18.001 7.60925 18.001C7.70536 18.001 7.79873 18.0329 7.87457 18.0917C8.49488 18.457 9.20241 18.6498 9.92316 18.6498C10.6439 18.6498 11.3514 18.457 11.9717 18.0917C12.0296 18.0644 12.0928 18.0502 12.1569 18.0502C12.2209 18.0502 12.2841 18.0644 12.342 18.0917C12.7245 18.4111 13.0824 18.7428 13.428 19.0868C13.4554 19.1444 13.4697 19.2074 13.4697 19.2711C13.4697 19.3349 13.4554 19.3978 13.428 19.4554C12.621 20.4637 12.1855 21.7168 12.1939 23.006C12.1982 23.0551 12.1982 23.1044 12.1939 23.1534Z" fill="#3D2EE0"/>
<path d="M12.5147 14.6521C12.5114 15.3472 12.2317 16.0128 11.7368 16.5032C11.2419 16.9937 10.572 17.269 9.87369 17.269C9.17529 17.2593 8.5086 16.9771 8.01702 16.4832C7.52545 15.9892 7.24828 15.3228 7.24512 14.6275C7.25794 13.9397 7.53977 13.2841 8.03066 12.7999C8.52155 12.3158 9.18275 12.0415 9.87369 12.0352C10.2199 12.0336 10.5631 12.1001 10.8834 12.2308C11.2038 12.3616 11.495 12.5541 11.7404 12.7973C11.9858 13.0405 12.1805 13.3295 12.3134 13.6478C12.4463 13.9661 12.5147 14.3074 12.5147 14.6521Z" fill="#3D2EE0"/>
<path d="M23.7946 23.1916C23.8518 21.7644 23.347 20.3713 22.3877 19.3092C22.7122 18.8004 23.1571 18.3785 23.6835 18.0806C23.7357 18.0565 23.7925 18.0439 23.8501 18.0439C23.9076 18.0439 23.9645 18.0565 24.0167 18.0806C24.652 18.4546 25.3765 18.6519 26.1146 18.6519C26.8527 18.6519 27.5773 18.4546 28.2126 18.0806C28.2838 18.0634 28.3579 18.061 28.4302 18.0737C28.5024 18.0864 28.5711 18.1139 28.6322 18.1544C29.1887 18.5194 29.6486 19.0126 29.973 19.5922C30.2974 20.1717 30.4767 20.8206 30.4957 21.4838C30.5697 22.6264 30.3105 23.253 28.8667 23.2039C27.4228 23.1547 25.7814 23.2039 24.2388 23.2039L23.7946 23.1916Z" fill="#3D2EE0"/>
<path d="M26.1647 12.0353C26.862 12.0546 27.5235 12.3465 28.0062 12.8477C28.4889 13.349 28.754 14.0193 28.744 14.7136C28.7216 15.3992 28.4322 16.0491 27.937 16.526C27.4418 17.003 26.7797 17.2694 26.0907 17.2691C25.7422 17.2627 25.3985 17.188 25.079 17.0493C24.7595 16.9106 24.4707 16.7106 24.2289 16.4608C23.9871 16.2109 23.797 15.9161 23.6697 15.5931C23.5424 15.2701 23.4803 14.9254 23.4868 14.5785C23.5125 13.8908 23.8067 13.2403 24.3068 12.7653C24.807 12.2903 25.4736 12.0284 26.1647 12.0353Z" fill="#3D2EE0"/>
<path d="M17.9948 24.6315H14.7738C14.6197 24.6446 14.4647 24.624 14.3195 24.5712C14.1743 24.5184 14.0424 24.4347 13.9331 24.3258C13.8238 24.217 13.7397 24.0857 13.6866 23.9412C13.6336 23.7966 13.6129 23.6422 13.6261 23.4889C13.5599 22.7616 13.6803 22.0295 13.976 21.3611C14.2717 20.6928 14.733 20.1102 15.3168 19.668C15.4276 19.5813 15.5645 19.5342 15.7055 19.5342C15.8465 19.5342 15.9834 19.5813 16.0943 19.668C16.6879 20.0063 17.3601 20.1843 18.0441 20.1843C18.7282 20.1843 19.4003 20.0063 19.994 19.668C20.0698 19.6092 20.1632 19.5773 20.2593 19.5773C20.3554 19.5773 20.4488 19.6092 20.5246 19.668C21.1819 20.1087 21.7038 20.7218 22.0327 21.4396C22.3616 22.1573 22.4846 22.9516 22.3881 23.7346C22.3543 23.9864 22.2262 24.2163 22.0293 24.378C21.8325 24.5398 21.5816 24.6215 21.3268 24.6069L17.9948 24.6315Z" fill="#3F3F46"/>
<path d="M15.3904 16.0675C15.3952 15.7233 15.4685 15.3835 15.606 15.0677C15.7435 14.7519 15.9425 14.4664 16.1915 14.2276C16.4405 13.9889 16.7346 13.8016 17.0568 13.6767C17.3789 13.5517 17.7227 13.4916 18.0684 13.4998C18.4136 13.5061 18.754 13.5807 19.0699 13.7192C19.3859 13.8577 19.671 14.0574 19.9087 14.3066C20.1465 14.5559 20.332 14.8497 20.4546 15.1709C20.5773 15.4922 20.6345 15.8346 20.623 16.1781C20.62 16.5227 20.5473 16.8632 20.4093 17.1793C20.2713 17.4954 20.0708 17.7806 19.8198 18.0179C19.5687 18.2552 19.2723 18.4398 18.9481 18.5607C18.6239 18.6815 18.2785 18.7361 17.9327 18.7212C17.5907 18.7133 17.2536 18.6383 16.9407 18.5006C16.6279 18.3629 16.3453 18.1652 16.1092 17.9187C15.8732 17.6723 15.6881 17.382 15.5648 17.0643C15.4415 16.7467 15.3822 16.408 15.3904 16.0675Z" fill="#3F3F46"/>
</svg>
