<svg width="36" height="37" viewBox="0 0 36 37" fill="none" xmlns="http://www.w3.org/2000/svg">
<g clip-path="url(#clip0_3107_832)">
<path d="M27.6575 6.5H8.34251C5.94421 6.5 4 8.73858 4 11.5C4 14.2614 5.94421 16.5 8.34251 16.5H27.6575C30.0558 16.5 32 14.2614 32 11.5C32 8.73858 30.0558 6.5 27.6575 6.5Z" fill="#3F3F46"/>
<path d="M7.42871 8.78613H9.05261C9.52683 8.78613 9.93871 8.85107 10.2882 8.98094C10.6378 9.11081 10.9268 9.2972 11.1555 9.5401C11.386 9.7806 11.5569 10.074 11.6684 10.4203C11.7818 10.7642 11.8385 11.1515 11.8385 11.5819C11.8385 11.9908 11.7827 12.3696 11.6712 12.7183C11.5598 13.0646 11.3897 13.3653 11.1611 13.6202C10.9325 13.8727 10.6434 14.0711 10.2939 14.2154C9.94438 14.3573 9.5325 14.4283 9.05827 14.4283L7.42871 14.4247V8.78613ZM9.27366 13.4362C9.54195 13.4362 9.77717 13.3929 9.97933 13.3063C10.1815 13.2173 10.3496 13.0923 10.4838 12.9312C10.6198 12.77 10.7218 12.5752 10.7899 12.3467C10.8579 12.1183 10.8919 11.8633 10.8919 11.5819C10.8919 11.3054 10.8579 11.0565 10.7899 10.8352C10.7218 10.6115 10.6198 10.4227 10.4838 10.2688C10.3496 10.1125 10.1815 9.99224 9.97933 9.90807C9.77717 9.82389 9.54195 9.7818 9.27366 9.7818H8.3271V13.4362H9.27366Z" fill="white"/>
<path d="M12.4761 12.2818C12.4761 11.9932 12.5224 11.7178 12.615 11.4557C12.7076 11.1911 12.8408 10.9578 13.0146 10.7558C13.1884 10.5538 13.4009 10.3927 13.6522 10.2724C13.9054 10.1522 14.1926 10.092 14.5138 10.092C14.8331 10.092 15.1203 10.1534 15.3753 10.276C15.6323 10.3963 15.8495 10.5622 16.0271 10.7739C16.2066 10.9855 16.3436 11.2344 16.4381 11.5206C16.5344 11.8068 16.5826 12.1135 16.5826 12.4405C16.5826 12.4814 16.5817 12.5259 16.5798 12.574C16.5798 12.6197 16.5779 12.6618 16.5741 12.7003H13.4113C13.4472 12.8277 13.5049 12.9444 13.5842 13.0502C13.6655 13.156 13.7665 13.2474 13.8875 13.3244C14.0084 13.4013 14.1482 13.4615 14.3069 13.5047C14.4656 13.5456 14.6413 13.5661 14.834 13.5661C15.0267 13.5661 15.2185 13.5408 15.4093 13.4903C15.6001 13.4374 15.7825 13.3713 15.9563 13.2919L16.2397 14.1072C16.1301 14.1721 16.0186 14.2299 15.9053 14.2804C15.7938 14.3285 15.6767 14.3693 15.5539 14.403C15.4329 14.4343 15.3054 14.4583 15.1713 14.4752C15.039 14.492 14.8992 14.5004 14.7518 14.5004C14.3758 14.5004 14.0462 14.4427 13.7628 14.3273C13.4794 14.2118 13.2422 14.0543 13.0514 13.8547C12.8606 13.6551 12.717 13.4206 12.6206 13.1512C12.5243 12.8819 12.4761 12.592 12.4761 12.2818ZM15.6927 11.8669C15.6625 11.7491 15.6153 11.6397 15.551 11.5387C15.4887 11.4352 15.4103 11.3463 15.3158 11.2717C15.2213 11.1947 15.1117 11.1346 14.9871 11.0913C14.8624 11.048 14.7254 11.0264 14.5761 11.0264C14.4174 11.0264 14.2729 11.0492 14.1425 11.0949C14.0121 11.1406 13.8978 11.202 13.7996 11.2789C13.7013 11.3559 13.6192 11.4449 13.553 11.5459C13.4888 11.6469 13.4416 11.7539 13.4113 11.8669H15.6927Z" fill="white"/>
<path d="M17.5093 10.1678H18.3482V10.5286C18.5579 10.365 18.762 10.252 18.9604 10.1895C19.1606 10.1245 19.3562 10.092 19.547 10.092C19.8134 10.092 20.0581 10.1462 20.281 10.2544C20.504 10.3626 20.6948 10.5262 20.8535 10.745C20.9763 10.6248 21.0972 10.5237 21.2162 10.442C21.3353 10.3578 21.4543 10.2905 21.5733 10.24C21.6924 10.187 21.8133 10.1498 21.9361 10.1281C22.0589 10.1041 22.1855 10.092 22.3158 10.092C22.5898 10.092 22.8382 10.1401 23.0612 10.2363C23.2841 10.3301 23.474 10.4708 23.6308 10.6584C23.7895 10.846 23.9114 11.0805 23.9964 11.3619C24.0833 11.6409 24.1268 11.9643 24.1268 12.3323V14.4247H23.2907V12.5055C23.2907 12.2722 23.2643 12.0642 23.2114 11.8814C23.1604 11.6962 23.0876 11.5411 22.9932 11.416C22.9006 11.2885 22.7891 11.1923 22.6588 11.1274C22.5303 11.0601 22.3886 11.0264 22.2336 11.0264C22.1486 11.0264 22.0617 11.0372 21.9729 11.0589C21.8841 11.0781 21.7972 11.1094 21.7122 11.1527C21.6291 11.1959 21.5506 11.2513 21.477 11.3186C21.4033 11.3835 21.339 11.4605 21.2843 11.5495V14.4247H20.4482V12.5055C20.4482 12.2722 20.4218 12.0642 20.3689 11.8814C20.3178 11.6962 20.2451 11.5411 20.1506 11.416C20.0581 11.2885 19.9456 11.1923 19.8134 11.1274C19.683 11.0601 19.5394 11.0264 19.3826 11.0264C19.2863 11.0264 19.189 11.0396 19.0907 11.0661C18.9944 11.0901 18.9008 11.125 18.8101 11.1707C18.7213 11.2164 18.6373 11.2717 18.5579 11.3366C18.4805 11.4016 18.4106 11.4749 18.3482 11.5567V14.4247H17.5093V10.1678Z" fill="white"/>
<path d="M24.9827 12.2962C24.9827 11.9908 25.0308 11.7046 25.1272 11.4376C25.2254 11.1707 25.3643 10.9374 25.5438 10.7378C25.7252 10.5382 25.9434 10.3806 26.1984 10.2652C26.4554 10.1498 26.7435 10.092 27.0628 10.092C27.3821 10.092 27.6693 10.1498 27.9244 10.2652C28.1813 10.3806 28.3995 10.5382 28.579 10.7378C28.7604 10.9374 28.8993 11.1707 28.9956 11.4376C29.0939 11.7046 29.143 11.9908 29.143 12.2962C29.143 12.6017 29.0939 12.8879 28.9956 13.1548C28.8993 13.4218 28.7604 13.6551 28.579 13.8547C28.3995 14.0543 28.1813 14.2118 27.9244 14.3273C27.6693 14.4427 27.3821 14.5004 27.0628 14.5004C26.7435 14.5004 26.4554 14.4427 26.1984 14.3273C25.9434 14.2118 25.7252 14.0543 25.5438 13.8547C25.3643 13.6551 25.2254 13.4218 25.1272 13.1548C25.0308 12.8879 24.9827 12.6017 24.9827 12.2962ZM25.864 12.2962C25.864 12.467 25.8905 12.6293 25.9434 12.7832C25.9982 12.9348 26.0766 13.0694 26.1786 13.1873C26.2825 13.3027 26.4082 13.3953 26.5555 13.4651C26.7048 13.5324 26.8739 13.5661 27.0628 13.5661C27.2518 13.5661 27.4199 13.5324 27.5673 13.4651C27.7165 13.3953 27.8422 13.3027 27.9442 13.1873C28.0481 13.0694 28.1265 12.9348 28.1794 12.7832C28.2342 12.6293 28.2616 12.467 28.2616 12.2962C28.2616 12.1255 28.2342 11.9631 28.1794 11.8092C28.1265 11.6553 28.0481 11.5206 27.9442 11.4052C27.8422 11.2873 27.7165 11.1947 27.5673 11.1274C27.4199 11.0577 27.2518 11.0228 27.0628 11.0228C26.8739 11.0228 26.7048 11.0577 26.5555 11.1274C26.4082 11.1947 26.2825 11.2873 26.1786 11.4052C26.0766 11.5206 25.9982 11.6553 25.9434 11.8092C25.8905 11.9631 25.864 12.1255 25.864 12.2962Z" fill="white"/>
<path d="M21.9437 30.2728H16.141C16.0449 30.1808 16.141 30.0659 16.141 29.951C16.141 29.0086 16.141 28.0662 16.141 27.1238C16.1442 26.9279 16.0667 26.7371 15.9215 26.5836L14.632 25.17C14.1567 24.6268 13.9019 23.9702 13.9049 23.2967C13.9049 22.6531 13.9049 21.998 13.9049 21.3429C13.8966 21.2227 13.9207 21.1025 13.9753 20.9911C14.0299 20.8797 14.1137 20.78 14.2204 20.6993C14.2204 20.6419 14.385 20.5729 14.4811 20.6074C14.5771 20.6419 14.5771 20.7453 14.5771 20.8257C14.5771 21.182 14.5771 21.5383 14.5771 21.8831C14.5771 21.9635 14.5771 22.0555 14.6457 22.1129C15.1532 22.1819 15.1944 22.1129 15.1944 21.7337V16.3781C15.1876 16.2785 15.1876 16.1788 15.1944 16.0792C15.2197 15.919 15.3136 15.7719 15.4587 15.6653C15.6038 15.5587 15.7902 15.5 15.9832 15.5C16.1762 15.5 16.3625 15.5587 16.5077 15.6653C16.6528 15.7719 16.7467 15.919 16.772 16.0792V20.6763C16.772 20.9407 16.772 20.9637 17.0875 20.9637C17.403 20.9637 17.4167 20.9637 17.4167 20.6763C17.4167 20.1936 17.4167 19.711 17.4167 19.2283C17.4163 19.1165 17.4494 19.0065 17.5129 18.9083C17.5765 18.8101 17.6685 18.7268 17.7805 18.6661C17.8925 18.6055 18.0209 18.5694 18.1539 18.5612C18.2869 18.553 18.4202 18.5729 18.5416 18.6191C18.6867 18.6691 18.8096 18.7557 18.8932 18.867C18.9768 18.9782 19.017 19.1085 19.008 19.2398V20.6763C18.9995 20.7326 19.011 20.7897 19.0412 20.8404C19.0713 20.8912 19.1186 20.9334 19.1773 20.9616C19.236 20.9899 19.3033 21.003 19.3708 20.9993C19.4383 20.9955 19.503 20.9751 19.5568 20.9407C19.6665 20.9407 19.6528 20.8028 19.6528 20.7223C19.6528 20.3775 19.6528 20.0327 19.6528 19.688C19.6518 19.5436 19.7097 19.4034 19.817 19.2905C19.9244 19.1776 20.0746 19.0988 20.2427 19.0674C20.4168 19.0314 20.6001 19.0433 20.7656 19.1012C20.9311 19.1591 21.07 19.2601 21.1618 19.3892C21.2216 19.497 21.2498 19.6152 21.2441 19.7339V20.7338C21.2441 20.9407 21.2441 20.9637 21.5733 20.9637C21.9026 20.9637 21.8751 20.9637 21.8888 20.7338V20.4465C21.8867 20.3585 21.9064 20.2711 21.9469 20.1899C21.9873 20.1087 22.0476 20.0354 22.1238 19.9748C22.2 19.9143 22.2904 19.8677 22.3893 19.8381C22.4882 19.8085 22.5934 19.7965 22.6982 19.8029C22.7996 19.7998 22.9006 19.8139 22.9954 19.8442C23.0901 19.8746 23.1766 19.9207 23.2495 19.9797C23.3225 20.0387 23.3806 20.1094 23.4202 20.1877C23.4598 20.2659 23.4802 20.35 23.4801 20.435C23.4801 20.9522 23.4801 21.4578 23.4801 21.975C23.5121 22.5924 23.4892 23.2109 23.4116 23.8254C23.3081 24.3013 23.1472 24.7672 22.9314 25.216C22.6845 25.7217 22.4513 26.2388 22.2044 26.7445C22.0894 26.9735 22.0334 27.2202 22.0397 27.4686V29.905C22.0565 29.9685 22.0566 30.0343 22.0401 30.0978C22.0235 30.1613 21.9906 30.221 21.9437 30.2728Z" fill="#3D2EE0"/>
<path d="M15.2499 30.2713C15.2499 29.6622 15.2499 29.0531 15.2499 28.444V27.1913C15.2556 27.0911 15.2165 26.9927 15.1401 26.9154L13.9192 25.5708C13.3716 24.9637 13.0646 24.2283 13.0412 23.4676C12.9863 22.6714 12.9863 21.8733 13.0412 21.0771C13.0854 20.7984 13.232 20.5381 13.4605 20.3322C13.6891 20.1263 13.9884 19.985 14.317 19.9278C14.6457 19.8705 14.7108 20.0766 14.7108 20.0766C14.7108 20.0766 14.7108 20.6247 14.4679 20.6979C14.4679 20.6634 14.3582 20.6979 14.3033 20.7553C14.1972 20.8225 14.1111 20.9094 14.0516 21.009C13.9921 21.1087 13.9609 21.2185 13.9604 21.33C13.9604 22.054 13.9604 22.7895 13.9604 23.5136C14.0181 24.2205 14.345 24.8932 14.8932 25.4329C15.291 25.8466 15.6751 26.2833 16.0592 26.7086C16.1523 26.8018 16.2012 26.9204 16.1964 27.0418V30.2713H15.2499Z" fill="#3D2EE0"/>
</g>
<defs>
<clipPath id="clip0_3107_832">
<rect width="28" height="24" fill="white" transform="translate(4 6.5)"/>
</clipPath>
</defs>
</svg>
