<?xml version="1.0" encoding="utf-8"?>
<!-- Generator: Adobe Illustrator 26.0.0, SVG Export Plug-In . SVG Version: 6.00 Build 0)  -->
<svg version="1.1" xmlns="http://www.w3.org/2000/svg" xmlns:xlink="http://www.w3.org/1999/xlink" x="0px" y="0px"
	 viewBox="0 0 45 45" style="enable-background:new 0 0 45 45;" xml:space="preserve">
<style type="text/css">
	.st0{fill:#FFFFFF;}
	.st1{fill:#6D6D6D;}
	.st2{fill:none;stroke:#FFFFFF;stroke-miterlimit:10;}
</style>
<g id="图层_1">
</g>
<g id="图层_2">
	<g>
		<path class="st0" d="M20,35.4c-0.1-0.5-0.3-0.7-0.9-0.7c-3.5,0-6.9,0-10.4,0c-1.4,0-2.6-0.8-3-2.1c0-0.1-0.1-0.2-0.1-0.4
			c11.3,0,22.6,0,33.9,0c-0.2,1.4-1.6,2.4-3.1,2.4c-3.4,0-6.8,0-10.2,0c-0.1,0-0.2,0-0.3,0c-0.5,0-0.7,0.2-0.9,0.7
			c-0.6,0-1.2,0-1.8,0c-0.1-0.1-0.1-0.2-0.2-0.3c-0.1-0.2-0.3-0.3-0.5-0.4c-0.3,0-0.5,0.1-0.6,0.4c0,0.1-0.1,0.2-0.2,0.3
			C21.2,35.4,20.6,35.4,20,35.4z"/>
		<path class="st1" d="M41,32.2c-0.1,0.1-0.1,0.2-0.1,0.4c-0.5,2.1-2.3,3.5-4.5,3.5c-3.5,0-7,0-10.5,0c-0.5,0-0.7-0.2-0.9-0.7
			c-0.1-0.4,0.1-0.6,0.5-0.8c0.2-0.1,0.5-0.1,0.7-0.1c3.4,0,6.7,0,10.1,0c1.3,0,2.3-0.6,2.9-1.7c0-0.1,0.1-0.2,0.1-0.3
			c0-0.1,0-0.2-0.1-0.2c-0.1,0-0.2,0-0.3,0c-10.9,0-21.8,0-32.7,0c0,0,0,0-0.1,0c-0.4,0-0.4,0-0.2,0.4c0.6,1.2,1.5,1.8,2.8,1.8
			c0.9,0,1.8,0,2.7,0c2.5,0,5,0,7.5,0c0.2,0,0.5,0,0.7,0.1c0.3,0.2,0.5,0.4,0.4,0.7c-0.1,0.5-0.3,0.7-0.9,0.7c-3.5,0-7,0-10.6,0
			c-2.4,0-4.5-2-4.6-4.4c0-0.7,0.2-0.9,0.9-0.9c0.5,0,0.5,0,0.5-0.5c0-5.9,0-11.8,0-17.7c0-1.9,1.2-3.4,3.2-3.7c0.2,0,0.4,0,0.6,0
			c8.8,0,17.7,0,26.5,0c2.3,0,3.8,1.5,3.8,3.8c0,5.9,0,11.8,0,17.7c0,0.3,0.1,0.5,0.4,0.4c0.5-0.1,0.8,0.1,1,0.5
			C41,31.6,41,31.9,41,32.2z"/>
		<path class="st1" d="M21.7,35.3c0.1-0.6,0.4-0.9,0.9-0.9c0.5,0,0.8,0.3,0.9,0.9c-0.1,0.6-0.4,0.9-0.9,0.9
			C22.1,36.2,21.8,35.9,21.7,35.3z"/>
		<path class="st2" d="M31.9,30.8c0.2-0.1,0.2-0.1,0.3-0.2c0.4-0.3,0.5-0.6,0.3-1.1c-0.5-0.9-1-1.8-1.5-2.7c0.4-0.1,0.7-0.3,1-0.4
			c0.3-0.1,0.5-0.3,0.6-0.7c0-0.3-0.2-0.6-0.5-0.7c-1.9-1-3.9-2-5.8-3.1c-0.6-0.3-1.1,0-1.1,0.7c-0.1,2.2-0.2,4.4-0.3,6.5
			c0,0.3,0.1,0.6,0.4,0.8c0.3,0.2,0.6,0.1,0.9-0.2c0.2-0.2,0.5-0.4,0.7-0.6c0.1-0.1,0.1-0.1,0.2,0c0.3,0.5,0.6,1,0.9,1.5
			c-0.2,0-0.3,0-0.4,0c-6.8,0-13.6,0-20.4,0c-0.3,0-0.3-0.1-0.3-0.4c0-5.9,0-11.9,0-17.8c0-1.4,0.9-2.3,2.3-2.3c8.9,0,17.7,0,26.6,0
			c1.4,0,2.3,0.9,2.3,2.3c0,5.9,0,11.9,0,17.8c0,0.3-0.1,0.4-0.4,0.4c-1.8,0-3.6,0-5.4,0C32.2,30.8,32.1,30.8,31.9,30.8z"/>
		<path class="st0" d="M26.6,23.7c1.2,0.6,2.3,1.2,3.4,1.8c0.1,0.1,0.1,0.1,0,0.1c-0.7,0.2-1,0.7-0.5,1.5c0.5,0.7,0.9,1.5,1.3,2.3
			c0.1,0.2,0.1,0.3-0.1,0.5c-0.3,0.2-0.6,0.3-0.9,0.5c-0.2,0.1-0.3,0.1-0.4-0.1c-0.4-0.8-0.9-1.6-1.4-2.4c-0.4-0.7-0.8-0.8-1.4-0.3
			c0,0-0.1,0-0.1,0.1C26.5,26.3,26.5,25.1,26.6,23.7z"/>
		<path class="st0" d="M22.3,16.8c-0.2,1-0.3,1.9-0.5,2.8c-0.1,0.5-0.4,0.7-0.9,0.7c-0.4-0.1-0.6-0.4-0.6-0.9
			c0.3-1.9,0.6-3.7,0.9-5.5c0.1-0.4,0.4-0.7,0.8-0.8c0.4,0,0.7,0.2,0.9,0.7c0.3,1.1,0.6,2.2,0.9,3.4c0.2-0.7,0.4-1.3,0.5-2
			c0.1-0.5,0.2-0.9,0.4-1.4c0.1-0.4,0.5-0.7,0.9-0.7c0.4,0,0.7,0.3,0.8,0.8c0.3,1.9,0.7,3.7,1,5.6c0.1,0.4-0.2,0.8-0.6,0.8
			c-0.4,0.1-0.8-0.1-0.9-0.6c-0.2-0.8-0.3-1.7-0.4-2.5c0-0.1-0.1-0.2-0.1-0.4c-0.3,1-0.5,1.9-0.7,2.7c-0.1,0.4-0.3,0.7-0.7,0.8
			c-0.5,0.1-0.9-0.2-1-0.7c-0.2-0.8-0.4-1.6-0.7-2.4C22.4,17.1,22.4,17,22.3,16.8z"/>
		<path class="st0" d="M32.4,20.3c-2,0-3.6-1.6-3.6-3.6c0-2,1.6-3.6,3.6-3.6c2,0,3.6,1.6,3.6,3.6C36,18.7,34.4,20.3,32.4,20.3z"/>
		<path class="st0" d="M9,16.7c0-0.9,0-1.8,0-2.7c0-0.6,0.3-0.9,0.9-0.9c0.5,0,1.1,0,1.6,0.1c1.2,0.3,2.1,1.3,2.3,2.8
			c0.1,0.9,0.1,1.9-0.4,2.7c-0.6,1.1-1.4,1.7-2.7,1.7c-0.3,0-0.6,0-0.8,0C9.2,20.3,9,20,9,19.4C9,18.5,9,17.6,9,16.7z"/>
		<path class="st0" d="M15.3,16.7c0-0.9,0-1.8,0-2.7c0-0.6,0.3-0.9,0.9-0.9c0.6,0,1.2,0,1.8,0c0.5,0,0.8,0.3,0.8,0.7
			c0,0.4-0.3,0.7-0.8,0.7c-0.1,0-0.2,0-0.3,0c-0.3,0-0.7-0.1-0.9,0.1c-0.2,0.2,0,0.6-0.1,0.9c-0.1,0.4,0.1,0.5,0.5,0.5
			c0.2,0,0.5,0,0.7,0c0.4,0,0.7,0.3,0.7,0.7c0,0.4-0.3,0.7-0.7,0.7c-0.3,0-0.6,0-0.9,0c-0.2,0-0.2,0-0.2,0.2c0,0.3,0,0.7,0,1
			c0,0.2,0.1,0.2,0.2,0.2c0.3,0,0.7,0,1,0c0.5,0,0.8,0.3,0.8,0.7c0,0.4-0.3,0.7-0.8,0.7c-0.6,0-1.1,0-1.7,0c-0.8,0-1-0.2-1-1
			C15.3,18.4,15.3,17.5,15.3,16.7z"/>
		<path class="st1" d="M32.4,18.9c-1.2,0-2.2-1-2.2-2.1c0-1.2,1-2.2,2.2-2.2c1.2,0,2.2,1,2.2,2.2C34.6,17.9,33.6,18.9,32.4,18.9z"/>
		<path class="st1" d="M12.4,16.6c0,0.5-0.1,1-0.3,1.5c-0.3,0.5-0.8,0.8-1.4,0.8c-0.2,0-0.2,0-0.2-0.2c0-1.3,0-2.6,0-3.9
			c0-0.2,0.1-0.2,0.2-0.2c0.9,0,1.5,0.6,1.6,1.5C12.3,16.2,12.3,16.4,12.4,16.6z"/>
	</g>
</g>
</svg>
