<svg width="24" height="24" viewBox="0 0 24 24" fill="none" xmlns="http://www.w3.org/2000/svg">
<path fill-rule="evenodd" clip-rule="evenodd" d="M11.199 13.152V4.72727C11.199 4.32561 11.5572 4 11.999 4C12.4409 4 12.799 4.32561 12.799 4.72727V13.1537L14.6343 11.4853C14.9467 11.2013 15.4533 11.2013 15.7657 11.4853C16.0781 11.7693 16.0781 12.2298 15.7657 12.5138L12.5657 15.4229C12.4972 15.4851 12.4193 15.5338 12.3362 15.5687C12.2338 15.6121 12.1195 15.6363 11.999 15.6363C11.7636 15.6363 11.552 15.5439 11.4056 15.3968L8.23431 12.5138C7.92189 12.2298 7.92189 11.7693 8.23431 11.4853C8.54673 11.2013 9.05327 11.2013 9.36569 11.4853L11.199 13.152ZM4 15.6365V17.8183C4 19.0233 5.07452 20.0001 6.4 20.0001H17.6C18.9255 20.0001 20 19.0233 20 17.8183V15.6365C20 15.2348 19.6418 14.9092 19.2 14.9092C18.7582 14.9092 18.4 15.2348 18.4 15.6365V17.8183C18.4 18.2199 18.0418 18.5456 17.6 18.5456H6.4C5.95817 18.5456 5.6 18.2199 5.6 17.8183V15.6365C5.6 15.2348 5.24183 14.9092 4.8 14.9092C4.35817 14.9092 4 15.2348 4 15.6365Z" fill="#202326"/>
</svg>
