<?xml version="1.0" encoding="utf-8"?>
<!-- Generator: Adobe Illustrator 27.5.0, SVG Export Plug-In . SVG Version: 6.00 Build 0)  -->
<svg version="1.1" id="Layer_1" xmlns="http://www.w3.org/2000/svg" xmlns:xlink="http://www.w3.org/1999/xlink" x="0px" y="0px"
	 viewBox="0 0 324 324" style="enable-background:new 0 0 324 324;" xml:space="preserve">
<style type="text/css">
	.st0{fill:#6D6D6D;}
	.st1{fill-rule:evenodd;clip-rule:evenodd;fill:#FFFFFF;}
	.st2{fill-rule:evenodd;clip-rule:evenodd;fill:#6D6D6D;}
	.st3{fill:#5245E3;}
	.st4{fill-rule:evenodd;clip-rule:evenodd;fill:url(#SVGID_1_);}
	.st5{fill-rule:evenodd;clip-rule:evenodd;fill:#3D2EE0;}
	.st6{fill-rule:evenodd;clip-rule:evenodd;fill:url(#SVGID_00000126300687109791741800000003009451314217734568_);}
	.st7{fill:#FFFFFF;}
	
		.st8{fill-rule:evenodd;clip-rule:evenodd;fill:none;stroke:#FFFFFF;stroke-width:8;stroke-linecap:round;stroke-linejoin:round;stroke-miterlimit:10;}
	.st9{fill:#DCEAFD;}
	.st10{fill:#F8F8F8;}
	.st11{fill:#E3FFF7;}
	.st12{fill:#CAFFF0;}
	.st13{fill:#B1FFE9;}
	.st14{fill:#98FFE2;}
	.st15{fill:#7FFFDC;}
	.st16{fill:#66FED5;}
	.st17{fill:#4DFECE;}
	.st18{fill:#34FEC7;}
	.st19{fill:#1BFEC0;}
	.st20{fill:#E2E1EA;}
	.st21{fill:#C8C7D8;}
	.st22{fill:#AFACC6;}
	.st23{fill:#9592B4;}
	.st24{fill:#7B78A2;}
	.st25{fill:#615D8F;}
	.st26{fill:#48437D;}
	.st27{fill:#2E286B;}
	.st28{fill:#140E59;}
	.st29{fill:#E7E5FB;}
	.st30{fill:#D2CEF8;}
	.st31{fill:#BDB7F4;}
	.st32{fill:#A7A0F1;}
	.st33{fill:#928AEE;}
	.st34{fill:#7D73EA;}
	.st35{fill:#685CE7;}
	.st36{fill:#3D2EE0;}
	.st37{fill:#CCCCCC;}
	.st38{fill:#FF3EFF;}
	.st39{fill:#FFFFFF;stroke:#000000;stroke-miterlimit:10;}
	.st40{fill:url(#SVGID_00000126316990331578611040000007797080527697796489_);}
	.st41{fill:url(#SVGID_00000097496459028726706710000015979167009929804444_);}
	.st42{fill:url(#SVGID_00000067222210759926338360000017613691586305039774_);}
	.st43{fill:#1AE8B7;}
	.st44{fill:#1AD2AD;}
	.st45{fill:#19BDA4;}
	.st46{fill:#18A79B;}
	.st47{fill:#189191;}
	.st48{fill:#177B88;}
	.st49{fill:#17657E;}
	.st50{fill:#164F75;}
	.st51{fill:#153A6C;}
	.st52{fill:#152462;}
	.st53{fill:#EA3AF0;}
	.st54{fill:#D435E1;}
	.st55{fill:#BF31D2;}
	.st56{fill:#AA2DC3;}
	.st57{fill:#9428B4;}
	.st58{fill:#7F24A4;}
	.st59{fill:#691F95;}
	.st60{fill:#541B86;}
	.st61{fill:#3F1777;}
	.st62{fill:#291268;}
	.st63{fill:#4C40D6;}
	.st64{fill:#473BCA;}
	.st65{fill:#4136BD;}
	.st66{fill:#3B31B1;}
	.st67{fill:#362CA4;}
	.st68{fill:#302798;}
	.st69{fill:#2B228B;}
	.st70{fill:#251D7F;}
	.st71{fill:#1F1872;}
	.st72{fill:#1A1366;}
	.st73{fill:#17D5A8;}
	.st74{fill:url(#SVGID_00000100347801326271007200000014486457787744690868_);}
	.st75{fill:url(#SVGID_00000092458382249157429140000003282576969088345004_);}
	.st76{fill:url(#SVGID_00000039093913741981652670000005127811226679133602_);}
	.st77{fill:#FFFFFF;stroke:#3D2EE0;stroke-width:12;stroke-miterlimit:10;}
	.st78{fill:url(#SVGID_00000171710140372528248930000008658706165769764773_);}
	.st79{fill:url(#SVGID_00000045615627557784051320000001049942898786567864_);}
	.st80{fill:url(#SVGID_00000024691880071322865830000002879588469159898043_);}
	.st81{fill:url(#SVGID_00000035529952752358307680000004664445980707777183_);}
	.st82{fill:url(#SVGID_00000028323310292223672460000000388387182711434636_);}
	.st83{fill-rule:evenodd;clip-rule:evenodd;fill:url(#SVGID_00000176756761548622383750000001695584215609763715_);}
	.st84{fill-rule:evenodd;clip-rule:evenodd;fill:url(#SVGID_00000125603438450835995730000002756238404244451225_);}
	.st85{fill:#FFFFFF;stroke:#3D2EE0;stroke-width:8;stroke-miterlimit:10;}
	.st86{fill:url(#SVGID_00000047773132158737642270000006458031388455493528_);}
	.st87{fill:url(#SVGID_00000072254146717521964740000007252314629048491943_);}
	.st88{fill:url(#SVGID_00000101788088962553077280000016234911491617226934_);}
	.st89{fill:url(#SVGID_00000158007828274564938900000004550714263628071844_);}
	.st90{fill:url(#SVGID_00000042734184908295327390000002088248290815110841_);}
	.st91{fill:url(#SVGID_00000114059320840844187280000006687098253092656563_);}
	.st92{fill:url(#SVGID_00000019646430854069666390000016148573984190386869_);}
	.st93{fill:url(#SVGID_00000109748401571921224860000005343860176289798831_);}
	.st94{fill:url(#SVGID_00000134208932111545959570000000038744398018521771_);}
	.st95{fill:url(#SVGID_00000048476251627782216460000001045392293557000591_);}
	.st96{fill:url(#SVGID_00000145754198914248996660000000435824786514897581_);}
	.st97{fill-rule:evenodd;clip-rule:evenodd;fill:url(#SVGID_00000017518966182232784190000007458242252468580028_);}
	.st98{fill:url(#SVGID_00000083776559233190826310000013368974680772898950_);}
	.st99{fill:url(#SVGID_00000018934506943942538300000001649762215961919151_);}
	.st100{fill:url(#SVGID_00000099648706606629051490000007810426812978582704_);}
	.st101{fill:url(#SVGID_00000149348309289453996390000002071111794367023018_);}
	.st102{fill:url(#SVGID_00000033362791469801088680000007742651405961530523_);}
	.st103{fill:url(#SVGID_00000037678943041951679760000015756970323750195892_);}
	.st104{fill:url(#SVGID_00000157273127840058752100000011909619047931814841_);}
	.st105{fill:url(#SVGID_00000018927639492318436480000005343367749273154990_);}
	.st106{fill-rule:evenodd;clip-rule:evenodd;fill:url(#SVGID_00000118385759086220403130000003841109293275847064_);}
	.st107{fill:url(#SVGID_00000005962156172004442920000013631834431739866257_);}
	.st108{fill:url(#SVGID_00000013894670523755297300000012522217190522640033_);}
	.st109{fill-rule:evenodd;clip-rule:evenodd;fill:#FFFFFF;stroke:#6D6D6D;stroke-width:11;stroke-miterlimit:10;}
	.st110{fill-rule:evenodd;clip-rule:evenodd;fill:#FFFFFF;stroke:#3D2EE0;stroke-width:11;stroke-miterlimit:10;}
</style>
<g>
	<g>
		<circle class="st0" cx="173.7" cy="123.59" r="72.27"/>
		<g id="tubiao_00000003070279559758900550000003723934413495496357_">
			<path id="Fill-15_00000137104363856617856010000007076600888373497769_" class="st1" d="M184.67,112.13l1.88,14.27
				c1.89,0.88,3.65,2.06,5.19,3.54l0,0l6.01,5.77c0.02,0.02,0.04,0.05,0.07,0.07l0,0l-3.8-28.82L184.67,112.13z"/>
			<path id="Fill-17_00000040557250826339468210000004770361389221063085_" class="st1" d="M187.63,80.21
				c-0.85-0.11-1.78,0.43-1.2,0.59c2.36,0.66,4.49,2.27,5.79,4.63c2.51,4.55,1.02,10.18-3.33,12.61l-22.63,12.49
				c3.57,0.31,7.07,1.84,9.87,4.51l1.2,1.14c0,0,0.01,0.01,0.01,0.01l7.34-4.05l9.16-5.05l0.02,0.03c6.45-3.86,8.61-12.4,4.8-19.31
				C196.25,83.46,192.07,80.78,187.63,80.21"/>
			<path id="Fill-19_00000055688784285974238390000015682891666687882112_" class="st1" d="M156.02,137.9l20.15,16.76
				c3.08,2.57,7.27,3.02,10.66,1.15l0,0l7.74-4.27c2.35-1.3,3.93-3.71,4.22-6.46l0,0c0.29-2.75-0.74-5.54-2.75-7.47l0,0l-6.01-5.77
				l0,0c-5.02-4.82-12.34-5.88-18.21-2.65l0,0L156.02,137.9z M173.87,139.81l2.93-1.62c2.1-1.16,4.72-0.78,6.52,0.95l0,0l3.59,3.45
				c0.45,0.44,0.38,1.19-0.16,1.48l0,0l-4.67,2.58L173.87,139.81z"/>
			<path id="Fill-21_00000170996719667445815290000015376248667205146256_" class="st1" d="M163.71,123.7
				c1.3-0.72,2.92-0.48,4.04,0.58l0,0l1.19,1.14c0.84,0.8,1.25,1.91,1.13,3.04l0,0c-0.12,1.14-0.74,2.1-1.72,2.63l0,0l-2.99,1.65
				l-5.5-4.57l-9.35,5.16l14.02,11.64l8.81-4.86l0,0c3.78-2.09,6.21-5.82,6.67-10.24l0,0c0.46-4.42-1.15-8.73-4.4-11.82l0,0
				l-1.2-1.14c-1.33-1.26-2.84-1.12-4.31-0.31l0,0C166.78,118.44,163.71,123.7,163.71,123.7"/>
			<path id="Fill-23_00000181797021723944648870000009565991168864153009_" class="st1" d="M130.33,111.39
				c-0.26,0.15-0.58,0.47-0.76,0.85l0,0c-1.89,4.06-1.85,9.03,0.55,13.36l0,0c3.81,6.91,12.18,9.63,18.89,6.24l0,0l-0.02-0.03
				l9.16-5.06l5.55-3.06c1.3-0.72,2.92-0.48,4.04,0.58l0,0l1.19,1.14c0.71,0.67,1.09,1.58,1.13,2.53l0,0l9.73-2.2
				c-0.55-2.89-1.97-5.58-4.19-7.69l0,0l-1.2-1.14c-4.33-4.12-10.64-5.03-15.68-2.24l0,0l-0.62,0.34l-14.09,7.78l-0.03,0.02
				c-4.37,2.39-9.94,0.65-12.45-3.9l0,0c-1.3-2.36-1.53-5.02-0.83-7.37l0,0c0.08-0.27-0.09-0.3-0.33-0.18l0,0L130.33,111.39z"/>
		</g>
	</g>
	<g>
		<path class="st0" d="M106.58,261.71c0-5.84,0-11.52,0-17.2c0-11.29,0.05-22.58-0.05-33.87c-0.02-1.83,0.61-2.72,2.21-3.44
			c10.31-4.66,20.82-5.7,31.67-2.13c14.8,4.86,29.61,9.68,44.4,14.54c5.72,1.88,8.45,6.98,6.69,12.34c-1.68,5.11-6.99,7.6-12.62,5.8
			c-10.4-3.32-20.77-6.75-31.19-10.02c-1.37-0.43-3.32-0.73-4.36-0.07c-1.29,0.82-2.39,2.59-2.72,4.13
			c-0.45,2.1,0.92,3.82,2.96,4.49c11.35,3.69,22.6,7.75,34.13,10.76c8.42,2.2,16.71,0.33,24.01-4.67
			c7.91-5.41,15.7-10.99,23.56-16.48c5.07-3.54,10.6-2.84,13.92,1.73c3.28,4.5,2.21,10.26-2.82,13.72
			c-10.26,7.07-20.21,14.71-31.02,20.83c-16.48,9.34-34.55,12.48-53.33,9.31c-11.59-1.96-23.03-4.81-34.53-7.28
			C113.96,263.44,110.42,262.59,106.58,261.71z"/>
		<path class="st0" d="M97.14,212.89c0,1.15,0,2.06,0,2.98c0,15.86,0,31.71,0,47.57c0,5.18-1.41,6.55-6.69,6.56
			c-2.46,0-4.92,0.04-7.38-0.01c-3.11-0.07-5.01-1.79-5.02-4.86c-0.05-15.86-0.05-31.71,0-47.57c0.01-2.49,1.67-4.55,3.87-4.62
			C86.91,212.78,91.89,212.89,97.14,212.89z"/>
	</g>
</g>
</svg>
