<svg width="22" height="22" viewBox="0 0 22 22" fill="none" xmlns="http://www.w3.org/2000/svg">
<path d="M5.14589 3.5801V2.50547C5.13365 2.36621 5.15217 2.22597 5.2002 2.09442C5.24823 1.96288 5.32463 1.84313 5.42414 1.7434C5.52364 1.64367 5.6439 1.56633 5.77665 1.51669C5.9094 1.46705 6.05148 1.44627 6.19316 1.45581C6.33726 1.44547 6.48194 1.46591 6.61728 1.51572C6.75262 1.56553 6.87542 1.64352 6.97729 1.74439C7.07915 1.84526 7.15768 1.96661 7.20748 2.10013C7.25728 2.23364 7.27718 2.37617 7.26582 2.51796V3.56761H14.7617C14.7617 3.25521 14.7617 2.94281 14.7617 2.64291C14.7528 2.46854 14.77 2.29383 14.8125 2.12434C14.8886 1.89473 15.0475 1.70051 15.2592 1.57847C15.4709 1.45642 15.7207 1.41501 15.9614 1.46206C16.1884 1.47199 16.404 1.56316 16.5676 1.71846C16.7312 1.87376 16.8316 2.08253 16.8499 2.30554C16.8499 2.61793 16.8499 2.93033 16.8499 3.24272V3.5801H17.1609C17.7957 3.5801 18.3796 3.5801 18.9889 3.5801C19.5197 3.58175 20.0283 3.79049 20.403 4.16057C20.7778 4.53066 20.9882 5.03189 20.9882 5.55444C20.9882 10.1904 20.9882 14.8243 20.9882 19.4561C20.9899 19.7174 20.9389 19.9765 20.838 20.2183C20.7372 20.4601 20.5886 20.6798 20.4008 20.8647C20.2131 21.0495 19.9899 21.1957 19.7443 21.295C19.4986 21.3943 19.2354 21.4445 18.9699 21.4429H3.02596C2.75991 21.4462 2.49583 21.3974 2.24914 21.2992C2.00244 21.2011 1.77806 21.0557 1.58903 20.8713C1.40001 20.687 1.25012 20.4675 1.14812 20.2256C1.04612 19.9837 0.99402 19.7242 0.994884 19.4623C0.994884 14.8347 0.994884 10.2029 0.994884 5.56695C0.994045 5.3058 1.04568 5.04706 1.14682 4.80563C1.24796 4.56421 1.3966 4.34485 1.58419 4.16019C1.77178 3.97553 1.99462 3.82921 2.23988 3.72966C2.48514 3.6301 2.74798 3.57927 3.01328 3.5801C3.70511 3.57385 4.39059 3.5801 5.14589 3.5801ZM18.7223 19.1999V8.40974H3.30524V19.1874L18.7223 19.1999Z" fill="white" stroke="#202326"/>
<path fill-rule="evenodd" clip-rule="evenodd" d="M6.00252 0.546661C5.24942 0.546661 4.63892 1.15717 4.63892 1.91027V5.54655C4.63892 6.29965 5.24942 6.91016 6.00252 6.91016C6.75562 6.91016 7.36613 6.29965 7.36613 5.54655V1.91027C7.36613 1.15717 6.75562 0.546661 6.00252 0.546661ZM16.0025 0.546661C15.2494 0.546661 14.6389 1.15717 14.6389 1.91027V5.54655C14.6389 6.29965 15.2494 6.91016 16.0025 6.91016C16.7556 6.91016 17.3661 6.29965 17.3661 5.54655V1.91027C17.3661 1.15717 16.7556 0.546661 16.0025 0.546661Z" fill="white"/>
<path d="M5.13892 1.91027C5.13892 1.43331 5.52557 1.04666 6.00252 1.04666V0.0466614C4.97328 0.0466614 4.13892 0.881026 4.13892 1.91027H5.13892ZM5.13892 5.54655V1.91027H4.13892V5.54655H5.13892ZM6.00252 6.41016C5.52557 6.41016 5.13892 6.02351 5.13892 5.54655H4.13892C4.13892 6.57579 4.97328 7.41016 6.00252 7.41016V6.41016ZM6.86613 5.54655C6.86613 6.02351 6.47948 6.41016 6.00252 6.41016V7.41016C7.03176 7.41016 7.86613 6.57579 7.86613 5.54655H6.86613ZM6.86613 1.91027V5.54655H7.86613V1.91027H6.86613ZM6.00252 1.04666C6.47948 1.04666 6.86613 1.43331 6.86613 1.91027H7.86613C7.86613 0.881026 7.03176 0.0466614 6.00252 0.0466614V1.04666ZM15.1389 1.91027C15.1389 1.43331 15.5256 1.04666 16.0025 1.04666V0.0466614C14.9733 0.0466614 14.1389 0.881026 14.1389 1.91027H15.1389ZM15.1389 5.54655V1.91027H14.1389V5.54655H15.1389ZM16.0025 6.41016C15.5256 6.41016 15.1389 6.02351 15.1389 5.54655H14.1389C14.1389 6.57579 14.9733 7.41016 16.0025 7.41016V6.41016ZM16.8661 5.54655C16.8661 6.02351 16.4795 6.41016 16.0025 6.41016V7.41016C17.0318 7.41016 17.8661 6.57579 17.8661 5.54655H16.8661ZM16.8661 1.91027V5.54655H17.8661V1.91027H16.8661ZM16.0025 1.04666C16.4795 1.04666 16.8661 1.43331 16.8661 1.91027H17.8661C17.8661 0.881026 17.0318 0.0466614 16.0025 0.0466614V1.04666Z" fill="#202326"/>
<path d="M8.27093 16.2481C8.35622 15.7748 8.46119 15.2356 8.54647 14.6905C8.55393 14.638 8.54901 14.5846 8.53204 14.534C8.51507 14.4833 8.48642 14.4366 8.44805 14.3969C8.07412 14.0435 7.68706 13.702 7.3 13.3606C7.17777 13.2778 7.08639 13.1627 7.03828 13.0309C6.99016 12.899 6.98765 12.7569 7.03105 12.6237C7.08346 12.4883 7.18014 12.3709 7.30803 12.2873C7.43592 12.2037 7.58886 12.158 7.74612 12.1564C8.26438 12.0905 8.78921 12.0306 9.30747 11.9467C9.36544 11.936 9.42038 11.9145 9.46889 11.8836C9.51741 11.8527 9.55847 11.813 9.58956 11.767C9.83885 11.3417 10.0684 10.9044 10.2981 10.4731C10.3466 10.3384 10.4394 10.2207 10.5638 10.136C10.6883 10.0513 10.8383 10.0038 10.9934 9.99979C11.1494 10.0003 11.3012 10.0458 11.4272 10.1297C11.5533 10.2136 11.6471 10.3316 11.6954 10.4671C11.9316 10.8984 12.1546 11.3357 12.4105 11.755C12.4428 11.8043 12.4856 11.8471 12.5363 11.8811C12.587 11.915 12.6446 11.9394 12.7057 11.9527C13.2305 12.0366 13.7553 12.0905 14.2736 12.1624C14.4307 12.1656 14.5828 12.2135 14.7086 12.2994C14.8344 12.3853 14.9278 12.505 14.9755 12.6417C15.0132 12.7715 15.0077 12.9085 14.9598 13.0355C14.9119 13.1624 14.8238 13.2735 14.7066 13.3546C14.3195 13.69 13.9325 14.0315 13.5651 14.3909C13.5244 14.4344 13.4935 14.4849 13.4744 14.5395C13.4552 14.594 13.4481 14.6514 13.4536 14.7085C13.5323 15.1937 13.6241 15.6729 13.716 16.1582C13.7559 16.2868 13.7529 16.4233 13.7074 16.5503C13.6618 16.6773 13.5757 16.789 13.4601 16.8711C13.3349 16.9504 13.1861 16.993 13.0337 16.993C12.8813 16.993 12.7325 16.9504 12.6073 16.8711C12.1678 16.6554 11.7151 16.4517 11.2952 16.2301C11.2135 16.1806 11.1177 16.1542 11.0197 16.1542C10.9217 16.1542 10.8258 16.1806 10.7442 16.2301C10.2915 16.4637 9.83229 16.6794 9.36651 16.8891C9.25181 16.9598 9.11694 16.9982 8.97857 16.9997C8.8402 17.0013 8.70439 16.9657 8.58787 16.8975C8.47136 16.8294 8.37925 16.7315 8.32292 16.6161C8.2666 16.5007 8.24853 16.3728 8.27093 16.2481Z" fill="white" stroke="#202326"/>
</svg>
