<svg width="22" height="25" viewBox="0 0 22 25" fill="none" xmlns="http://www.w3.org/2000/svg">
<path d="M4.55938 4.83703V3.65491C4.54592 3.50172 4.5663 3.34746 4.61913 3.20275C4.67197 3.05805 4.75601 2.92632 4.86546 2.81661C4.97492 2.70691 5.10721 2.62184 5.25323 2.56723C5.39926 2.51262 5.55556 2.48977 5.7114 2.50026C5.86992 2.48888 6.02907 2.51137 6.17795 2.56616C6.32682 2.62095 6.46191 2.70675 6.57396 2.81771C6.68602 2.92866 6.7724 3.06215 6.82718 3.20902C6.88196 3.35589 6.90385 3.51268 6.89136 3.66865V4.82329H15.1371C15.1371 4.47964 15.1371 4.13599 15.1371 3.8061C15.1273 3.61428 15.1461 3.4221 15.1929 3.23566C15.2766 2.98308 15.4514 2.76944 15.6842 2.63519C15.9171 2.50093 16.1919 2.45538 16.4567 2.50714C16.7064 2.51806 16.9436 2.61834 17.1236 2.78918C17.3035 2.96002 17.414 3.18966 17.4341 3.43498C17.4341 3.77862 17.4341 4.12226 17.4341 4.46591V4.83703H17.7762C18.4744 4.83703 19.1168 4.83703 19.787 4.83703C20.371 4.83884 20.9304 5.06847 21.3426 5.47557C21.7549 5.88267 21.9864 6.43404 21.9864 7.00885C21.9864 12.1085 21.9864 17.2059 21.9864 22.301C21.9882 22.5885 21.9321 22.8735 21.8211 23.1395C21.7102 23.4055 21.5467 23.6472 21.3402 23.8505C21.1337 24.0538 20.8882 24.2147 20.6179 24.3239C20.3477 24.433 20.0582 24.4884 19.7661 24.4865H2.22741C1.93475 24.4902 1.64426 24.4365 1.37288 24.3285C1.10151 24.2206 0.854689 24.0606 0.646755 23.8578C0.43882 23.655 0.273943 23.4136 0.161737 23.1474C0.0495321 22.8813 -0.00777402 22.596 -0.00682432 22.3078C-0.00682432 17.2174 -0.00682432 12.1223 -0.00682432 7.02261C-0.00774638 6.73534 0.0490577 6.45072 0.16031 6.18515C0.271562 5.91957 0.435073 5.67828 0.641428 5.47515C0.847782 5.27202 1.09291 5.11106 1.3627 5.00155C1.63249 4.89203 1.92163 4.83612 2.21346 4.83703C2.97449 4.83015 3.72853 4.83703 4.55938 4.83703ZM19.4938 22.0192V10.1497H2.53462V22.0054L19.4938 22.0192Z" fill="#3D2EE0"/>
<path d="M7.58445 19.2134C7.69106 18.5749 7.82227 17.8474 7.92888 17.1119C7.9382 17.0411 7.93205 16.9691 7.91084 16.9008C7.88962 16.8324 7.85381 16.7694 7.80585 16.7159C7.33843 16.239 6.85461 15.7783 6.37079 15.3176C6.21801 15.2059 6.10378 15.0506 6.04363 14.8727C5.98348 14.6949 5.98035 14.5031 6.0346 14.3234C6.10011 14.1407 6.22096 13.9823 6.38083 13.8695C6.54069 13.7568 6.73186 13.6951 6.92843 13.693C7.57626 13.604 8.2323 13.5232 8.88012 13.4101C8.95259 13.3955 9.02126 13.3665 9.0819 13.3248C9.14255 13.2831 9.19388 13.2296 9.23273 13.1676C9.54435 12.5937 9.83135 12.0037 10.1184 11.4217C10.179 11.2401 10.295 11.0813 10.4506 10.967C10.6062 10.8528 10.7937 10.7886 10.9876 10.7832C11.1825 10.784 11.3723 10.8453 11.5298 10.9585C11.6874 11.0717 11.8047 11.2309 11.865 11.4136C12.1603 11.9956 12.4391 12.5856 12.7589 13.1514C12.7993 13.2178 12.8527 13.2757 12.9161 13.3215C12.9795 13.3673 13.0515 13.4001 13.1279 13.4181C13.7839 13.5313 14.4399 13.6041 15.0878 13.701C15.2841 13.7053 15.4742 13.77 15.6315 13.8859C15.7888 14.0018 15.9055 14.1632 15.9652 14.3476C16.0123 14.5228 16.0054 14.7077 15.9455 14.879C15.8857 15.0502 15.7755 15.2001 15.629 15.3095C15.1452 15.7621 14.6614 16.2228 14.2021 16.7078C14.1512 16.7665 14.1127 16.8346 14.0888 16.9082C14.0648 16.9817 14.056 17.0592 14.0627 17.1362C14.1611 17.7909 14.2759 18.4375 14.3907 19.0921C14.4407 19.2656 14.437 19.4499 14.38 19.6212C14.323 19.7926 14.2154 19.9433 14.0709 20.054C13.9144 20.1611 13.7284 20.2185 13.5379 20.2185C13.3474 20.2185 13.1614 20.1611 13.0049 20.054C12.4555 19.763 11.8897 19.4882 11.3648 19.1891C11.2627 19.1224 11.1429 19.0868 11.0204 19.0868C10.8979 19.0868 10.7781 19.1224 10.676 19.1891C10.1102 19.5044 9.53615 19.7954 8.95392 20.0783C8.81056 20.1736 8.64197 20.2255 8.469 20.2276C8.29604 20.2296 8.12628 20.1817 7.98063 20.0897C7.83499 19.9977 7.71985 19.8657 7.64944 19.71C7.57904 19.5543 7.55645 19.3817 7.58445 19.2134Z" fill="#3F3F46"/>
<path d="M8.72199 17.905C8.79306 17.4919 8.88054 17.0212 8.95161 16.5452C8.95782 16.4994 8.95372 16.4528 8.93958 16.4086C8.92544 16.3644 8.90156 16.3236 8.86959 16.289C8.55798 15.9804 8.23543 15.6823 7.91288 15.3842C7.81103 15.3119 7.73488 15.2115 7.69478 15.0964C7.65468 14.9813 7.65259 14.8572 7.68876 14.7409C7.73243 14.6227 7.813 14.5202 7.91957 14.4472C8.02615 14.3743 8.1536 14.3344 8.28465 14.333C8.71653 14.2754 9.15389 14.2231 9.58577 14.1499C9.63408 14.1405 9.67986 14.1218 9.72029 14.0948C9.76072 14.0678 9.79494 14.0332 9.82085 13.993C10.0286 13.6217 10.2199 13.2399 10.4113 12.8634C10.4517 12.7458 10.5291 12.6431 10.6328 12.5691C10.7365 12.4952 10.8615 12.4537 10.9908 12.4502C11.1207 12.4507 11.2472 12.4904 11.3522 12.5636C11.4573 12.6369 11.5355 12.7399 11.5757 12.8581C11.7725 13.2347 11.9584 13.6165 12.1716 13.9826C12.1985 14.0255 12.2342 14.063 12.2764 14.0926C12.3187 14.1222 12.3667 14.1435 12.4176 14.1552C12.855 14.2284 13.2923 14.2755 13.7242 14.3382C13.8551 14.341 13.9818 14.3828 14.0867 14.4578C14.1916 14.5328 14.2694 14.6373 14.3092 14.7566C14.3405 14.8699 14.336 14.9896 14.2961 15.1004C14.2561 15.2112 14.1827 15.3082 14.085 15.379C13.7625 15.6718 13.4399 15.9699 13.1338 16.2837C13.0998 16.3217 13.0742 16.3658 13.0582 16.4134C13.0422 16.461 13.0363 16.5111 13.0408 16.5609C13.1064 16.9846 13.183 17.4029 13.2595 17.8266C13.2928 17.9388 13.2903 18.058 13.2523 18.1689C13.2144 18.2798 13.1426 18.3773 13.0463 18.4489C12.942 18.5182 12.818 18.5554 12.691 18.5554C12.564 18.5554 12.44 18.5182 12.3356 18.4489C11.9693 18.2607 11.5921 18.0828 11.2422 17.8893C11.1742 17.8461 11.0943 17.8231 11.0126 17.8231C10.931 17.8231 10.8511 17.8461 10.783 17.8893C10.4058 18.0933 10.0231 18.2816 9.63497 18.4646C9.53939 18.5264 9.427 18.5599 9.31169 18.5613C9.19638 18.5626 9.08321 18.5316 8.98611 18.472C8.88902 18.4125 8.81225 18.3271 8.76532 18.2264C8.71838 18.1256 8.70332 18.0139 8.72199 17.905Z" fill="#3F3F46"/>
<rect x="4" y="1" width="3" height="7" rx="1.5" fill="#3F3F46" stroke="white" stroke-width="0.9"/>
<rect x="15" y="1" width="3" height="7" rx="1.5" fill="#3F3F46" stroke="white" stroke-width="0.9"/>
</svg>
