<svg width="36" height="37" viewBox="0 0 36 37" fill="none" xmlns="http://www.w3.org/2000/svg">
<g clip-path="url(#clip0_3107_820)">
<path d="M12.8691 28.499L23.3093 18.0588L21.4075 16.197L30.3162 14.7256L28.8547 23.5642L27.0129 21.7324L26.7327 21.9827C25.1244 23.5776 23.5029 25.1958 21.8679 26.8374C21.7322 26.9687 21.5622 27.0589 21.3774 27.0977C18.6648 27.5581 15.9522 27.9985 13.2395 28.449L12.8691 28.499Z" fill="#3D2EE0"/>
<path d="M7.14307 13.4148L8.97486 15.2566L9.24512 15.0064C10.8667 13.3848 12.4916 11.7665 14.1199 10.1516C14.2556 10.0203 14.4256 9.93012 14.6104 9.89136C17.323 9.43091 20.0357 8.99048 22.7583 8.54004H23.0986L12.6685 18.9302L14.5403 20.792L5.68164 22.2634L7.14307 13.4148Z" fill="#3F3F46"/>
</g>
<defs>
<clipPath id="clip0_3107_820">
<rect width="24.6341" height="19.9995" fill="white" transform="translate(5.68262 8.5)"/>
</clipPath>
</defs>
</svg>
