<svg width="24" height="24" viewBox="0 0 24 24" fill="none" xmlns="http://www.w3.org/2000/svg">
<path d="M20 16.3077V18.7692C20 19.0957 19.8703 19.4087 19.6395 19.6395C19.4087 19.8703 19.0957 20 18.7692 20H16.3077M16.3077 4H18.7692C19.0957 4 19.4087 4.12967 19.6395 4.36048C19.8703 4.5913 20 4.90435 20 5.23077V7.69231M4 7.69231V5.23077C4 4.90435 4.12967 4.5913 4.36048 4.36048C4.5913 4.12967 4.90435 4 5.23077 4H7.69231M7.69231 20H5.23077C4.90435 20 4.5913 19.8703 4.36048 19.6395C4.12967 19.4087 4 19.0957 4 18.7692V16.3077" stroke="#6D6D6D" stroke-width="1.8" stroke-linecap="round" stroke-linejoin="round"/>
<path d="M12 12C13.6569 12 15 10.6569 15 9C15 7.34315 13.6569 6 12 6C10.3431 6 9 7.34315 9 9C9 10.6569 10.3431 12 12 12Z" stroke="#6D6D6D" stroke-width="1.8" stroke-linecap="round" stroke-linejoin="round"/>
<path d="M17 17C16.55 16.4014 15.8416 15.8958 14.9566 15.5418C14.0717 15.1879 13.0466 15 12 15C10.9534 15 9.9283 15.1879 9.04338 15.5418C8.15845 15.8958 7.44996 16.4014 7 17" stroke="#6D6D6D" stroke-width="1.8" stroke-linecap="round" stroke-linejoin="round"/>
</svg>
