<svg width="16" height="16" viewBox="0 0 16 16" fill="none" xmlns="http://www.w3.org/2000/svg">
<g clip-path="url(#clip0_3083_1055)">
<path d="M6.66937 1.52246H4.58137C3.7701 1.52246 2.99205 1.84474 2.4184 2.4184C1.84474 2.99205 1.52246 3.7701 1.52246 4.58137V6.66937" stroke="#202326" stroke-width="0.8" stroke-linejoin="round"/>
<path d="M14.447 6.67913V4.59114C14.447 3.78167 14.1262 3.0052 13.5548 2.43184C12.9834 1.85849 12.208 1.53499 11.3985 1.53223H9.31055" stroke="#202326" stroke-width="0.8" stroke-linejoin="round"/>
<path d="M1.52246 9.33105V11.419C1.52246 12.2276 1.84364 13.0029 2.41534 13.5746C2.98704 14.1463 3.76243 14.4675 4.57093 14.4675H6.65893" stroke="#202326" stroke-width="0.8" stroke-linejoin="round"/>
<path d="M9.33105 14.4783H11.419C12.2239 14.4727 12.994 14.1491 13.5612 13.578C14.1283 13.0069 14.4467 12.2347 14.4466 11.4298V9.3418" stroke="#202326" stroke-width="0.8" stroke-linejoin="round"/>
<path d="M9.78396 5.32503C9.78396 6.28455 9.00635 7.06216 8.04682 7.06216C7.0873 7.06216 6.30969 6.28455 6.30969 5.32503C6.30969 4.3655 7.0873 3.58789 8.04682 3.58789C9.00635 3.58789 9.78396 4.3655 9.78396 5.32503ZM8.04682 8.90109C8.53604 8.90109 9.00241 8.80016 9.42604 8.62145H9.61282C10.6335 8.62145 11.4618 9.44974 11.4618 10.4704V11.1975C11.4618 11.3845 11.3099 11.5364 11.1229 11.5364H4.97076C4.78375 11.5364 4.63184 11.3845 4.63184 11.1975V10.4704C4.63184 9.44974 5.46013 8.62145 6.48083 8.62145H6.66795C7.09215 8.79991 7.55699 8.90109 8.04682 8.90109Z" stroke="#202326"/>
</g>
<defs>
<clipPath id="clip0_3083_1055">
<rect width="14" height="14" fill="white" transform="translate(1 1)"/>
</clipPath>
</defs>
</svg>
