<?xml version="1.0" encoding="utf-8"?>
<!-- Generator: Adobe Illustrator 27.5.0, SVG Export Plug-In . SVG Version: 6.00 Build 0)  -->
<svg version="1.1" id="Layer_1" xmlns="http://www.w3.org/2000/svg" xmlns:xlink="http://www.w3.org/1999/xlink" x="0px" y="0px"
	 viewBox="0 0 324 324" style="enable-background:new 0 0 324 324;" xml:space="preserve">
<style type="text/css">
	.st0{fill:#6D6D6D;}
	.st1{fill-rule:evenodd;clip-rule:evenodd;fill:#FFFFFF;}
	.st2{fill-rule:evenodd;clip-rule:evenodd;fill:#6D6D6D;}
	.st3{fill:#5245E3;}
	.st4{fill-rule:evenodd;clip-rule:evenodd;fill:url(#SVGID_1_);}
	.st5{fill-rule:evenodd;clip-rule:evenodd;fill:#3D2EE0;}
	.st6{fill-rule:evenodd;clip-rule:evenodd;fill:url(#SVGID_00000149376694191307488110000000687546497890652085_);}
	.st7{fill:#FFFFFF;}
	
		.st8{fill-rule:evenodd;clip-rule:evenodd;fill:none;stroke:#FFFFFF;stroke-width:8;stroke-linecap:round;stroke-linejoin:round;stroke-miterlimit:10;}
	.st9{fill:#DCEAFD;}
	.st10{fill:#F8F8F8;}
	.st11{fill:#E3FFF7;}
	.st12{fill:#CAFFF0;}
	.st13{fill:#B1FFE9;}
	.st14{fill:#98FFE2;}
	.st15{fill:#7FFFDC;}
	.st16{fill:#66FED5;}
	.st17{fill:#4DFECE;}
	.st18{fill:#34FEC7;}
	.st19{fill:#1BFEC0;}
	.st20{fill:#E2E1EA;}
	.st21{fill:#C8C7D8;}
	.st22{fill:#AFACC6;}
	.st23{fill:#9592B4;}
	.st24{fill:#7B78A2;}
	.st25{fill:#615D8F;}
	.st26{fill:#48437D;}
	.st27{fill:#2E286B;}
	.st28{fill:#140E59;}
	.st29{fill:#E7E5FB;}
	.st30{fill:#D2CEF8;}
	.st31{fill:#BDB7F4;}
	.st32{fill:#A7A0F1;}
	.st33{fill:#928AEE;}
	.st34{fill:#7D73EA;}
	.st35{fill:#685CE7;}
	.st36{fill:#3D2EE0;}
	.st37{fill:#CCCCCC;}
	.st38{fill:#FF3EFF;}
	.st39{fill:#FFFFFF;stroke:#000000;stroke-miterlimit:10;}
	.st40{fill:url(#SVGID_00000009557313274710344790000008733524218178463917_);}
	.st41{fill:url(#SVGID_00000151507247007666238350000016476748902811158400_);}
	.st42{fill:url(#SVGID_00000120551273044717782680000017817035298497505188_);}
	.st43{fill:#1AE8B7;}
	.st44{fill:#1AD2AD;}
	.st45{fill:#19BDA4;}
	.st46{fill:#18A79B;}
	.st47{fill:#189191;}
	.st48{fill:#177B88;}
	.st49{fill:#17657E;}
	.st50{fill:#164F75;}
	.st51{fill:#153A6C;}
	.st52{fill:#152462;}
	.st53{fill:#EA3AF0;}
	.st54{fill:#D435E1;}
	.st55{fill:#BF31D2;}
	.st56{fill:#AA2DC3;}
	.st57{fill:#9428B4;}
	.st58{fill:#7F24A4;}
	.st59{fill:#691F95;}
	.st60{fill:#541B86;}
	.st61{fill:#3F1777;}
	.st62{fill:#291268;}
	.st63{fill:#4C40D6;}
	.st64{fill:#473BCA;}
	.st65{fill:#4136BD;}
	.st66{fill:#3B31B1;}
	.st67{fill:#362CA4;}
	.st68{fill:#302798;}
	.st69{fill:#2B228B;}
	.st70{fill:#251D7F;}
	.st71{fill:#1F1872;}
	.st72{fill:#1A1366;}
	.st73{fill:#17D5A8;}
	.st74{fill:url(#SVGID_00000154399640389877785530000018206889304835790782_);}
	.st75{fill:url(#SVGID_00000170268817181702800500000014047645912065298834_);}
	.st76{fill:url(#SVGID_00000172440764569419724280000016485575355930546362_);}
	.st77{fill:#FFFFFF;stroke:#3D2EE0;stroke-width:12;stroke-miterlimit:10;}
	.st78{fill:url(#SVGID_00000067924242004488129030000012991810742376491910_);}
	.st79{fill:url(#SVGID_00000049932156144936878250000008040274851885499291_);}
	.st80{fill:url(#SVGID_00000019662678643507663700000007485948919257356432_);}
	.st81{fill:url(#SVGID_00000045586059143981145840000011870857788078977213_);}
	.st82{fill:url(#SVGID_00000031186408194538854000000003036940995578491291_);}
	.st83{fill-rule:evenodd;clip-rule:evenodd;fill:url(#SVGID_00000122679048479843071810000003497813634150600856_);}
	.st84{fill-rule:evenodd;clip-rule:evenodd;fill:url(#SVGID_00000181792459079188241910000008556235486414984088_);}
	.st85{fill:#FFFFFF;stroke:#3D2EE0;stroke-width:8;stroke-miterlimit:10;}
	.st86{fill:url(#SVGID_00000044155750812454362900000013430727532607268788_);}
	.st87{fill:url(#SVGID_00000041260284293884042720000012894899865128606865_);}
	.st88{fill:url(#SVGID_00000119809386133069748990000000015286841909306293_);}
	.st89{fill:url(#SVGID_00000030462198932901226080000004343185529735385786_);}
	.st90{fill:url(#SVGID_00000054261955422455708450000016682220769694273448_);}
	.st91{fill:url(#SVGID_00000183218020311916607790000016031843856113585330_);}
	.st92{fill:url(#SVGID_00000150785214841130531940000000774239361131922096_);}
	.st93{fill:url(#SVGID_00000087393295805562309590000008396706733885443512_);}
	.st94{fill:url(#SVGID_00000116920952300708472670000001309065339745274259_);}
	.st95{fill:url(#SVGID_00000081626717290385119380000014095022700466808727_);}
	.st96{fill:url(#SVGID_00000179631238144602869200000013703163255875777442_);}
	.st97{fill-rule:evenodd;clip-rule:evenodd;fill:url(#SVGID_00000173160511777985798070000016729604117068357284_);}
	.st98{fill:url(#SVGID_00000138544171087744471560000004580185576318300062_);}
	.st99{fill:url(#SVGID_00000021804413025879668860000010432143905777566594_);}
	.st100{fill:url(#SVGID_00000023282261981821922760000005107664006524469932_);}
	.st101{fill:url(#SVGID_00000013903571538792235520000008849882753544144550_);}
	.st102{fill:url(#SVGID_00000111872633037748809800000013374668231023725235_);}
	.st103{fill:url(#SVGID_00000001632570237779602840000006931509719524559790_);}
	.st104{fill:url(#SVGID_00000114770992653135387320000010197432801097024917_);}
	.st105{fill:url(#SVGID_00000037674404689066555640000012860077490239840912_);}
	.st106{fill-rule:evenodd;clip-rule:evenodd;fill:url(#SVGID_00000149346522871887937950000002492820024024142210_);}
	.st107{fill:url(#SVGID_00000168093119747268160390000017174882066462754967_);}
	.st108{fill:url(#SVGID_00000127004710511564875680000013191894205367338382_);}
	.st109{fill-rule:evenodd;clip-rule:evenodd;fill:#FFFFFF;stroke:#6D6D6D;stroke-width:11;stroke-miterlimit:10;}
	.st110{fill-rule:evenodd;clip-rule:evenodd;fill:#FFFFFF;stroke:#3D2EE0;stroke-width:11;stroke-miterlimit:10;}
</style>
<path class="st0" d="M265.59,158.18c-1.38-27.33-12.44-50.39-32.86-68.56c-15.47-13.77-33.69-21.72-54.15-23.63
	c-28.75-2.69-54.11,5.8-75.37,25.23c-16.07,14.69-26.13,33.35-29.9,55.47c-0.38,2.24-0.64,4.53-0.89,6.73
	c-0.11,1.02-0.23,2.04-0.36,3.06l-0.01,11.36l0.01,0.21c0.15,1.15,0.29,2.33,0.43,3.47c0.3,2.5,0.6,5.08,1.09,7.61
	c5.84,30.45,22.61,53.51,49.82,68.55c11.62,6.42,24.52,10.15,38.35,11.08c0.18,0.01,0.42,0.08,0.68,0.14
	c0.17,0.05,0.35,0.09,0.52,0.13l0.17,0.04h11.44l0.11-0.01c1.15-0.15,2.33-0.29,3.47-0.43c2.5-0.3,5.09-0.6,7.64-1.09
	c30.52-5.87,53.59-22.64,68.56-49.86C262.7,192.48,266.49,175.83,265.59,158.18z M102.83,196.8c-1.18-0.2-2.36-0.41-3.54-0.61
	c-3.69-0.63-7.51-1.29-11.22-1.99c-0.14-0.05-0.4-0.28-0.46-0.39c-3.39-8.7-5.29-17.44-5.78-26.66h25.26
	c0.4,10.89,1.85,21.12,4.4,31.14L102.83,196.8z M122.15,200.09c-0.11-0.03-0.31-0.17-0.4-0.27c-2.98-10.4-4.7-21.36-5.1-32.61H164
	v37.7c-0.7-0.02-1.39-0.04-2.07-0.06c-2.71-0.07-5.28-0.14-7.83-0.45c-10.35-1.26-20.85-2.75-31.01-4.18L122.15,200.09z
	 M97.47,205.55c1.78,0.31,3.56,0.62,5.34,0.94c3.64,0.64,7.41,1.31,11.14,1.9c0.54,0.09,0.58,0.12,0.76,0.66
	c3.98,12.25,10.46,23.3,19.24,32.84c-17.69-7.62-31.24-19.83-41.23-37.13C94.36,205.02,95.93,205.28,97.47,205.55z M129.21,211.06
	c4.84,0.72,9.85,1.46,14.78,1.99c4.94,0.53,9.99,0.88,14.87,1.21c1.7,0.12,3.41,0.23,5.12,0.36v34.49c-0.13-0.03-0.27-0.06-0.4-0.08
	c-1.62-0.34-3.14-0.66-4.61-1.13c-6.15-1.94-11.71-5.5-17.01-10.9c-6.79-6.91-12.25-15.6-16.64-26.5
	C126.62,210.67,127.92,210.87,129.21,211.06z M164.04,110.09c-12.51,0.28-25.25,1.61-38.8,4.07c0.18-0.4,0.36-0.8,0.54-1.2
	c1.22-2.74,2.37-5.33,3.67-7.82c5.56-10.71,12.17-18.55,20.22-23.97c4.36-2.94,9.03-4.85,13.86-5.68c0.17-0.03,0.34-0.05,0.52-0.08
	V110.09z M116.72,155.22c0.14-2.76,0.26-5.37,0.68-7.95c0.74-4.56,1.65-9.18,2.52-13.65c0.54-2.74,1.09-5.57,1.61-8.37
	c0.12-0.68,0.15-0.82,1.24-1.02c15.61-2.84,28.43-4.3,40.32-4.59c0.31-0.01,0.63-0.01,0.95-0.01v37.68h-47.43
	C116.65,156.61,116.68,155.91,116.72,155.22z M125.48,93.35c-4.64,6.91-8.18,14.14-10.53,21.48c-0.33,1.04-0.59,1.27-1.59,1.43
	c-5.32,0.84-10.72,1.79-15.93,2.71c-1.58,0.28-3.15,0.55-4.73,0.83c9.92-17.28,23.49-29.55,41.3-37.3
	C130.77,86.08,127.95,89.67,125.48,93.35z M87.7,130.5c0.02-0.04,0.08-0.11,0.13-0.16c7.84-1.4,15.82-2.76,23.53-4.08l0.11-0.02
	c-2.51,9.9-3.98,20.34-4.38,31.1H81.84c0.29-6.28,1.32-12.49,3.16-18.91c0.75-2.63,1.72-5.28,2.67-7.84L87.7,130.5z M173.76,110.1
	V75.44c2.65,0.32,5.34,1.11,8.33,2.43c8.19,3.64,14.99,9.69,21.4,19.06c3.45,5.04,6.41,10.69,9,17.2
	C198.77,111.68,186.06,110.36,173.76,110.1z M221.18,167.15c-0.04,0.72-0.08,1.43-0.11,2.13c-0.14,2.8-0.27,5.45-0.69,8.08
	c-0.73,4.56-1.64,9.18-2.51,13.65c-0.51,2.62-1.04,5.33-1.53,8c-0.16,0.89-0.3,1.1-1.43,1.3c-15.95,2.85-28.28,4.25-39.96,4.54
	c-0.36,0.01-0.73,0.01-1.11,0.01v-37.72H221.18z M215.69,124.44c0.11,0.05,0.29,0.19,0.36,0.29c2.96,10.28,4.68,21.27,5.11,32.68
	h-47.33v-37.8c0.68,0.02,1.36,0.04,2.03,0.06c2.67,0.07,5.19,0.13,7.71,0.44c10.7,1.31,21.57,2.84,32.08,4.33L215.69,124.44z
	 M230.7,157.35c-0.4-10.83-1.84-21.05-4.4-31.12c0.26,0.04,0.52,0.09,0.78,0.13c2.2,0.36,4.29,0.71,6.38,1.07l0.29,0.05
	c5.24,0.91,10.66,1.84,15.97,2.83c0.09,0.02,0.26,0.1,0.36,0.17c3.45,8.74,5.38,17.55,5.88,26.87H230.7z M244.94,119.74
	c-2.38-0.39-4.62-0.76-6.86-1.15c-1.58-0.27-3.15-0.55-4.73-0.83c-3.07-0.55-6.24-1.11-9.38-1.6c-0.73-0.11-0.75-0.19-0.92-0.71
	c-3.99-12.31-10.53-23.43-19.43-33.04c17.81,7.72,31.43,20.01,41.43,37.35C245.02,119.75,244.98,119.74,244.94,119.74z
	 M173.82,214.43c12.5-0.27,25.25-1.61,38.87-4.1c-0.42,0.86-0.83,1.73-1.24,2.57c-1.68,3.51-3.43,7.14-5.38,10.53
	c-5.75,9.99-12.6,17.1-20.94,21.73c-3.76,2.09-7.47,3.38-11.31,3.92V214.43z M208.21,236.7c6.5-8,11.43-17.12,14.66-27.13
	c0.3-0.94,0.54-1.14,1.5-1.29c5.18-0.83,10.43-1.75,15.51-2.64c1.73-0.3,3.47-0.61,5.2-0.91c-9.93,17.33-23.68,29.72-41.83,37.68
	C204.97,240.51,206.62,238.65,208.21,236.7z M249.91,194.17c-7.39,1.33-14.92,2.62-22.2,3.88l-1.39,0.24
	c2.54-10.14,4.01-20.6,4.37-31.15h25.37c-0.09,0.78-0.17,1.56-0.25,2.32c-0.31,3.02-0.61,5.87-1.23,8.67
	c-0.93,4.17-2.21,8.37-3.45,12.43c-0.35,1.15-0.7,2.29-1.04,3.44C250.05,194.05,249.97,194.13,249.91,194.17z"/>
</svg>
