<?xml version="1.0" encoding="utf-8"?>
<!-- Generator: Adobe Illustrator 27.5.0, SVG Export Plug-In . SVG Version: 6.00 Build 0)  -->
<svg version="1.1" id="Layer_1" xmlns="http://www.w3.org/2000/svg" xmlns:xlink="http://www.w3.org/1999/xlink" x="0px" y="0px"
	 viewBox="0 0 324 324" style="enable-background:new 0 0 324 324;" xml:space="preserve">
<style type="text/css">
	.st0{fill:#6D6D6D;}
	.st1{fill-rule:evenodd;clip-rule:evenodd;fill:#FFFFFF;}
	.st2{fill-rule:evenodd;clip-rule:evenodd;fill:#6D6D6D;}
	.st3{fill:#5245E3;}
	.st4{fill-rule:evenodd;clip-rule:evenodd;fill:url(#SVGID_1_);}
	.st5{fill-rule:evenodd;clip-rule:evenodd;fill:#3D2EE0;}
	.st6{fill-rule:evenodd;clip-rule:evenodd;fill:url(#SVGID_00000032631941259419743300000006298799367187606165_);}
	.st7{fill:#FFFFFF;}
	
		.st8{fill-rule:evenodd;clip-rule:evenodd;fill:none;stroke:#FFFFFF;stroke-width:8;stroke-linecap:round;stroke-linejoin:round;stroke-miterlimit:10;}
	.st9{fill:#DCEAFD;}
	.st10{fill:#F8F8F8;}
	.st11{fill:#E3FFF7;}
	.st12{fill:#CAFFF0;}
	.st13{fill:#B1FFE9;}
	.st14{fill:#98FFE2;}
	.st15{fill:#7FFFDC;}
	.st16{fill:#66FED5;}
	.st17{fill:#4DFECE;}
	.st18{fill:#34FEC7;}
	.st19{fill:#1BFEC0;}
	.st20{fill:#E2E1EA;}
	.st21{fill:#C8C7D8;}
	.st22{fill:#AFACC6;}
	.st23{fill:#9592B4;}
	.st24{fill:#7B78A2;}
	.st25{fill:#615D8F;}
	.st26{fill:#48437D;}
	.st27{fill:#2E286B;}
	.st28{fill:#140E59;}
	.st29{fill:#E7E5FB;}
	.st30{fill:#D2CEF8;}
	.st31{fill:#BDB7F4;}
	.st32{fill:#A7A0F1;}
	.st33{fill:#928AEE;}
	.st34{fill:#7D73EA;}
	.st35{fill:#685CE7;}
	.st36{fill:#3D2EE0;}
	.st37{fill:#CCCCCC;}
	.st38{fill:#FF3EFF;}
	.st39{fill:#FFFFFF;stroke:#000000;stroke-miterlimit:10;}
	.st40{fill:url(#SVGID_00000047740739054456015430000017862461903202817168_);}
	.st41{fill:url(#SVGID_00000085931669834720226940000003202014736305973911_);}
	.st42{fill:url(#SVGID_00000055668361992616022800000008439103387787500708_);}
	.st43{fill:#1AE8B7;}
	.st44{fill:#1AD2AD;}
	.st45{fill:#19BDA4;}
	.st46{fill:#18A79B;}
	.st47{fill:#189191;}
	.st48{fill:#177B88;}
	.st49{fill:#17657E;}
	.st50{fill:#164F75;}
	.st51{fill:#153A6C;}
	.st52{fill:#152462;}
	.st53{fill:#EA3AF0;}
	.st54{fill:#D435E1;}
	.st55{fill:#BF31D2;}
	.st56{fill:#AA2DC3;}
	.st57{fill:#9428B4;}
	.st58{fill:#7F24A4;}
	.st59{fill:#691F95;}
	.st60{fill:#541B86;}
	.st61{fill:#3F1777;}
	.st62{fill:#291268;}
	.st63{fill:#4C40D6;}
	.st64{fill:#473BCA;}
	.st65{fill:#4136BD;}
	.st66{fill:#3B31B1;}
	.st67{fill:#362CA4;}
	.st68{fill:#302798;}
	.st69{fill:#2B228B;}
	.st70{fill:#251D7F;}
	.st71{fill:#1F1872;}
	.st72{fill:#1A1366;}
	.st73{fill:#17D5A8;}
	.st74{fill:url(#SVGID_00000172437598271213420380000001625170371587091082_);}
	.st75{fill:url(#SVGID_00000003789784135933151640000000390263215840096662_);}
	.st76{fill:url(#SVGID_00000013160259202066608240000009139150136538080154_);}
	.st77{fill:#FFFFFF;stroke:#3D2EE0;stroke-width:12;stroke-miterlimit:10;}
	.st78{fill:url(#SVGID_00000049199287907690306500000005455414291445275575_);}
	.st79{fill:url(#SVGID_00000044878950350371811140000011618390131172005271_);}
	.st80{fill:url(#SVGID_00000024706264012550896580000009830334507097512617_);}
	.st81{fill:url(#SVGID_00000151519222111467291140000016956867484962524563_);}
	.st82{fill:url(#SVGID_00000060729628549341460150000008885962310269903250_);}
	.st83{fill-rule:evenodd;clip-rule:evenodd;fill:url(#SVGID_00000152259848989935648900000012883397972157849262_);}
	.st84{fill-rule:evenodd;clip-rule:evenodd;fill:url(#SVGID_00000090273436335558940290000007083525829764825276_);}
	.st85{fill:#FFFFFF;stroke:#3D2EE0;stroke-width:8;stroke-miterlimit:10;}
	.st86{fill:url(#SVGID_00000026871669398485921060000014116112282847932067_);}
	.st87{fill:url(#SVGID_00000164498980947387697920000017583323819771077268_);}
	.st88{fill:url(#SVGID_00000054970239960691057950000014344739711074972580_);}
	.st89{fill:url(#SVGID_00000021120411723919022390000004503553552191642795_);}
	.st90{fill:url(#SVGID_00000086688000329627969090000003266919040670889093_);}
	.st91{fill:url(#SVGID_00000124129317248008116820000007336928277956990143_);}
	.st92{fill:url(#SVGID_00000142156279624783924480000000094328277408134536_);}
	.st93{fill:url(#SVGID_00000020399167896452723090000002764889121311486355_);}
	.st94{fill:url(#SVGID_00000090275550675389298300000004099236775249142188_);}
	.st95{fill:url(#SVGID_00000106141762584827940780000017685660535047720090_);}
	.st96{fill:url(#SVGID_00000019647329291953604640000016151781589961709495_);}
	.st97{fill-rule:evenodd;clip-rule:evenodd;fill:url(#SVGID_00000098934176190591367700000001350945888524229517_);}
	.st98{fill:url(#SVGID_00000043419707673969228660000015316783551246274433_);}
	.st99{fill:url(#SVGID_00000052793989426712874510000004174722107244328872_);}
	.st100{fill:url(#SVGID_00000167359417097942847420000000785519567166147242_);}
	.st101{fill:url(#SVGID_00000178187642836000083980000001777017989490006198_);}
	.st102{fill:url(#SVGID_00000044894783504040955870000004957884885013344445_);}
	.st103{fill:url(#SVGID_00000030460646115276647500000016599036266253334415_);}
	.st104{fill:url(#SVGID_00000019655031605028766020000014371775024191851162_);}
	.st105{fill:url(#SVGID_00000118356849654981027000000000048898839968296338_);}
	.st106{fill-rule:evenodd;clip-rule:evenodd;fill:url(#SVGID_00000061463114299077830890000006533502429865575866_);}
	.st107{fill:url(#SVGID_00000163783678919313694870000015487948080871949473_);}
	.st108{fill:url(#SVGID_00000064316501699874823110000002301925749965016219_);}
	.st109{fill-rule:evenodd;clip-rule:evenodd;fill:#FFFFFF;stroke:#6D6D6D;stroke-width:11;stroke-miterlimit:10;}
	.st110{fill-rule:evenodd;clip-rule:evenodd;fill:#FFFFFF;stroke:#3D2EE0;stroke-width:11;stroke-miterlimit:10;}
</style>
<g>
	<g>
		<path class="st7" d="M210.14,105.7l-102.85-8.61c-10.54-0.88-16.45,11.86-8.97,19.33l108.71,108.71
			c7.38,7.38,19.96,1.73,19.35-8.69l-5.86-100.1C220.19,110.71,215.76,106.17,210.14,105.7z"/>
		<path class="st0" d="M215,234.48c-4.49,0-8.87-1.76-12.22-5.1L94.08,120.66c-5.21-5.21-6.57-12.89-3.47-19.57
			s9.83-10.6,17.18-9.99l102.85,8.61c8.55,0.72,15.37,7.71,15.87,16.27l5.86,100.1c0.43,7.25-3.58,13.86-10.21,16.84
			C219.84,233.97,217.41,234.48,215,234.48z M106.26,103.05c-3.08,0-4.42,2.35-4.77,3.1c-0.37,0.8-1.38,3.58,1.07,6.03
			l108.71,108.71c2.42,2.42,5.18,1.45,5.97,1.1s3.35-1.78,3.15-5.19l-5.86-100.1c-0.16-2.64-2.26-4.8-4.89-5.02l-102.85-8.61
			C106.61,103.05,106.43,103.05,106.26,103.05z"/>
	</g>
	<path class="st0" d="M240.65,81.98c-5.59-5.59-14.13-7.54-23.71-7.05c-20.22,1.03-45.11,12.94-56.9,24.73
		c-0.12,0.12-0.23,0.24-0.34,0.36l-0.01-0.01l-48.47,48.47c-7.98,7.98-7.98,20.93,0,28.92l34.02,34.02c7.98,7.98,20.93,7.98,28.92,0
		l48.47-48.47l-0.01-0.01c0.12-0.12,0.24-0.23,0.36-0.34c11.44-11.44,23-35.2,24.62-55.07C248.43,97.19,246.59,87.92,240.65,81.98z"
		/>
	<g id="tubiao_00000004529779116851003290000012143811317713940926_">
		<path id="Fill-15_00000114786212399772890600000018386684165360354450_" class="st1" d="M209.59,131.6l-10.23,4.47
			c-0.25,1.59-0.75,3.16-1.52,4.63l0,0l-3.01,5.72c-0.01,0.02-0.03,0.04-0.04,0.06l0,0l20.66-9.03L209.59,131.6z"/>
		<path id="Fill-17_00000093855673636211828960000014819662311939957684_" class="st1" d="M234.01,126.93
			c-0.1-0.66-0.7-1.23-0.7-0.77c0.01,1.9-0.72,3.83-2.2,5.31c-2.85,2.85-7.37,2.95-10.11,0.23l-14.17-14.17
			c0.53,2.73,0.15,5.66-1.23,8.32l-0.59,1.14c0,0,0,0.01-0.01,0.01l4.6,4.6l5.73,5.73l-0.02,0.02c4.27,3.97,11.09,3.75,15.42-0.58
			C233.44,134.06,234.55,130.36,234.01,126.93"/>
		<path id="Fill-19_00000098917962280465427750000003785628771153109637_" class="st1" d="M184.23,115.8l-8.15,18.62
			c-1.25,2.85-0.68,6.06,1.44,8.19l0,0l4.85,4.85c1.47,1.47,3.61,2.13,5.72,1.75l0,0c2.11-0.37,3.97-1.74,4.98-3.66l0,0l3.01-5.72
			l0,0c2.51-4.78,1.73-10.46-1.95-14.13l0,0L184.23,115.8z M186.65,129.51l1.83,1.83c1.32,1.32,1.6,3.35,0.7,5.06l0,0l-1.8,3.42
			c-0.23,0.43-0.8,0.54-1.13,0.2l0,0l-2.92-2.92L186.65,129.51z"/>
		<path id="Fill-21_00000105409769115481220120000012526737927247840418_" class="st1" d="M196.47,118.47
			c0.81,0.81,0.99,2.07,0.44,3.13l0,0l-0.59,1.14c-0.41,0.79-1.15,1.34-2.02,1.5l0,0c-0.87,0.16-1.72-0.1-2.33-0.71l0,0l-1.88-1.88
			l2.22-5.08l-5.86-5.86l-5.65,12.95l5.52,5.52l0,0c2.37,2.37,5.67,3.38,9.06,2.77l0,0c3.39-0.61,6.25-2.73,7.86-5.82l0,0l0.59-1.14
			c0.65-1.26,0.22-2.36-0.7-3.28l0,0C201.04,119.63,196.47,118.47,196.47,118.47"/>
		<path id="Fill-23_00000034081888618237137580000001980748990958533792_" class="st1" d="M198.45,90.96
			c-0.17-0.16-0.47-0.33-0.8-0.38l0,0c-3.43-0.53-7.12,0.57-9.84,3.28l0,0c-4.33,4.33-4.56,11.15-0.58,15.42l0,0l0.02-0.02
			l5.74,5.74l3.48,3.48c0.81,0.81,0.99,2.07,0.44,3.13l0,0l-0.59,1.14c-0.35,0.67-0.94,1.15-1.64,1.38l0,0l3.73,6.78
			c2.04-1.03,3.73-2.67,4.83-4.78l0,0l0.59-1.14c2.14-4.12,1.46-9.01-1.71-12.17l0,0l-0.39-0.39l-8.83-8.83l-0.02-0.02
			c-2.72-2.74-2.62-7.26,0.23-10.11l0,0c1.48-1.48,3.41-2.22,5.31-2.2l0,0c0.22,0,0.21-0.13,0.06-0.28l0,0L198.45,90.96z"/>
	</g>
	<path class="st0" d="M76.22,242.58c1.1-5.31,1.99-10.96,3.67-16.43c1.42-4.61,2.62-9.29,4.35-13.82
		c3.96-10.36,10.96-16.72,22.48-16.66c11.01,0.06,19.79,6.83,22.39,17.77c2.4,10.08-1.87,20.83-11.78,25.64
		c-5.72,2.78-11.81,4.42-17.84,6.28c-4.75,1.46-9.66,2.17-14.46,3.37c-2.6,0.65-5.44,0.83-7.67-1.73
		C76.17,245.65,76.66,244.27,76.22,242.58z M118.18,218.45c-0.04-3.99-2.35-6.57-5.17-9.09c-4.11-3.66-12.65-2.48-15.67,2.63
		c-2.38,4.02-3.65,8.46-5.01,12.86c-0.88,2.85-1.65,5.75-2.34,8.65c-0.18,0.75-0.76,2.22,1.2,1.79c7.07-1.54,14.03-3.43,20.65-6.46
		C116.35,226.78,117.9,223.04,118.18,218.45z"/>
</g>
</svg>
