<svg width="24" height="24" viewBox="0 0 24 24" fill="none" xmlns="http://www.w3.org/2000/svg">
<path d="M16.8281 17.0451C15.4481 18.472 13.5954 19.2573 11.612 19.2573C7.61034 19.2573 4.35476 16.0017 4.35476 12C4.35476 7.9983 7.61034 4.74271 11.612 4.74271C13.6684 4.74271 15.6355 5.6206 17.0111 7.15091L17.266 7.4341L18.5621 6.26867L18.3073 5.98548C16.6016 4.0881 14.1618 3 11.612 3C6.64968 3 2.61206 7.03764 2.61206 12C2.61206 16.9624 6.64968 21 11.612 21C14.0725 21 16.3696 20.0263 18.0807 18.2574L18.3454 17.9829L17.0928 16.7718L16.8281 17.0451Z" fill="#6D6D6D"/>
<path fill-rule="evenodd" clip-rule="evenodd" d="M21.1283 11.9728L14.9799 8.04187V10.7246H7.17041V13.2112H14.9799V15.8939L21.1283 11.9728Z" fill="#6D6D6D"/>
</svg>
