<svg width="24" height="24" viewBox="0 0 24 24" fill="none" xmlns="http://www.w3.org/2000/svg">
<path d="M18.65 7.98779L18.5512 8.46658H18.0624H16.6345C16.6538 9.42217 16.4478 10.372 16.0288 11.2501C15.5119 12.3336 14.6913 13.2654 13.6578 13.9552C12.2112 14.9663 10.3958 15.4172 8.59899 15.2221C7.64538 15.1376 6.71793 14.881 5.87074 14.4658C5.02159 14.0495 4.26859 13.4814 3.65791 12.7922C3.04709 12.1027 2.59102 11.3059 2.31972 10.4474C2.11509 9.79988 2.01915 9.12844 2.0343 8.45619C1.78084 8.47129 1.53012 8.5161 1.28866 8.58987C1.03138 8.70104 0.834429 8.88231 0.71895 9.09343C0.601105 9.30887 0.570999 9.5486 0.62788 9.77606L0.63023 9.78546L0.632277 9.79494C1.13307 12.1133 1.64536 14.4417 2.16919 16.7484L2.17105 16.7566L2.17269 16.7648C2.26074 17.2102 2.52217 17.6258 2.92764 17.9304C3.33415 18.2357 3.85498 18.4056 4.39792 18.3999V18.3998H4.40428H4.42467H4.44506H4.46546H4.48586H4.50625H4.52665H4.54704H4.56744H4.58784H4.60823H4.62863H4.64903H4.66943H4.68983H4.71022H4.73063H4.75102H4.77142H4.79182H4.81223H4.83263H4.85303H4.87343H4.89383H4.91424H4.93464H4.95504H4.97544H4.99585H5.01625H5.03666H5.05706H5.07747H5.09788H5.11828H5.13869H5.15909H5.1795H5.19991H5.22032H5.24073H5.26114H5.28154H5.30195H5.32236H5.34277H5.36318H5.38359H5.40401H5.42442H5.44483H5.46524H5.48565H5.50607H5.52648H5.54689H5.56731H5.58772H5.60814H5.62855H5.64897H5.66938H5.6898H5.71021H5.73063H5.75105H5.77147H5.79189H5.8123H5.83272H5.85314H5.87356H5.89398H5.9144H5.93482H5.95524H5.97566H5.99608H6.01651H6.03693H6.05735H6.07777H6.0982H6.11862H6.13904H6.15947H6.17989H6.20032H6.22074H6.24117H6.2616H6.28202H6.30245H6.32288H6.3433H6.36373H6.38416H6.40459H6.42502H6.44545H6.46588H6.48631H6.50674H6.52717H6.5476H6.56803H6.58846H6.60889H6.62933H6.64976H6.67019H6.69063H6.71106H6.73149H6.75193H6.77236H6.7928H6.81324H6.83367H6.85411H6.87454H6.89498H6.91542H6.93586H6.9563H6.97673H6.99717H7.01761H7.03805H7.05849H7.07893H7.09937H7.11981H7.14025H7.1607H7.18114H7.20158H7.22202H7.24247H7.26291H7.28335H7.3038H7.32424H7.34469H7.36513H7.38558H7.40602H7.42647H7.44692H7.46737H7.48781H7.50826H7.52871H7.54916H7.56961H7.59006H7.61051H7.63095H7.65141H7.67186H7.69231H7.71276H7.73321H7.75366H7.77411H7.79457H7.81502H7.83547H7.85593H7.87638H7.89684H7.91729H7.93775H7.9582H7.97866H7.99911H8.01957H8.04003H8.06049H8.08094H8.1014H8.12186H8.14232H8.16278H8.18324H8.2037H8.22416H8.24462H8.26508H8.28554H8.306H8.32646H8.34693H8.36739H8.38785H8.40832H8.42878H8.44924H8.46971H8.49017H8.51064H8.5311H8.55157H8.57204H8.5925H8.61297H8.63344H8.6539H8.67437H8.69484H8.71531H8.73578H8.75625H8.77672H8.79719H8.81766H8.83813H8.8586H8.87907H8.89955H8.92002H8.94049H8.96096H8.98144H9.00191H9.02238H9.04286H9.06333H9.08381H9.10429H9.12476H9.14524H9.16571H9.18619H9.20667H9.22715H9.24762H9.2681H9.28858H9.30906H9.32954H9.35002H9.3705H9.39098H9.41146H9.43194H9.45242H9.47291H9.49339H9.51387H9.53435H9.55484H9.57532H9.59581H9.61629H9.63677H9.65726H9.67774H9.69823H9.71872H9.7392H9.75969H9.78018H9.80066H9.82115H9.84164H9.86213H9.88262H9.90311H9.9236H9.94409H9.96458H9.98507H10.0056H10.0261H10.0465H10.067H10.0875H10.108H10.1285H10.149H10.1695H10.19H10.2105H10.231H10.2515H10.272H10.2925H10.313H10.3335H10.354H10.3745H10.395H10.4155H10.436H10.4565H10.477H10.4975H10.518H10.5385H10.559H10.5795H10.6H10.6205H10.641H10.6615H10.682H10.7025H10.723H10.7435H10.764H10.7845H10.805H10.8255H10.846H10.8665H10.887H10.9075H10.928H10.9485H10.969H10.9896H11.0101H11.0306H11.0511H11.0716H11.0921H11.1126H11.1331H11.1536H11.1741H11.1947H11.2152H11.2357H11.2562H11.2767H11.2972H11.3177H11.3383H11.3588H11.3793H11.3998H11.4203H11.4408H11.4613H11.4819H11.5024H11.5229H11.5434H11.5639H11.5845H11.605H11.6255H11.646H11.6665H11.687H11.7076H11.7281H11.7486H11.7691H11.7897H11.8102H11.8307H11.8512H11.8717H11.8923H11.9128H11.9333H11.9538H11.9744H11.9949H12.0154H12.0359H12.0565H12.077H12.0975H12.1181H12.1386H12.1591H12.1796H12.2002H12.2207H12.2412H12.2618H12.2823H12.3028H12.3234H12.3439H12.3644H12.385H12.4055H12.426H12.4466H12.4671H12.4876H12.5082H12.5287H12.5492H12.5698H12.5903H12.6108H12.6314H12.6519H12.6724H12.693H12.7135H12.7341H12.7546H12.7751H12.7957H12.8162H12.8368H12.8573H12.8778H12.8984H12.9189H12.9395H12.96H12.9805H13.0011H13.0216H13.0422H13.0627H13.0833H13.1038H13.1244H13.1449H13.1654H13.186H13.2065H13.2271H13.2476H13.2682H13.2887H13.3093H13.3298H13.3504H13.3709H13.3915H13.412H13.4326H13.4531H13.4737H13.4942H13.5148H13.5353H13.5559H13.5764H13.597H13.6176H13.6381H13.6587H13.6792H13.6998H13.7203H13.7409H13.7614H13.782H13.8026H13.8231H13.8437H13.8642H13.8848H13.9053H13.9259H13.9465H13.967H13.9876H14.0081H14.0287H14.0493H14.0698H14.0904H14.1109H14.1315H14.1521H14.1726H14.1932H14.2138H14.2343H14.2549H14.2755H14.296H14.3166H14.3372H14.3577H14.3783H14.3989H14.4194H14.44H14.4606H14.4811H14.5017H14.5223H14.5428H14.5634H14.584H14.6046H14.6251H14.6457H14.6663H14.6868H14.7074H14.728H14.7486H14.7691H14.7897H14.8103H14.8309H14.8514H14.872H14.8926V18.3998L14.898 18.3998C15.4689 18.405 16.015 18.221 16.4353 17.8929C16.8544 17.5657 17.1161 17.1217 17.1899 16.6506L17.1928 16.6323L17.1968 16.6143C17.7792 13.9745 18.3576 11.3312 18.9323 8.6843C19.1499 7.64302 19.3448 6.68451 19.5394 5.68711C19.5482 5.5735 19.5787 5.46334 19.6283 5.36206C19.6891 5.23821 19.7761 5.13241 19.8796 5.04939C19.983 4.96648 20.1012 4.90744 20.2253 4.87323C20.3347 4.84304 20.4485 4.83221 20.561 4.84078H20.5633H20.5662H20.5691H20.572H20.5748H20.5776H20.5804H20.5832H20.586H20.5887H20.5915H20.5942H20.5969H20.5995H20.6022H20.6048H20.6074H20.61H20.6125H20.6151H20.6176H20.6201H20.6226H20.6251H20.6275H20.6299H20.6323H20.6347H20.6371H20.6395H20.6418H20.6441H20.6464H20.6487H20.6509H20.6532H20.6554H20.6576H20.6598H20.662H20.6641H20.6662H20.6684H20.6705H20.6725H20.6746H20.6766H20.6787H20.6807H20.6827H20.6846H20.6866H20.6885H20.6905H20.6924H20.6943H20.6962H20.698H20.6999H20.7017H20.7035H20.7053H20.7071H20.7088H20.7106H20.7123H20.714H20.7157H20.7174H20.7191H20.7207H20.7224H20.724H20.7256H20.7272H20.7288H20.7303H20.7319H20.7334H20.7349H20.7364H20.7379H20.7394H20.7408H20.7423H20.7437H20.7451H20.7466H20.7479H20.7493H20.7507H20.752H20.7534H20.7547H20.756H20.7573H20.7586H20.7599H20.7611H20.7624H20.7636H20.7648H20.766H20.7672H20.7684H20.7696H20.7707H20.7719H20.773H20.7742H20.7753H20.7764H20.7774H20.7785H20.7796H20.7806H20.7817H20.7827H20.7837H20.7847H20.7857H20.7867H20.7877H20.7887H20.7896H20.7906H20.7915H20.7924H20.7933H20.7942H20.7951H20.796H20.7969H20.7977H20.7986H20.7994H20.8003H20.8011H20.8019H20.8027H20.8035H20.8043H20.8051H20.8058H20.8066H20.8073H20.8081H20.8088H20.8095H20.8103H20.811H20.8117H20.8124H20.813H20.8137H20.8144H20.815H20.8157H20.8163H20.817H20.8176H20.8182H20.8188H20.8194H20.82H20.8206H20.8212H20.8218H20.8224H20.8229H20.8235H20.824H20.8246H20.8251H20.8257H20.8262H20.8267H20.8272H20.8277H20.8282H20.8287H20.8292H20.8297H20.8302H20.8307H20.8311H20.8316H20.832H20.8325H20.8329H20.8334H20.8338H20.8343H20.8347H20.8351H20.8355H20.8359H20.8364H20.8368H20.8372H20.8376H20.838H20.8383H20.8387H20.8391H20.8395H20.8399H20.8402H20.8406H20.841H20.8413H20.8417H20.8421H20.8424H20.8428H20.8431H20.8434H20.8438H20.8441H20.8445H20.8448H20.8451H20.8455H20.8458H20.8461H20.8464H20.8468H20.8471H20.8474H20.8477H20.848H20.8484H20.8487H20.849H20.8493H20.8496H20.8499H20.8502H20.8505H20.8508H20.8511H20.8515H20.8518H20.8521H20.8524H20.8527H20.853H20.8533H20.8536H20.8539H20.8542H20.8545H20.8548H20.8551H20.8554H20.8557H20.856H20.8563H20.8567H20.857H20.8573H20.8576H20.8579H20.8582H20.8585H20.8589H20.8592H20.8595H20.8598H20.8602H20.8605H20.8608H20.8611H20.8615H20.8618H20.8622H20.8625H20.8628H20.8632H20.8635H20.8639H20.8643H20.8646H20.865H20.8653H20.8657H20.8661H20.8665H20.8668H20.8672H20.8676H20.868H20.8684H20.8688H20.8692H20.8696H20.87H20.8704H20.8708H20.8713H20.8717H20.8721H20.8726H20.873H20.8735H20.8739H20.8744H20.8748H20.8753H20.8758H20.8763H20.8767H20.8772H20.8777H20.8782H20.8787H20.8792H20.8798H20.8803H20.8808H20.8814H20.8819H20.8825H20.883H20.8836H20.8842H20.8847H20.8853H20.8859H20.8865H20.8871H20.8877H20.8883H20.889H20.8896H20.8903H20.8909H20.8916H20.8922H20.8929H20.8936H20.8943H20.895H20.8957H20.8964H20.8971H20.8979H20.8986H20.8994H20.9001H20.9009H20.9017H20.9024H20.9032H20.904H20.9049H20.9057H20.9065H20.9074H20.9082H20.9091H20.9099H20.9108H20.9117H20.9126H20.9135H20.9145H20.9154H20.9163H20.9173H20.9183H20.9192H20.9202H20.9212H20.9222H20.9232H20.9243H20.9253H20.9264H20.9274H20.9285H20.9296H20.9307H20.9318H20.9329H20.9341H20.9352H20.9364H20.9375H20.9387H20.9399H20.9411H20.9423H20.9436H20.9448H20.9461H20.9474H20.9486H20.9499H20.9512H20.9526H20.9539H20.9553H20.9566H20.958H20.9594H20.9608H20.9622H20.9637H20.9651H20.9666H20.968H20.9695H20.971H20.9726H20.9741H20.9756H20.9772H20.9788H20.9804H20.982H20.9836H20.9852H20.9869H20.9886H20.9902H20.9919H20.9937H20.9954H20.9971H20.9989H21.0007H21.0025H21.0043H21.0061H21.0079H21.0098H21.0117H21.0136H21.0155H21.0174H21.0193H21.0213H21.0233H21.0253H21.0273H21.0293H21.0314H21.0334H21.0355H21.0376H21.0397H21.0418H21.044H21.0462H21.0483H21.0505H21.0528H21.055H21.0573H21.0595H21.0618H21.0642H21.0665H21.0688H21.0712H21.0736H21.076H21.0784H21.0809H21.0834H21.0858H21.0883H21.0909H21.0934H21.096H21.0986H21.1012H21.1038H21.1064H21.1091H21.1118H21.1145H21.1172H21.12H21.1227H21.1255H21.1283H21.1312H21.134H21.1369H21.1398H21.1427H21.1456H21.1486H21.1515H21.1545H21.1576H21.1606H21.1637H21.1668H21.1699H21.173H21.1804L21.1878 4.84096C21.2491 4.84247 21.3034 4.82423 21.3412 4.79783C21.3781 4.77204 21.3922 4.74433 21.3967 4.72738L21.3966 4.72738L21.3982 4.7216C21.4012 4.7106 21.401 4.69844 21.3932 4.68299C21.385 4.66683 21.3654 4.64257 21.3272 4.62352C21.2871 4.6078 21.2416 4.59928 21.1944 4.60005L21.1944 4.60013H21.1846H20.3931V4.60013L20.3913 4.60012C20.0876 4.59921 19.8001 4.69591 19.5787 4.86342C19.3583 5.03014 19.2214 5.25237 19.1752 5.48395L19.1753 5.48396L19.1738 5.49081C18.999 6.31729 18.8245 7.14208 18.65 7.98779Z" stroke="#202326" stroke-width="1.2"/>
<path d="M5.24109 19.6885L5.24105 19.6885C5.11009 19.6875 4.98019 19.7126 4.85882 19.7623C4.73745 19.812 4.62696 19.8853 4.53376 19.9782C4.44055 20.071 4.36648 20.1816 4.3159 20.3035C4.26555 20.4249 4.23949 20.5551 4.23926 20.6867C4.24044 20.8191 4.26749 20.9499 4.31881 21.0718C4.37037 21.1942 4.4454 21.3051 4.53952 21.3982C4.63365 21.4913 4.74502 21.5648 4.86724 21.6145C4.9889 21.6641 5.11898 21.6892 5.25016 21.6885C5.51181 21.6842 5.76184 21.5775 5.94677 21.3905C6.13135 21.2039 6.23644 20.9521 6.23924 20.6885C6.2364 20.4236 6.13031 20.1707 5.94417 19.9839C5.75725 19.7963 5.50465 19.6904 5.24109 19.6885Z" stroke="#202326"/>
<path d="M13.3398 20.6994C13.3456 21.0982 13.5088 21.4786 13.7939 21.7575C14.079 22.0365 14.4629 22.1914 14.8617 22.1884C15.0573 22.187 15.2506 22.1471 15.4307 22.0709C15.6108 21.9948 15.7742 21.8839 15.9114 21.7446C16.0487 21.6053 16.1572 21.4403 16.2307 21.2591C16.3042 21.0779 16.3412 20.884 16.3398 20.6885C16.3398 20.4915 16.301 20.2964 16.2256 20.1144C16.1502 19.9325 16.0398 19.7671 15.9005 19.6278C15.7612 19.4885 15.5958 19.378 15.4138 19.3027C15.2319 19.2273 15.0368 19.1885 14.8398 19.1885M13.3398 20.6994C13.3398 20.3006 13.4975 19.9179 13.7785 19.6349C14.0595 19.3518 14.441 19.1914 14.8398 19.1885M13.3398 20.6994L13.8398 20.6922C13.8398 20.6934 13.8398 20.6946 13.8398 20.6958M13.3398 20.6994L13.8398 20.6994C13.8398 20.6982 13.8398 20.697 13.8398 20.6958M14.8398 19.1885L14.8434 19.6885C14.8428 19.6885 14.8422 19.6885 14.8416 19.6885M14.8398 19.1885V19.6885C14.8404 19.6885 14.841 19.6885 14.8416 19.6885M14.8416 19.6885C14.5755 19.6909 14.3209 19.7982 14.1333 19.9871C13.9462 20.1757 13.8408 20.4302 13.8398 20.6958M14.8416 19.6885C14.9723 19.6887 15.1017 19.7146 15.2225 19.7646C15.3438 19.8149 15.4541 19.8885 15.5469 19.9814C15.6398 20.0742 15.7134 20.1845 15.7637 20.3058C15.8139 20.4271 15.8398 20.5571 15.8398 20.6885V20.6921L15.8398 20.6921C15.8408 20.822 15.8161 20.9508 15.7673 21.0712C15.7185 21.1916 15.6465 21.3011 15.5553 21.3936C15.4641 21.4861 15.3556 21.5598 15.236 21.6104C15.1164 21.661 14.9879 21.6875 14.8581 21.6884L14.858 21.6884C14.5912 21.6904 14.3344 21.5868 14.1436 21.4001C13.9537 21.2143 13.8446 20.9613 13.8398 20.6958" stroke="#202326"/>
<path d="M14.8375 7.81055C14.8375 10.726 12.474 13.0894 9.55859 13.0894C6.64314 13.0894 4.27971 10.726 4.27971 7.81055C4.27971 4.8951 6.64314 2.53166 9.55859 2.53166C12.474 2.53166 14.8375 4.8951 14.8375 7.81055Z" stroke="#202326" stroke-width="1.44223"/>
<path d="M10.9957 8.63532C10.9908 8.96332 10.8899 9.2798 10.7094 9.53338C10.5288 9.78696 10.2792 9.96276 10.001 10.0322C9.80874 10.09 9.76694 10.1864 9.78366 10.3791C9.79612 10.5007 9.79612 10.6235 9.78366 10.7451C9.7807 10.7838 9.7708 10.8213 9.75458 10.8553C9.73836 10.8893 9.71617 10.919 9.68944 10.9425C9.6627 10.9661 9.63201 10.983 9.5993 10.9921C9.56659 11.0013 9.53259 11.0025 9.49946 10.9956C9.35736 10.9956 9.23198 10.8704 9.25706 10.7066C9.32393 10.2634 9.17347 10.0515 8.78061 9.90699C8.58265 9.82893 8.40782 9.68808 8.27622 9.50061C8.14462 9.31315 8.06159 9.08669 8.03667 8.84726C8.03667 8.57751 8.08683 8.38484 8.27072 8.36557C8.45461 8.3463 8.54656 8.47154 8.57999 8.74129C8.61891 8.94296 8.71304 9.12486 8.8485 9.26017C8.98395 9.39547 9.15356 9.477 9.33228 9.49274C9.47685 9.52281 9.62516 9.51957 9.76863 9.48319C9.9121 9.44681 10.0479 9.37802 10.1682 9.28079C10.2688 9.20409 10.3492 9.09709 10.4008 8.97141C10.4524 8.84573 10.4731 8.70617 10.4607 8.56788C10.4458 8.42924 10.3958 8.29872 10.3171 8.19253C10.2383 8.08634 10.1342 8.00916 10.0177 7.97058C9.72148 7.86354 9.42004 7.77669 9.11496 7.71046C9.04441 7.69576 8.97464 7.67646 8.90599 7.65266C8.67198 7.6108 8.45684 7.47996 8.29478 7.28096C8.13271 7.08195 8.03304 6.8262 8.0116 6.55439C7.97852 6.28366 8.01658 6.00772 8.12088 5.76216C8.22517 5.51661 8.39091 5.3127 8.59671 5.17674C8.73884 5.06665 8.89761 4.98823 9.0648 4.94553C9.17347 4.94553 9.22362 4.87809 9.21526 4.74322C9.2069 4.60208 9.2069 4.46046 9.21526 4.31933C9.2118 4.27981 9.21545 4.2399 9.22596 4.20209C9.23648 4.16427 9.25365 4.12936 9.27639 4.09952C9.29914 4.06969 9.32697 4.04558 9.35816 4.0287C9.38935 4.01182 9.42322 4.00253 9.45767 4.00141C9.49348 3.99745 9.52961 4.00186 9.5639 4.01437C9.5982 4.02688 9.62995 4.04724 9.65727 4.07422C9.68458 4.1012 9.70689 4.13425 9.72286 4.1714C9.73883 4.20855 9.74814 4.24903 9.75022 4.29042C9.75842 4.42513 9.75842 4.56034 9.75022 4.69505C9.75022 4.84919 9.75022 4.91663 9.92576 4.9648C10.1707 5.00947 10.3991 5.13525 10.5831 5.32682C10.7671 5.51839 10.8988 5.76749 10.9622 6.0438C10.9703 6.13025 10.9703 6.21746 10.9622 6.30391C10.9683 6.34362 10.9668 6.38436 10.9579 6.42334C10.949 6.46232 10.9328 6.49862 10.9106 6.52974C10.8884 6.56086 10.8605 6.58606 10.8291 6.60362C10.7976 6.62118 10.7632 6.63068 10.7282 6.63146C10.6927 6.63986 10.6561 6.63929 10.6208 6.6298C10.5855 6.62031 10.5524 6.60212 10.5238 6.57649C10.4952 6.55085 10.4718 6.51838 10.4551 6.4813C10.4385 6.44422 10.429 6.40343 10.4273 6.36171C10.4178 6.17745 10.3576 6.00148 10.2554 5.85939C10.1532 5.71731 10.0143 5.61653 9.85889 5.57173C9.68557 5.49463 9.49816 5.46922 9.31405 5.49785C9.12993 5.52648 8.95507 5.60822 8.80568 5.73551C8.71202 5.81319 8.63877 5.91915 8.59401 6.04173C8.54925 6.16431 8.53472 6.29875 8.552 6.43025C8.56929 6.56174 8.61773 6.68518 8.69198 6.78698C8.76624 6.88877 8.86343 6.96497 8.97286 7.00719C9.29331 7.12198 9.62002 7.21209 9.95083 7.27694C10.1437 7.32675 10.3294 7.40784 10.5025 7.51778C10.6679 7.63142 10.8019 7.79667 10.8892 7.99443C10.9765 8.19219 11.0134 8.41439 10.9957 8.63532Z" fill="#202326" stroke="#202326" stroke-width="0.5" stroke-miterlimit="10"/>
</svg>
