<?xml version="1.0" encoding="utf-8"?>
<!-- Generator: Adobe Illustrator 27.5.0, SVG Export Plug-In . SVG Version: 6.00 Build 0)  -->
<svg version="1.1" id="Layer_1" xmlns="http://www.w3.org/2000/svg" xmlns:xlink="http://www.w3.org/1999/xlink" x="0px" y="0px"
	 viewBox="0 0 324 324" style="enable-background:new 0 0 324 324;" xml:space="preserve">
<style type="text/css">
	.st0{fill:#6D6D6D;}
	.st1{fill-rule:evenodd;clip-rule:evenodd;fill:#FFFFFF;}
	.st2{fill-rule:evenodd;clip-rule:evenodd;fill:#6D6D6D;}
	.st3{fill:#5245E3;}
	.st4{fill-rule:evenodd;clip-rule:evenodd;fill:url(#SVGID_1_);}
	.st5{fill-rule:evenodd;clip-rule:evenodd;fill:#3D2EE0;}
	.st6{fill-rule:evenodd;clip-rule:evenodd;fill:url(#SVGID_00000169550757382932125690000005606314674332423812_);}
	.st7{fill:#FFFFFF;}
	
		.st8{fill-rule:evenodd;clip-rule:evenodd;fill:none;stroke:#FFFFFF;stroke-width:8;stroke-linecap:round;stroke-linejoin:round;stroke-miterlimit:10;}
	.st9{fill:#DCEAFD;}
	.st10{fill:#F8F8F8;}
	.st11{fill:#E3FFF7;}
	.st12{fill:#CAFFF0;}
	.st13{fill:#B1FFE9;}
	.st14{fill:#98FFE2;}
	.st15{fill:#7FFFDC;}
	.st16{fill:#66FED5;}
	.st17{fill:#4DFECE;}
	.st18{fill:#34FEC7;}
	.st19{fill:#1BFEC0;}
	.st20{fill:#E2E1EA;}
	.st21{fill:#C8C7D8;}
	.st22{fill:#AFACC6;}
	.st23{fill:#9592B4;}
	.st24{fill:#7B78A2;}
	.st25{fill:#615D8F;}
	.st26{fill:#48437D;}
	.st27{fill:#2E286B;}
	.st28{fill:#140E59;}
	.st29{fill:#E7E5FB;}
	.st30{fill:#D2CEF8;}
	.st31{fill:#BDB7F4;}
	.st32{fill:#A7A0F1;}
	.st33{fill:#928AEE;}
	.st34{fill:#7D73EA;}
	.st35{fill:#685CE7;}
	.st36{fill:#3D2EE0;}
	.st37{fill:#CCCCCC;}
	.st38{fill:#FF3EFF;}
	.st39{fill:#FFFFFF;stroke:#000000;stroke-miterlimit:10;}
	.st40{fill:url(#SVGID_00000144330283444687716560000015533107036808409250_);}
	.st41{fill:url(#SVGID_00000156566389051481943150000001747755014904120961_);}
	.st42{fill:url(#SVGID_00000076581872427532279400000004350580075978405011_);}
	.st43{fill:#1AE8B7;}
	.st44{fill:#1AD2AD;}
	.st45{fill:#19BDA4;}
	.st46{fill:#18A79B;}
	.st47{fill:#189191;}
	.st48{fill:#177B88;}
	.st49{fill:#17657E;}
	.st50{fill:#164F75;}
	.st51{fill:#153A6C;}
	.st52{fill:#152462;}
	.st53{fill:#EA3AF0;}
	.st54{fill:#D435E1;}
	.st55{fill:#BF31D2;}
	.st56{fill:#AA2DC3;}
	.st57{fill:#9428B4;}
	.st58{fill:#7F24A4;}
	.st59{fill:#691F95;}
	.st60{fill:#541B86;}
	.st61{fill:#3F1777;}
	.st62{fill:#291268;}
	.st63{fill:#4C40D6;}
	.st64{fill:#473BCA;}
	.st65{fill:#4136BD;}
	.st66{fill:#3B31B1;}
	.st67{fill:#362CA4;}
	.st68{fill:#302798;}
	.st69{fill:#2B228B;}
	.st70{fill:#251D7F;}
	.st71{fill:#1F1872;}
	.st72{fill:#1A1366;}
	.st73{fill:#17D5A8;}
	.st74{fill:url(#SVGID_00000145750103709000211280000010015482430434648238_);}
	.st75{fill:url(#SVGID_00000155842264593322238680000008223495201827740575_);}
	.st76{fill:url(#SVGID_00000093178139361749900720000001059623976265193880_);}
	.st77{fill:#FFFFFF;stroke:#3D2EE0;stroke-width:12;stroke-miterlimit:10;}
	.st78{fill:url(#SVGID_00000148639345811537779440000009135584985232433546_);}
	.st79{fill:url(#SVGID_00000101809769045197042670000004976310239512302240_);}
	.st80{fill:url(#SVGID_00000177460277629290070960000006197099079023012246_);}
	.st81{fill:url(#SVGID_00000157303950656704788680000011383347561137252232_);}
	.st82{fill:url(#SVGID_00000072968890378559095570000006284200931984430005_);}
	.st83{fill-rule:evenodd;clip-rule:evenodd;fill:url(#SVGID_00000011725014791932970780000008096259089939794623_);}
	.st84{fill-rule:evenodd;clip-rule:evenodd;fill:url(#SVGID_00000031907239454635330670000006152245556146715280_);}
	.st85{fill:#FFFFFF;stroke:#3D2EE0;stroke-width:8;stroke-miterlimit:10;}
	.st86{fill:url(#SVGID_00000148662314743490060010000008568451675992979853_);}
	.st87{fill:url(#SVGID_00000004531510086878542930000013404491715222574493_);}
	.st88{fill:url(#SVGID_00000058578860846167929940000016393907148782569859_);}
	.st89{fill:url(#SVGID_00000099631915154128770270000012586835954182421693_);}
	.st90{fill:url(#SVGID_00000118356627313319940970000018344896963187169199_);}
	.st91{fill:url(#SVGID_00000181054994308445524520000001299551581823523729_);}
	.st92{fill:url(#SVGID_00000104708302858248263820000004163060574461180332_);}
	.st93{fill:url(#SVGID_00000105410010588045599660000003828033516233468554_);}
	.st94{fill:url(#SVGID_00000071542911329115024240000007469153075441976973_);}
	.st95{fill:url(#SVGID_00000151501258292561963410000008094301863822151832_);}
	.st96{fill:url(#SVGID_00000028312776344957160360000005146806935498491051_);}
	.st97{fill-rule:evenodd;clip-rule:evenodd;fill:url(#SVGID_00000000918779695544307810000004858390293736004237_);}
	.st98{fill:url(#SVGID_00000012435601487111627990000005758841841671979951_);}
	.st99{fill:url(#SVGID_00000015344425811375500350000012842803876228115848_);}
	.st100{fill:url(#SVGID_00000042729657081564747900000006850478019831978175_);}
	.st101{fill:url(#SVGID_00000018958652450060279020000002816837520379873415_);}
	.st102{fill:url(#SVGID_00000127003616474164178090000015073343323617634963_);}
	.st103{fill:url(#SVGID_00000092435735873313190330000011216211384843912099_);}
	.st104{fill:url(#SVGID_00000162339661529649189440000017595649039203100045_);}
	.st105{fill:url(#SVGID_00000034080560543164101890000010912604920948186509_);}
	.st106{fill-rule:evenodd;clip-rule:evenodd;fill:url(#SVGID_00000073691257559487321430000015171396582678425770_);}
	.st107{fill:url(#SVGID_00000044141519805532128240000013544922486406088379_);}
	.st108{fill:url(#SVGID_00000052102927926600395500000007336707124436501888_);}
	.st109{fill-rule:evenodd;clip-rule:evenodd;fill:#FFFFFF;stroke:#6D6D6D;stroke-width:11;stroke-miterlimit:10;}
	.st110{fill-rule:evenodd;clip-rule:evenodd;fill:#FFFFFF;stroke:#3D2EE0;stroke-width:11;stroke-miterlimit:10;}
</style>
<g>
	<g>
		<path class="st7" d="M200.96,171.58h-94.97c-4.42,0-8.04-3.62-8.04-8.04v-16c0-4.42,3.62-8.04,8.04-8.04h94.97
			c4.42,0,8.04,3.62,8.04,8.04v16C209,167.96,205.38,171.58,200.96,171.58z"/>
		<path class="st0" d="M200.96,175.58h-94.97c-6.64,0-12.04-5.4-12.04-12.04v-16c0-6.64,5.4-12.04,12.04-12.04h94.97
			c6.64,0,12.04,5.4,12.04,12.04v16C213,170.18,207.6,175.58,200.96,175.58z M105.99,143.5c-2.23,0-4.04,1.81-4.04,4.04v16
			c0,2.23,1.81,4.04,4.04,4.04h94.97c2.23,0,4.04-1.81,4.04-4.04v-16c0-2.23-1.81-4.04-4.04-4.04H105.99z"/>
	</g>
	<path class="st0" d="M219,203.77H123c-4.4,0-8-3.6-8-8v-16.09c0-4.4,3.6-8,8-8H219c4.4,0,8,3.6,8,8v16.09
		C227,200.17,223.4,203.77,219,203.77z"/>
	<g>
		<path class="st0" d="M165.25,216.52c-13.6,0-27.21,0.02-40.81-0.01c-10.11-0.02-18.07-4.41-24.02-12.39
			c-3.47-4.65-5-10.12-5.8-15.86c-0.66-4.72-1.76-9.37-2.65-14.06c-0.87-4.6-1.71-9.2-2.58-13.8c-1.89-10-3.76-20.01-5.67-30
			c-1.31-6.85-2.67-13.68-4.06-20.51c-0.5-2.46-2.8-4.56-5.32-4.93c-0.99-0.15-2.01-0.18-3.02-0.19c-3.68-0.02-7.35,0.03-11.03-0.03
			c-3.13-0.05-5.71-2.65-5.9-5.82c-0.21-3.55,1.87-6.7,5.1-6.91c4.58-0.3,9.18-0.21,13.77-0.19c1.5,0.01,3.06,0.1,4.5,0.5
			c6.16,1.69,10.83,5.24,13.56,11.16c1.81,3.95,2.17,8.23,2.99,12.4c1.29,6.57,2.55,13.15,3.78,19.74
			c0.85,4.51,1.59,9.04,2.44,13.55c1.4,7.39,2.83,14.77,4.28,22.15c1.35,6.89,2.43,13.85,4.18,20.63
			c1.64,6.39,6.63,10.41,13.09,11.18c2.45,0.29,4.95,0.15,7.43,0.15c24.96,0.01,49.91-0.03,74.87,0.04
			c3.54,0.01,6.97-0.12,10.17-1.8c4.94-2.59,7.52-6.77,8.51-12.16c1.69-9.3,3.45-18.59,5.23-27.87c1.32-6.89,2.73-13.77,4.05-20.67
			c1.66-8.65,3.26-17.32,4.89-25.98c0.64-3.41,3.59-5.68,6.92-5.39c2.89,0.25,6.46,2.72,5.96,6.61c-0.47,3.73-1.17,7.43-1.85,11.13
			c-1.35,7.36-2.72,14.71-4.13,22.05c-1.2,6.31-2.47,12.61-3.69,18.91c-1.65,8.52-3.13,17.07-4.96,25.54
			c-1.89,8.76-7,15.24-14.95,19.4c-4.65,2.43-9.61,3.45-14.86,3.42C192.18,216.46,178.71,216.51,165.25,216.52
			C165.25,216.51,165.25,216.51,165.25,216.52z"/>
		<path class="st0" d="M196.6,225.56c6.37-0.38,13.74,5.83,13.59,13.71c-0.12,6.51-6.39,12.87-13.15,12.96
			c-7.55,0.1-13.29-6.72-13.56-12.81C183.16,232.11,189.89,225.43,196.6,225.56z"/>
		<path class="st0" d="M121.28,238.94c-0.65-6.26,5.8-13.33,12.91-13.41c7.02-0.08,13.35,5.8,13.54,13.03
			c0.21,8.15-6.98,13.18-12.4,13.67C128.7,252.84,120.64,246.12,121.28,238.94z"/>
	</g>
	<g>
		<circle class="st0" cx="225.66" cy="115.7" r="43.96"/>
	</g>
	<polyline class="st8" points="207.75,118.92 222.46,132.13 246.13,105.32 	"/>
</g>
</svg>
