<svg width="324" height="324" viewBox="0 0 324 324" fill="none" xmlns="http://www.w3.org/2000/svg">
<path d="M171.78 157.889L169.707 161.002L168.799 162.366L167.52 161.34C165.458 159.686 163.225 158.276 160.864 157.135H100.566C99.6356 157.255 98.7435 157.608 97.9664 158.168C97.2101 158.713 96.5846 159.439 96.144 160.289L81.8305 224.226L81.8199 224.274L81.8062 224.321C81.2091 226.358 81.3941 228.554 82.3187 230.45C83.1918 232.24 84.6557 233.621 86.4198 234.356L107.509 232.127L108.138 232.06L108.624 232.464L161.686 276.476C166.071 278.974 168.88 278.843 170.475 278.327C171.306 278.058 171.89 277.66 172.259 277.342C172.444 277.183 172.573 277.045 172.65 276.956C172.688 276.912 172.713 276.88 172.725 276.865C172.727 276.862 172.729 276.86 172.73 276.858L172.804 276.749L172.91 276.645L225.227 225.098L226.928 223.422L227.699 225.682C227.777 225.91 228.144 226.343 229.355 226.735C230.48 227.1 231.95 227.301 233.478 227.391C234.989 227.48 236.472 227.457 237.585 227.411C238.048 227.391 238.444 227.368 238.747 227.348C240.798 224.526 241.336 222.276 241.406 220.795C241.444 219.999 241.347 219.396 241.253 219.013C241.206 218.82 241.159 218.683 241.129 218.604C241.114 218.566 241.104 218.541 241.099 218.531C241.099 218.531 241.099 218.531 241.099 218.53L241.098 218.527L241.017 218.367L240.977 218.169L229.532 161.408L171.78 157.889ZM171.78 157.889C172.944 156.757 174.395 156.005 175.955 155.716L176.027 155.703L176.098 155.683C178.741 154.92 182.794 154.411 187.488 154.093C192.151 153.777 197.339 153.656 202.195 153.635C207.048 153.615 211.554 153.696 214.848 153.782C216.494 153.825 217.836 153.869 218.766 153.902C219.231 153.919 219.593 153.933 219.838 153.943C219.961 153.948 220.054 153.951 220.117 153.954L220.187 153.957L220.205 153.958L220.209 153.958L220.21 153.958C220.21 153.958 220.21 153.958 220.276 152.459L220.21 153.958L220.218 153.958L220.218 153.958L220.22 153.958L220.221 153.958L220.222 153.958L220.226 153.959C220.235 153.959 220.253 153.96 220.278 153.962C220.329 153.965 220.41 153.971 220.517 153.982C220.732 154.004 221.051 154.044 221.443 154.115C222.231 154.26 223.29 154.531 224.385 155.028C226.552 156.012 228.808 157.844 229.531 161.406L171.78 157.889Z" fill="#666666" stroke="#666666" stroke-width="3"/>
<path d="M163.007 165.067L161.015 162.689H102.304L87.8286 227.377L109.993 225.293L115.129 228.55L122.009 219.104C122.009 219.104 122.663 216.824 126.803 219.462L133.029 224.315C133.541 225.136 133.797 226.103 133.764 227.082C133.73 228.062 133.409 229.007 132.842 229.787L125.994 237.409L129.792 240.667L136.484 231.872C136.484 231.872 137.761 230.537 140.843 232.621L147.069 237.637C147.069 237.637 149.434 239.233 146.228 243.142L141.185 249.656L144.609 252.914L149.777 246.204C149.777 246.204 151.582 243.403 156.003 247.051L160.797 251.578C160.797 251.578 163.412 252.751 160.05 256.692L155.847 261.838L159.489 265.096L164.968 258.972C164.968 258.972 166.68 255.975 170.042 259.656L175.832 265.617L179.163 261.545L155.287 239.396C154.697 238.544 154.443 237.488 154.576 236.446C154.709 235.403 155.22 234.454 156.003 233.794C156.702 233.205 157.565 232.867 158.462 232.832C159.36 232.797 160.244 233.066 160.984 233.598L185.42 257.181L192.58 248.484L164.159 221.384C163.855 220.992 163.633 220.538 163.508 220.051C163.383 219.564 163.358 219.054 163.435 218.556C163.511 218.058 163.687 217.582 163.952 217.16C164.216 216.738 164.562 216.379 164.968 216.107C164.968 216.107 166.4 214.446 169.482 216.107L198.526 243.077L206.153 235.129L172.377 202.557C172.052 202.157 171.811 201.689 171.671 201.184C171.531 200.679 171.496 200.149 171.566 199.629C171.637 199.109 171.812 198.61 172.081 198.166C172.349 197.722 172.705 197.342 173.124 197.053C173.837 196.51 174.711 196.252 175.59 196.323C176.469 196.395 177.294 196.792 177.918 197.443L212.597 230.406L221.562 220.179L177.42 177.835L159.863 196.89C157.824 199.009 155.178 200.371 152.329 200.766C150.375 200.646 148.506 199.886 146.987 198.595C145.467 197.303 144.374 195.544 143.862 193.567C143.736 192.188 143.957 190.797 144.503 189.535C145.049 188.272 145.901 187.181 146.975 186.369L163.007 165.067Z" fill="white"/>
<path d="M63.4409 247.141H48.9949C47.6706 247.141 46.4005 246.601 45.4641 245.639C44.5277 244.677 44.0016 243.372 44.0016 242.011V161.35C43.9848 160.665 44.1016 159.984 44.345 159.347C44.5884 158.71 44.9536 158.129 45.4189 157.639C45.8843 157.149 46.4404 156.759 47.0546 156.493C47.6687 156.227 48.3284 156.091 48.9949 156.091H80.5877C81.912 156.091 83.182 156.631 84.1185 157.593C85.0549 158.555 85.581 159.86 85.581 161.221L68.5284 241.882C68.5455 242.575 68.4258 243.264 68.1766 243.908C67.9274 244.552 67.5538 245.137 67.0783 245.629C66.6029 246.12 66.0355 246.508 65.4103 246.768C64.7852 247.028 64.1152 247.155 63.4409 247.141Z" fill="#666666"/>
<path d="M260.56 244.503H275.006C275.662 244.503 276.312 244.37 276.917 244.111C277.523 243.853 278.074 243.475 278.537 242.998C279.001 242.521 279.369 241.954 279.62 241.331C279.871 240.708 280 240.04 280 239.365V158.589C280 157.915 279.871 157.247 279.62 156.623C279.369 156 279.001 155.434 278.537 154.957C278.074 154.48 277.523 154.101 276.917 153.843C276.312 153.585 275.662 153.452 275.006 153.452H243.412C242.757 153.452 242.107 153.585 241.501 153.843C240.896 154.101 240.345 154.48 239.881 154.957C239.418 155.434 239.05 156 238.799 156.623C238.548 157.247 238.419 157.915 238.419 158.589L255.472 239.365C255.472 240.048 255.604 240.724 255.861 241.354C256.118 241.984 256.494 242.554 256.968 243.033C257.442 243.511 258.003 243.887 258.62 244.14C259.237 244.392 259.896 244.515 260.56 244.503Z" fill="#666666"/>
<path d="M121.767 66.514C121.735 64.0435 122.201 61.601 123.123 59.3993C124.044 57.1976 125.394 55.3033 127.056 53.8814C131.06 50.4608 135.885 48.7557 140.772 49.034C145.685 48.7346 150.541 50.418 154.585 53.8227C156.268 55.2973 157.626 57.2534 158.54 59.5181C159.454 61.7828 159.896 64.2864 159.826 66.8078V70.9795C159.874 73.4429 159.42 75.8824 158.506 78.0812C157.592 80.28 156.245 82.1699 154.585 83.5827C150.573 86.9519 145.763 88.624 140.893 88.342C135.973 88.6458 131.108 86.9623 127.056 83.5534C125.369 82.0948 124.006 80.1511 123.087 77.8955C122.169 75.64 121.723 73.1428 121.791 70.627L121.767 66.514ZM133.31 70.9795C133.276 72.0465 133.446 73.1086 133.806 74.0822C134.167 75.0558 134.708 75.9145 135.387 76.5907C136.93 78.0679 138.859 78.8189 140.821 78.706C142.759 78.8402 144.666 78.0736 146.157 76.5614C146.829 75.826 147.356 74.9158 147.699 73.8986C148.042 72.8813 148.192 71.7832 148.138 70.6857V66.514C148.17 65.4544 148.009 64.3994 147.666 63.4243C147.324 62.4492 146.809 61.5781 146.157 60.8734C144.626 59.3466 142.676 58.5805 140.7 58.7288C138.761 58.6187 136.855 59.3705 135.339 60.8441C134.659 61.5752 134.124 62.4831 133.773 63.5003C133.422 64.5175 133.264 65.6178 133.31 66.7197V70.9795ZM144.25 128.473L135.773 124.066L178.517 57.965L186.994 62.3717L144.25 128.473ZM163.569 114.077C163.53 111.602 163.994 109.153 164.921 106.949C165.848 104.745 167.209 102.854 168.882 101.445C172.9 98.0649 177.719 96.3826 182.598 96.656C187.499 96.3977 192.337 98.0778 196.388 101.445C198.085 102.918 199.454 104.881 200.373 107.158C201.292 109.435 201.732 111.954 201.652 114.489V118.66C201.698 121.11 201.251 123.535 200.35 125.727C199.449 127.918 198.122 129.809 196.484 131.234C192.459 134.642 187.617 136.327 182.719 136.023C177.78 136.333 172.895 134.639 168.833 131.205C167.166 129.76 165.815 127.84 164.902 125.611C163.988 123.382 163.538 120.915 163.593 118.425L163.569 114.077ZM175.112 118.601C175.11 119.653 175.305 120.692 175.681 121.638C176.058 122.585 176.606 123.415 177.286 124.066C178.798 125.606 180.724 126.411 182.695 126.328C187.525 126.328 189.94 123.713 189.94 118.484V114.077C189.971 113.017 189.804 111.961 189.453 110.989C189.102 110.018 188.575 109.155 187.911 108.466C186.335 107.089 184.443 106.348 182.502 106.348C180.561 106.348 178.669 107.089 177.092 108.466C176.4 109.186 175.855 110.091 175.499 111.11C175.143 112.13 174.985 113.236 175.04 114.342L175.112 118.601Z" fill="#666666"/>
<path d="M114.083 122.448C113.9 121.878 113.617 121.353 113.248 120.905C112.88 120.456 112.434 120.093 111.936 119.836C110.636 119.32 109.247 119.133 107.873 119.288C106.302 119.377 104.728 119.377 103.158 119.288C101.852 119.221 100.562 118.951 99.3244 118.488C98.2267 118.039 97.2228 117.351 96.3728 116.466C95.4131 115.447 94.6674 114.211 94.1878 112.843C93.6944 111.665 93.4231 110.39 93.3901 109.094C93.3572 107.798 93.5633 106.508 93.9961 105.302C94.9775 102.81 96.7291 100.781 98.9411 99.572L97.0244 94.5588L100.436 93L102.353 98.0554C104.748 97.2545 107.333 97.5114 109.559 98.7716C111.853 100.185 113.608 102.458 114.504 105.175L108.409 108.04C107.943 106.493 106.992 105.179 105.726 104.333C105.206 104.057 104.636 103.913 104.058 103.913C103.481 103.913 102.911 104.057 102.391 104.333C101.888 104.525 101.428 104.83 101.038 105.229C100.649 105.628 100.339 106.112 100.129 106.65C99.9072 107.193 99.7924 107.781 99.7924 108.377C99.7924 108.972 99.9072 109.561 100.129 110.104C100.305 110.633 100.575 111.119 100.924 111.531C101.273 111.943 101.694 112.275 102.161 112.506C103.543 113.01 105.002 113.211 106.454 113.095C108.114 112.978 109.778 112.978 111.438 113.095C112.675 113.223 113.889 113.55 115.041 114.064C116.103 114.516 117.069 115.204 117.877 116.086C118.744 117.081 119.422 118.255 119.871 119.541C120.379 120.698 120.663 121.959 120.702 123.243C120.742 124.527 120.537 125.806 120.101 126.998C119.157 129.437 117.479 131.445 115.348 132.685L117.111 137.319L113.738 138.878L111.974 134.244C109.37 135.274 106.508 135.184 103.963 133.991C101.494 132.641 99.5876 130.305 98.6344 127.461L104.729 124.596C105.243 126.164 106.249 127.479 107.566 128.304C108.168 128.604 108.821 128.759 109.483 128.759C110.144 128.759 110.797 128.604 111.399 128.304C112.499 127.881 113.407 127.005 113.929 125.86C114.17 125.335 114.308 124.76 114.335 124.172C114.361 123.584 114.275 122.997 114.083 122.448Z" fill="#666666"/>
<path d="M226.378 105.114C226.633 104.686 226.8 104.206 226.869 103.706C226.938 103.205 226.908 102.695 226.779 102.207C226.368 101.003 225.705 99.9121 224.841 99.0171C223.885 97.9609 223.013 96.8228 222.234 95.6144C221.599 94.6615 221.061 93.6396 220.63 92.566C220.255 91.5503 220.074 90.4662 220.095 89.3759C220.198 88.1342 220.539 86.928 221.097 85.8313C221.526 84.8528 222.139 83.9772 222.897 83.2581C223.656 82.539 224.544 81.9913 225.509 81.6487C227.587 81.0166 229.807 81.1669 231.792 82.074L233.73 78.0332L236.604 79.5219L234.666 83.6337C236.482 84.9156 237.754 86.9002 238.209 89.1632C238.661 91.5859 238.282 94.1003 237.139 96.2524L232.059 93.6294C232.722 92.4579 233.004 91.0881 232.861 89.7303C232.734 89.218 232.508 88.7392 232.197 88.3243C231.887 87.9094 231.498 87.5675 231.057 87.32C230.219 86.8358 229.239 86.709 228.316 86.9656C227.449 87.3306 226.752 88.0439 226.378 88.9505C226.203 89.3879 226.113 89.858 226.113 90.3329C226.113 90.8079 226.203 91.278 226.378 91.7153C226.835 92.9711 227.541 94.1076 228.45 95.0472C229.519 96.4651 230.455 97.6702 231.124 98.6627C231.752 99.6123 232.226 100.667 232.527 101.782C232.757 102.783 232.757 103.829 232.527 104.83C232.424 105.995 232.106 107.127 231.591 108.162C231.153 109.134 230.538 110.004 229.78 110.722C229.023 111.44 228.139 111.991 227.18 112.345C224.976 113.056 222.604 112.905 220.496 111.919L218.691 115.677L215.817 114.117L217.622 110.36C215.544 108.963 214.04 106.786 213.411 104.263C212.887 101.851 213.246 99.3174 214.413 97.174L219.56 99.9387C218.876 101.152 218.638 102.591 218.892 103.98C219.083 104.585 219.389 105.143 219.792 105.619C220.194 106.094 220.684 106.477 221.231 106.744C222.122 107.287 223.177 107.44 224.172 107.17C224.675 107.055 225.141 106.807 225.528 106.447C225.914 106.087 226.206 105.628 226.378 105.114Z" fill="#666666"/>
</svg>
