<svg width="46" height="46" viewBox="0 0 46 46" fill="none" xmlns="http://www.w3.org/2000/svg">
<path d="M26 17.1111H32.25M27.25 22H32.25M29.75 26.8889H32.25M29.75 33H17.25C12.25 33 11 31.7778 11 26.8889V17.1111C11 12.2222 12.25 11 17.25 11H29.75C34.75 11 36 12.2222 36 17.1111V26.8889C36 31.7778 34.75 33 29.75 33Z" stroke="#6D6D6D" stroke-width="2" stroke-linecap="round" stroke-linejoin="round"/>
<path d="M19 21.1801C19.5486 21.1801 20.0748 20.9599 20.4627 20.568C20.8506 20.176 21.0686 19.6444 21.0686 19.0901C21.0686 18.5357 20.8506 18.0041 20.4627 17.6122C20.0748 17.2202 19.5486 17 19 17C18.4514 17 17.9252 17.2202 17.5373 17.6122C17.1494 18.0041 16.9314 18.5357 16.9314 19.0901C16.9314 19.6444 17.1494 20.176 17.5373 20.568C17.9252 20.9599 18.4514 21.1801 19 21.1801ZM23 27C22.9231 26.1894 22.5679 25.4316 21.9959 24.8579C21.424 24.2843 20.6713 23.9309 19.8686 23.8591C19.2909 23.8014 18.7091 23.8014 18.1314 23.8591C17.3294 23.9331 16.578 24.2871 16.0065 24.8604C15.435 25.4336 15.0791 26.1902 15 27" fill="#6D6D6D"/>
<path d="M23 27C22.9231 26.1894 22.5679 25.4316 21.9959 24.8579C21.424 24.2843 20.6713 23.9309 19.8686 23.8591C19.2909 23.8014 18.7091 23.8014 18.1314 23.8591C17.3294 23.9331 16.578 24.2871 16.0065 24.8604C15.435 25.4336 15.0791 26.1902 15 27M19 21.1801C19.5486 21.1801 20.0748 20.9599 20.4627 20.568C20.8506 20.176 21.0686 19.6444 21.0686 19.0901C21.0686 18.5357 20.8506 18.0041 20.4627 17.6122C20.0748 17.2202 19.5486 17 19 17C18.4514 17 17.9252 17.2202 17.5373 17.6122C17.1494 18.0041 16.9314 18.5357 16.9314 19.0901C16.9314 19.6444 17.1494 20.176 17.5373 20.568C17.9252 20.9599 18.4514 21.1801 19 21.1801Z" stroke="#6D6D6D" stroke-width="2" stroke-linecap="round" stroke-linejoin="round"/>
</svg>
