<?xml version="1.0" encoding="utf-8"?>
<!-- Generator: Adobe Illustrator 27.5.0, SVG Export Plug-In . SVG Version: 6.00 Build 0)  -->
<svg version="1.1" id="Layer_1" xmlns="http://www.w3.org/2000/svg" xmlns:xlink="http://www.w3.org/1999/xlink" x="0px" y="0px"
	 viewBox="0 0 324 324" style="enable-background:new 0 0 324 324;" xml:space="preserve">
<style type="text/css">
	.st0{fill:#6D6D6D;}
	.st1{fill-rule:evenodd;clip-rule:evenodd;fill:#FFFFFF;}
	.st2{fill-rule:evenodd;clip-rule:evenodd;fill:#6D6D6D;}
	.st3{fill:#5245E3;}
	.st4{fill-rule:evenodd;clip-rule:evenodd;fill:url(#SVGID_1_);}
	.st5{fill-rule:evenodd;clip-rule:evenodd;fill:#3D2EE0;}
	.st6{fill-rule:evenodd;clip-rule:evenodd;fill:url(#SVGID_00000153680538783360612240000015461256734645372575_);}
	.st7{fill:#FFFFFF;}
	
		.st8{fill-rule:evenodd;clip-rule:evenodd;fill:none;stroke:#FFFFFF;stroke-width:8;stroke-linecap:round;stroke-linejoin:round;stroke-miterlimit:10;}
	.st9{fill:#DCEAFD;}
	.st10{fill:#F8F8F8;}
	.st11{fill:#E3FFF7;}
	.st12{fill:#CAFFF0;}
	.st13{fill:#B1FFE9;}
	.st14{fill:#98FFE2;}
	.st15{fill:#7FFFDC;}
	.st16{fill:#66FED5;}
	.st17{fill:#4DFECE;}
	.st18{fill:#34FEC7;}
	.st19{fill:#1BFEC0;}
	.st20{fill:#E2E1EA;}
	.st21{fill:#C8C7D8;}
	.st22{fill:#AFACC6;}
	.st23{fill:#9592B4;}
	.st24{fill:#7B78A2;}
	.st25{fill:#615D8F;}
	.st26{fill:#48437D;}
	.st27{fill:#2E286B;}
	.st28{fill:#140E59;}
	.st29{fill:#E7E5FB;}
	.st30{fill:#D2CEF8;}
	.st31{fill:#BDB7F4;}
	.st32{fill:#A7A0F1;}
	.st33{fill:#928AEE;}
	.st34{fill:#7D73EA;}
	.st35{fill:#685CE7;}
	.st36{fill:#3D2EE0;}
	.st37{fill:#CCCCCC;}
	.st38{fill:#FF3EFF;}
	.st39{fill:#FFFFFF;stroke:#000000;stroke-miterlimit:10;}
	.st40{fill:url(#SVGID_00000077292566370897712130000007795469990119285418_);}
	.st41{fill:url(#SVGID_00000144335129259159623240000015917350085154768781_);}
	.st42{fill:url(#SVGID_00000127040184658184598740000001438590766449387404_);}
	.st43{fill:#1AE8B7;}
	.st44{fill:#1AD2AD;}
	.st45{fill:#19BDA4;}
	.st46{fill:#18A79B;}
	.st47{fill:#189191;}
	.st48{fill:#177B88;}
	.st49{fill:#17657E;}
	.st50{fill:#164F75;}
	.st51{fill:#153A6C;}
	.st52{fill:#152462;}
	.st53{fill:#EA3AF0;}
	.st54{fill:#D435E1;}
	.st55{fill:#BF31D2;}
	.st56{fill:#AA2DC3;}
	.st57{fill:#9428B4;}
	.st58{fill:#7F24A4;}
	.st59{fill:#691F95;}
	.st60{fill:#541B86;}
	.st61{fill:#3F1777;}
	.st62{fill:#291268;}
	.st63{fill:#4C40D6;}
	.st64{fill:#473BCA;}
	.st65{fill:#4136BD;}
	.st66{fill:#3B31B1;}
	.st67{fill:#362CA4;}
	.st68{fill:#302798;}
	.st69{fill:#2B228B;}
	.st70{fill:#251D7F;}
	.st71{fill:#1F1872;}
	.st72{fill:#1A1366;}
	.st73{fill:#17D5A8;}
	.st74{fill:url(#SVGID_00000018918526566086721360000018101370700847794347_);}
	.st75{fill:url(#SVGID_00000016074256987161933250000013854941489051588236_);}
	.st76{fill:url(#SVGID_00000144303071810191280810000007865336378787125929_);}
	.st77{fill:#FFFFFF;stroke:#3D2EE0;stroke-width:12;stroke-miterlimit:10;}
	.st78{fill:url(#SVGID_00000132800390519946003830000004746327892949043342_);}
	.st79{fill:url(#SVGID_00000086673061002760278950000015378250765669551019_);}
	.st80{fill:url(#SVGID_00000116926980047033628060000008903677948299009689_);}
	.st81{fill:url(#SVGID_00000047754751247466791750000017518710638642052795_);}
	.st82{fill:url(#SVGID_00000116913934683225526060000006963785722058004098_);}
	.st83{fill-rule:evenodd;clip-rule:evenodd;fill:url(#SVGID_00000083085947489337346750000006330623101109190306_);}
	.st84{fill-rule:evenodd;clip-rule:evenodd;fill:url(#SVGID_00000095297758199237631820000001144448737213431692_);}
	.st85{fill:#FFFFFF;stroke:#3D2EE0;stroke-width:8;stroke-miterlimit:10;}
	.st86{fill:url(#SVGID_00000098212044758023875320000014789141189936606636_);}
	.st87{fill:url(#SVGID_00000179626787714523755920000002518215460999542713_);}
	.st88{fill:url(#SVGID_00000061462187118645915130000016429682426012577205_);}
	.st89{fill:url(#SVGID_00000032617451435755199450000002581256415108018818_);}
	.st90{fill:url(#SVGID_00000159460519536630629170000009232869495079405470_);}
	.st91{fill:url(#SVGID_00000141442866372131950100000016107609881173623439_);}
	.st92{fill:url(#SVGID_00000180353827726749656810000001976776644159408272_);}
	.st93{fill:url(#SVGID_00000028305869016350429570000005315797381847087776_);}
	.st94{fill:url(#SVGID_00000011715959127984175010000018050237463439419305_);}
	.st95{fill:url(#SVGID_00000019639804423019247090000007806436906949450406_);}
	.st96{fill:url(#SVGID_00000003074835392703177870000004737507101460570293_);}
	.st97{fill-rule:evenodd;clip-rule:evenodd;fill:url(#SVGID_00000024003063225506615600000014111826900709293449_);}
	.st98{fill:url(#SVGID_00000086656385612267575470000001496826924411729045_);}
	.st99{fill:url(#SVGID_00000062902827352355635550000009314902567920923069_);}
	.st100{fill:url(#SVGID_00000170995964926793636170000001207859833305136057_);}
	.st101{fill:url(#SVGID_00000050639460157414697810000000845294982841121193_);}
	.st102{fill:url(#SVGID_00000094579313953378053230000007782394153927473574_);}
	.st103{fill:url(#SVGID_00000109723199492946616500000013854130022412800176_);}
	.st104{fill:url(#SVGID_00000032617244946758486910000006248341521807040641_);}
	.st105{fill:url(#SVGID_00000119813882314385506310000013191916051742963338_);}
	.st106{fill-rule:evenodd;clip-rule:evenodd;fill:url(#SVGID_00000122684903092528886330000003718034671305109655_);}
	.st107{fill:url(#SVGID_00000066507880759899489070000009263599254571940515_);}
	.st108{fill:url(#SVGID_00000034082551925071291060000015927959598329587858_);}
	.st109{fill-rule:evenodd;clip-rule:evenodd;fill:#FFFFFF;stroke:#6D6D6D;stroke-width:11;stroke-miterlimit:10;}
	.st110{fill-rule:evenodd;clip-rule:evenodd;fill:#FFFFFF;stroke:#3D2EE0;stroke-width:11;stroke-miterlimit:10;}
</style>
<g>
	<g>
		<path class="st0" d="M92.56,175.78c0.6-24.18,9.25-43.54,27.69-58.17c11.47-9.1,20.35-20.07,24.46-34.33
			c1.25-4.35,1.96-8.93,2.31-13.45c0.52-6.77,6.03-10.16,12.12-6.97c12.17,6.37,20.17,16.23,24.1,29.35
			c2.6,8.69,3.07,17.57,2.02,26.56c-0.48,4.1,0.84,6.47,4.02,7.39c2.67,0.77,5.38-0.29,6.68-2.81c0.8-1.54,1.33-3.22,1.97-4.85
			c2.66-6.77,8.84-8.18,14.05-3.11c11.56,11.24,19.68,24.54,23.39,40.28c5.48,23.28,1.92,45.03-12.3,64.52
			c-11.2,15.36-26.55,24.22-45.28,27.13c-21.83,3.39-41.85-0.96-59.09-15.14c-14.53-11.95-22.49-27.75-25.23-46.25
			C92.94,182.3,92.81,178.6,92.56,175.78z"/>
	</g>
	<g>
		<path class="st7" d="M199.78,161c3.3-4,2.89-10.01-0.77-13.67c-2.45-2.45-8.42-4.81-13.67,0.44
			c-18.26,18.18-36.5,36.38-54.65,54.66c-4.59,4.62-4.65,10.4-0.56,14.48c3.98,3.96,9.97,3.88,14.53-0.65
			c18.28-18.14,36.49-36.35,54.59-54.67C199.43,161.4,199.61,161.21,199.78,161z"/>
		<path class="st7" d="M136.88,163.95c5.28,0.1,9.74-4.12,9.98-9.43c0.24-5.34-4.35-10.28-9.66-10.4c-5-0.11-9.76,4.44-9.99,9.56
			C126.96,159.12,131.41,163.85,136.88,163.95z"/>
		<path class="st7" d="M192.95,219.74c5.31-0.02,9.68-4.29,9.81-9.58c0.13-5.32-4.59-10.15-9.9-10.12c-5.11,0.03-9.67,4.54-9.78,9.7
			C182.95,215.26,187.4,219.76,192.95,219.74z"/>
	</g>
</g>
</svg>
