<svg width="36" height="37" viewBox="0 0 36 37" fill="none" xmlns="http://www.w3.org/2000/svg">
<g clip-path="url(#clip0_3107_844)">
<path d="M7.66406 13.6128V11.4104C7.66406 11.4104 7.66406 9.23633 10.6005 9.23633H15.3723" stroke="#3F3F46" stroke-width="1.2" stroke-linecap="round" stroke-linejoin="round"/>
<path d="M12.8311 6.79395L15.8663 9.2363L13.0569 11.7351" stroke="#3F3F46" stroke-width="1.2" stroke-linecap="round" stroke-linejoin="round"/>
<path d="M28.2524 24.3867V26.5891C28.2524 26.5891 28.2524 28.7632 25.3442 28.7632H20.6289" stroke="#3F3F46" stroke-width="1.2" stroke-linecap="round" stroke-linejoin="round"/>
<path d="M23.1701 31.2058L20.1348 28.7635L22.9442 26.2646" stroke="#3F3F46" stroke-width="1.2" stroke-linecap="round" stroke-linejoin="round"/>
<path d="M12.4467 19.5942C11.6981 19.4508 11.0309 19.0309 10.5779 18.418C10.1248 17.805 9.91912 17.044 10.0017 16.2863C10.0669 15.7342 10.2839 15.211 10.6285 14.7748C10.9731 14.3386 11.4319 14.0065 11.9539 13.8153C12.4759 13.6241 13.0407 13.5813 13.5855 13.6918C14.1304 13.8022 14.6339 14.0615 15.0403 14.4409C15.4466 14.8202 15.7399 15.3048 15.8874 15.8408C16.035 16.3768 16.0311 16.9431 15.8762 17.477C15.7213 18.0109 15.4214 18.4914 15.0099 18.8652C14.5983 19.2389 14.0913 19.4913 13.545 19.5942H14.6432C15.387 19.5185 16.1314 19.7313 16.7226 20.1888C17.3139 20.6462 17.7069 21.3133 17.8204 22.0522C17.9383 22.6864 18.0039 23.3293 18.0165 23.9742C18.0165 24.4841 18.0165 24.981 18.0165 25.4909C18.0184 25.6258 17.9928 25.7598 17.9412 25.8845C17.8896 26.0092 17.8131 26.1221 17.7165 26.2163C17.6198 26.3105 17.505 26.3841 17.379 26.4324C17.253 26.4808 17.1185 26.503 16.9836 26.4976H9.00804C8.76033 26.5157 8.51553 26.4351 8.32696 26.2735C8.13838 26.1119 8.02133 25.8823 8.00129 25.6347C7.99015 24.5075 8.05129 23.3808 8.18433 22.2614C8.22588 21.7787 8.38763 21.314 8.65484 20.9097C8.92204 20.5055 9.28619 20.1746 9.71407 19.9472C10.127 19.7591 10.5693 19.6441 11.0215 19.6073C11.4961 19.5794 11.9717 19.575 12.4467 19.5942Z" fill="#3D2EE0"/>
<path d="M25.848 21.8432C25.8358 21.2026 25.7702 20.564 25.6518 19.9343C25.5414 19.193 25.1497 18.5227 24.5581 18.0626C23.9665 17.6024 23.2204 17.3878 22.4747 17.4632H21.3764C22.1286 17.3346 22.8042 16.9261 23.2675 16.3197C23.7308 15.7133 23.9474 14.9541 23.8737 14.1945C23.8157 13.6397 23.6045 13.112 23.2638 12.6703C22.9231 12.2287 22.4662 11.8905 21.9443 11.6936C21.4224 11.4967 20.856 11.4488 20.3084 11.5554C19.7609 11.6619 19.2538 11.9186 18.8438 12.2969C18.4338 12.6751 18.137 13.1599 17.9868 13.6971C17.8365 14.2343 17.8386 14.8027 17.9929 15.3388C18.1472 15.8748 18.4475 16.3574 18.8603 16.7326C19.2731 17.1078 19.7821 17.3607 20.3304 17.4632C19.8296 17.437 19.3277 17.437 18.8269 17.4632C18.3729 17.4988 17.9296 17.6185 17.5194 17.8162C16.914 18.1277 16.4474 18.6549 16.2119 19.2937C16.7777 19.4067 17.2953 19.6904 17.695 20.1065C18.0947 20.5226 18.3574 21.0511 18.4477 21.6209C18.5685 22.2723 18.6341 22.9328 18.6438 23.5952C18.6438 23.8436 18.6438 24.1051 18.6438 24.3666H24.8151C24.9499 24.372 25.0845 24.3498 25.2105 24.3014C25.3365 24.253 25.4513 24.1795 25.548 24.0853C25.6446 23.9911 25.7211 23.8782 25.7726 23.7535C25.8242 23.6288 25.8498 23.4948 25.848 23.3599C25.861 22.85 25.8741 22.3531 25.848 21.8432Z" fill="#3D2EE0"/>
</g>
<defs>
<clipPath id="clip0_3107_844">
<rect width="24" height="26.8235" fill="white" transform="translate(6 5.08789)"/>
</clipPath>
</defs>
</svg>
