<svg width="24" height="24" viewBox="0 0 24 24" fill="none" xmlns="http://www.w3.org/2000/svg">
<path d="M19.8794 16.295C19.485 15.9607 18.9665 15.8172 18.4549 15.9024L13.4901 16.7301C13.4644 16.3014 13.2924 15.9012 12.9867 15.5956C12.6565 15.266 12.2237 15.0875 11.7506 15.0869C8.59302 15.0962 6.50993 15.0968 6.04967 15.0881C5.72826 14.7299 5.26742 14.5001 4.75 14.5001H3.58333C3.26133 14.5001 3 14.7614 3 15.0834V20.9167C3 21.2387 3.26133 21.5001 3.58333 21.5001H4.75C5.26509 21.5001 5.72417 21.272 6.04501 20.9167H11.75C11.7909 20.9167 11.8323 20.9126 11.8719 20.9039L19.1111 19.3528C19.9155 19.1801 20.4995 18.458 20.4995 17.6349C20.5 17.1175 20.2737 16.6292 19.8794 16.295ZM4.75 20.3334H4.16667V15.6667H4.75C5.07142 15.6667 5.33334 15.9286 5.33334 16.2501V19.7501C5.33334 20.0715 5.07142 20.3334 4.75 20.3334ZM18.8673 18.2118L11.6882 19.7501H6.50001V16.2582C7.22568 16.2641 8.6951 16.2623 11.7535 16.2536H11.7553C11.9093 16.2536 12.0534 16.3131 12.1624 16.4216C12.2727 16.5318 12.3334 16.6782 12.3334 16.8351C12.3334 17.156 12.0726 17.4167 11.7518 17.4167H8.83335C8.51135 17.4167 8.25001 17.6781 8.25001 18.0001C8.25001 18.3221 8.51135 18.5834 8.83335 18.5834H11.7518C12.2739 18.5834 12.7382 18.3483 13.059 17.9843L18.6468 17.0527C18.8206 17.0247 18.9904 17.0708 19.1251 17.1846C19.2593 17.2989 19.3334 17.4587 19.3334 17.6349C19.3334 17.9114 19.1374 18.1541 18.8673 18.2118Z" fill="#6D6D6D"/>
<ellipse cx="12.8947" cy="8.27981" rx="6.15788" ry="5.81579" fill="#6D6D6D" stroke="#6D6D6D" stroke-width="1.29764"/>
<path d="M17.3079 8.27982C17.3079 11.4874 14.7076 14.0877 11.5 14.0877C8.29236 14.0877 5.69207 11.4874 5.69207 8.27982C5.69207 5.07218 8.29236 2.47189 11.5 2.47189C14.7076 2.47189 17.3079 5.07218 17.3079 8.27982Z" fill="white" stroke="#6D6D6D" stroke-width="1.38415"/>
<path fill-rule="evenodd" clip-rule="evenodd" d="M9.11421 10.5243L9.37105 8.99211L8.28849 7.91264C8.11638 7.74126 8.05792 7.48994 8.13609 7.26292C8.21426 7.0359 8.41658 6.87027 8.65964 6.83382L10.1291 6.61511L10.7919 5.24021C10.8996 5.01574 11.1315 4.8725 11.3864 4.8725C11.6413 4.8725 11.8732 5.01574 11.9809 5.24021L12.6437 6.61511L14.1125 6.83382C14.3556 6.86963 14.5572 7.03526 14.6361 7.26292C14.7149 7.49058 14.6558 7.74126 14.4837 7.91264L13.4018 8.99211L13.6586 10.5243C13.6993 10.7661 13.5942 11.0097 13.3886 11.1504C13.2756 11.2278 13.1429 11.2674 13.0102 11.2674C12.9012 11.2674 12.7922 11.2406 12.6923 11.1875L11.3864 10.4847L10.0805 11.1875C9.8611 11.3058 9.59045 11.2911 9.38419 11.1504C9.17858 11.0091 9.07348 10.7661 9.11421 10.5243ZM12.0356 7.56306L11.468 6.40521L10.9005 7.56306L9.59395 7.73072L10.5497 8.61398L10.3098 9.87546L11.468 9.26348L12.6263 9.87546L12.3863 8.61398L13.3421 7.73072L12.0356 7.56306Z" fill="#6D6D6D"/>
</svg>
