<svg width="16" height="16" viewBox="0 0 16 16" fill="none" xmlns="http://www.w3.org/2000/svg">
<g clip-path="url(#clip0_3083_1057)">
<path d="M13.3127 6.66655H2.64602V11.9999C2.64602 13.9999 3.31268 14.6665 5.31268 14.6665H10.646C12.646 14.6665 13.3127 13.9999 13.3127 11.9999V6.66655ZM14.3327 4.66655V5.33321C14.3327 6.06655 13.9793 6.66655 12.9993 6.66655H2.99935C1.97935 6.66655 1.66602 6.06655 1.66602 5.33321V4.66655C1.66602 3.93321 1.97935 3.33321 2.99935 3.33321H12.9993C13.9793 3.33321 14.3327 3.93321 14.3327 4.66655ZM7.75935 3.33321H4.07935C3.96973 3.21432 3.91055 3.05751 3.91428 2.89584C3.91801 2.73417 3.98436 2.58026 4.09935 2.46655L5.04602 1.51988C5.16583 1.40141 5.32752 1.33496 5.49602 1.33496C5.66451 1.33496 5.82621 1.40141 5.94602 1.51988L7.75935 3.33321ZM11.9127 3.33321H8.23268L10.046 1.51988C10.1658 1.40141 10.3275 1.33496 10.496 1.33496C10.6645 1.33496 10.8262 1.40141 10.946 1.51988L11.8927 2.46655C12.1327 2.70655 12.1393 3.08655 11.9127 3.33321Z" stroke="#202326" stroke-width="0.8" stroke-miterlimit="10" stroke-linecap="round" stroke-linejoin="round"/>
<path d="M5.95996 6.66602V10.0927C5.95996 10.626 6.54663 10.9393 6.99329 10.6527L7.61996 10.2393C7.72881 10.1677 7.85629 10.1295 7.98663 10.1295C8.11696 10.1295 8.24444 10.1677 8.35329 10.2393L8.94663 10.6393C9.04675 10.7061 9.16311 10.7444 9.28329 10.7502C9.40348 10.756 9.52298 10.729 9.62906 10.6722C9.73513 10.6154 9.8238 10.5309 9.8856 10.4277C9.9474 10.3244 9.98001 10.2063 9.97996 10.086V6.66602H5.95996Z" stroke="#202326" stroke-width="0.8" stroke-miterlimit="10" stroke-linecap="round" stroke-linejoin="round"/>
</g>
<defs>
<clipPath id="clip0_3083_1057">
<rect width="16" height="16" rx="4" fill="white"/>
</clipPath>
</defs>
</svg>
