<svg width="24" height="24" viewBox="0 0 24 24" fill="none" xmlns="http://www.w3.org/2000/svg">
<path d="M18.0969 9.6976V8.1712C18.0969 7.0384 17.66 5.98 16.9329 5.1424C15.8274 3.8376 14.0222 3 11.9853 3C8.60851 3 5.87281 5.3144 5.87281 8.1712V9.6976C5.34894 10.116 5 10.7072 5 11.372V18.7592C5 19.9904 6.16407 21 7.61939 21H16.3806C17.8066 21 19 19.9904 19 18.7592V11.372C19 10.7072 18.6501 10.116 18.0969 9.6976ZM16.4676 9.156C16.4383 9.156 16.409 9.1312 16.3806 9.1312H7.61939C7.59007 9.1312 7.53239 9.156 7.50307 9.156V8.1712C7.50307 6.0784 9.51158 4.3544 11.9853 4.3544C13.0038 4.3544 13.9352 4.6496 14.6917 5.1672C15.7688 5.832 16.4676 6.94 16.4676 8.1712V9.156Z" fill="#6D6D6D"/>
<path d="M13.6876 13.4392C13.6876 12.6328 12.915 11.9784 11.9608 11.9784C11.0067 11.9784 10.2341 12.632 10.2341 13.4392C10.2341 14.0064 10.6209 14.4928 11.1788 14.7344C11.0909 14.8544 11.0275 14.988 11.0275 15.14V16.8112C11.0275 17.2472 11.4455 17.6008 11.9608 17.6008C12.4762 17.6008 12.8942 17.2472 12.8942 16.8112V15.14C12.8942 14.988 12.8299 14.8544 12.7429 14.7344C13.3008 14.4936 13.6876 14.0072 13.6876 13.4392Z" fill="white"/>
</svg>
