<svg width="16" height="16" viewBox="0 0 16 16" fill="none" xmlns="http://www.w3.org/2000/svg">
<g clip-path="url(#clip0_3083_1056)">
<path d="M12.6766 4.94407C12.7031 5.96492 12.5937 6.98481 12.351 7.97812C12.3235 8.10982 12.2889 8.24003 12.2474 8.36822C12.2338 8.42092 12.2093 8.47039 12.1756 8.51367C12.142 8.55695 12.0997 8.59316 12.0513 8.62013C12.003 8.6471 11.9496 8.66428 11.8943 8.67065C11.839 8.67701 11.7829 8.67243 11.7295 8.65718C11.6303 8.62707 11.547 8.56047 11.4973 8.47147C11.4476 8.38248 11.4353 8.27808 11.4631 8.1804C11.4631 7.94923 11.5815 7.73251 11.6111 7.51579C11.6999 6.67781 11.7739 5.83984 11.8479 5.00186C11.8627 4.76128 11.8627 4.52005 11.8479 4.27947C11.8479 3.62931 11.8479 3.61486 11.1967 3.3837L7.00853 1.86667C6.89308 1.83022 6.7688 1.83022 6.65335 1.86667L2.08041 3.51373C1.99132 3.53128 1.9125 3.58151 1.8602 3.65408C1.80789 3.72664 1.78607 3.81602 1.79923 3.90382C1.79923 4.88628 1.79923 5.88318 1.94722 6.7934C2.13194 8.13664 2.59133 9.42994 3.29808 10.5965C4.00484 11.763 4.94455 12.7789 6.06138 13.5839L6.32777 13.7573C6.83094 14.104 6.83094 14.104 7.33411 13.7573L7.88168 13.3527C7.95579 13.2847 8.05371 13.2468 8.15546 13.2468C8.25722 13.2468 8.35513 13.2847 8.42925 13.3527C8.46986 13.3866 8.50247 13.4287 8.52483 13.4761C8.54719 13.5235 8.55877 13.5751 8.55877 13.6272C8.55877 13.6794 8.54719 13.731 8.52483 13.7784C8.50247 13.8258 8.46986 13.8678 8.42925 13.9018C7.98527 14.2341 7.5265 14.523 7.06772 14.8264C6.99749 14.8718 6.91515 14.896 6.83094 14.896C6.74673 14.896 6.66438 14.8718 6.59415 14.8264C5.08274 13.9447 3.80116 12.7331 2.84997 11.2867C1.67649 9.5635 1.03442 7.54763 1.00007 5.47864C1.00007 4.79959 1.00007 4.13499 1.00007 3.47039C0.992589 3.35738 1.02533 3.24532 1.09275 3.15317C1.16017 3.06102 1.25813 2.99445 1.37005 2.96471L6.49056 1.14427C6.70005 1.06519 6.93222 1.06519 7.14172 1.14427C8.87322 1.77998 10.5899 2.40124 12.3214 3.00805C12.4292 3.04273 12.5223 3.11099 12.5865 3.20234C12.6506 3.2937 12.6823 3.4031 12.6766 3.51373V4.94407Z" fill="#202326"/>
<path fill-rule="evenodd" clip-rule="evenodd" d="M7.4313 3.93473V11.4239C8.28511 10.6059 8.95838 9.62589 9.40908 8.54395C9.89334 7.38144 10.1088 6.1299 10.0409 4.8783L7.4313 3.93473ZM7.06809 12.2258C6.98419 12.1863 6.91571 12.1213 6.873 12.0405C6.83028 11.9597 6.81565 11.8676 6.8313 11.7779V3.78825C6.8313 3.31147 7.05329 3.15254 7.51206 3.32591L10.3091 4.33726C10.4029 4.3626 10.4856 4.41734 10.5444 4.49304C10.6032 4.56875 10.635 4.66123 10.6347 4.75625C10.7229 6.12799 10.4933 7.5015 9.96294 8.77467C9.43258 10.0479 8.6151 11.188 7.57126 12.1102C7.51322 12.1823 7.43182 12.233 7.3404 12.254C7.24898 12.275 7.15296 12.2651 7.06809 12.2258Z" fill="#202326"/>
<path d="M13.357 10.6167H13.3759L13.3911 10.6155L13.3914 10.616L13.3965 10.6249C13.7539 11.25 14.1258 11.8745 14.495 12.4945L14.4961 12.4963L14.4986 12.5006C14.1121 13.1247 13.7409 13.748 13.3705 14.3845H11.1323L11.1218 14.3671L10.0119 12.5178L10.012 12.5177L10.0052 12.507C10.002 12.5019 10.001 12.4973 10.001 12.4933C10.001 12.4894 10.002 12.4847 10.0052 12.4797L10.0101 12.472L10.0147 12.4642C10.1484 12.2358 10.2868 12.0031 10.4267 11.7679C10.6507 11.3911 10.8787 11.0077 11.0976 10.6249L11.0977 10.6249L11.1019 10.6172C11.1019 10.6172 11.1019 10.6172 11.1019 10.6172C11.1032 10.6165 11.1057 10.6157 11.1088 10.6159L11.123 10.6167H11.1371H12.2618H13.357ZM13.9722 12.4445C13.9249 12.0252 13.721 11.6403 13.4032 11.3624C13.0857 11.0848 12.6766 10.9328 12.2544 10.9328C11.8323 10.9328 11.4232 11.0848 11.1057 11.3624C10.7879 11.6403 10.584 12.0252 10.5367 12.4445C10.5097 12.6836 10.5346 12.9255 10.6098 13.1542C10.6849 13.3829 10.8083 13.5927 10.9711 13.7702C11.1339 13.9476 11.3325 14.0888 11.5535 14.1852C11.7745 14.2815 12.0133 14.3312 12.2544 14.3312C12.4956 14.3312 12.7344 14.2815 12.9554 14.1852C13.1764 14.0888 13.3749 13.9476 13.5378 13.7702C13.7006 13.5927 13.824 13.3829 13.8991 13.1542C13.9743 12.9255 13.9992 12.6836 13.9722 12.4445Z" fill="black" stroke="#202326"/>
</g>
<defs>
<clipPath id="clip0_3083_1056">
<rect width="14" height="14" fill="white" transform="translate(1 1)"/>
</clipPath>
</defs>
</svg>
