<svg width="36" height="37" viewBox="0 0 36 37" fill="none" xmlns="http://www.w3.org/2000/svg">
<path d="M16.4212 14.2588H15.54V29.4655H16.4212V14.2588Z" fill="#3D2EE0"/>
<path d="M21.9808 18.4893H21.0996V29.4449H21.9808V18.4893Z" fill="#3D2EE0"/>
<path d="M27.5414 13.6123H26.6602V29.2766H27.5414V13.6123Z" fill="#3D2EE0"/>
<path fill-rule="evenodd" clip-rule="evenodd" d="M16.5754 27.6125H15.3862C14.6267 27.6125 14.0107 27.0802 14.0107 26.4237V17.2991C14.0107 16.6427 14.6267 16.1104 15.3862 16.1104H16.5754C17.335 16.1104 17.9509 16.6427 17.9509 17.2991V26.4237C17.9509 27.0802 17.335 27.6125 16.5754 27.6125Z" fill="#3D2EE0"/>
<path fill-rule="evenodd" clip-rule="evenodd" d="M22.0183 27.8439H21.1075C20.2712 27.8439 19.5928 27.2575 19.5928 26.5348V21.3999C19.5928 20.6772 20.2712 20.0908 21.1075 20.0908H22.0183C22.8545 20.0908 23.533 20.6772 23.533 21.3999V26.5348C23.5341 27.2575 22.8556 27.8439 22.0183 27.8439Z" fill="#3D2EE0"/>
<path d="M11.222 17.3672H10.3408V29.5002H11.222V17.3672Z" fill="#3D2EE0"/>
<path fill-rule="evenodd" clip-rule="evenodd" d="M11.2585 28.0325H10.3477C9.51144 28.0325 8.83301 27.4462 8.83301 26.7235V20.144C8.83301 19.4213 9.51144 18.835 10.3477 18.835H11.2585C12.0948 18.835 12.7732 19.4213 12.7732 20.144V26.7235C12.7743 27.4462 12.0959 28.0325 11.2585 28.0325Z" fill="#3D2EE0"/>
<path fill-rule="evenodd" clip-rule="evenodd" d="M27.4851 27.2433H26.5743C25.738 27.2433 25.0596 26.657 25.0596 25.9342V16.9536C25.0596 16.2309 25.738 15.6445 26.5743 15.6445H27.4851C28.3213 15.6445 28.9998 16.2309 28.9998 16.9536V25.9342C28.9998 26.657 28.3213 27.2433 27.4851 27.2433Z" fill="#3D2EE0"/>
<path fill-rule="evenodd" clip-rule="evenodd" d="M23.846 7.78387L24.6922 8.9577L20.0483 12.3017L17.0562 8.12254L17.0518 8.12583L16.9882 8.03814L7 16.0556H10.6792L16.415 11.5279L19.554 15.9141L19.6088 15.8747L19.6176 15.8867L26.2452 11.1158L27.0913 12.2896L28.9995 7.5L23.846 7.78387Z" fill="#3F3F46"/>
</svg>
