<svg width="16" height="16" viewBox="0 0 16 16" fill="none" xmlns="http://www.w3.org/2000/svg">
<path d="M5.67961 7.16C7.24258 7.16 8.50961 5.89297 8.50961 4.33C8.50961 2.76703 7.24258 1.5 5.67961 1.5C4.11664 1.5 2.84961 2.76703 2.84961 4.33C2.84961 5.89297 4.11664 7.16 5.67961 7.16Z" stroke="#202326" stroke-miterlimit="10"/>
<path d="M1.52967 14.4202C1.42316 13.0833 1.82077 11.7549 2.64428 10.6963C3.4678 9.6378 4.65761 8.92573 5.97967 8.7002" stroke="#202326" stroke-miterlimit="10" stroke-linecap="round"/>
<path d="M10.5499 15.5002C12.5768 15.5002 14.2199 13.857 14.2199 11.8302C14.2199 9.80327 12.5768 8.16016 10.5499 8.16016C8.523 8.16016 6.87988 9.80327 6.87988 11.8302C6.87988 13.857 8.523 15.5002 10.5499 15.5002Z" stroke="#202326" stroke-miterlimit="10"/>
<path d="M10.5892 14.2051C10.4617 14.1815 10.347 14.118 10.2646 14.0253C10.1822 13.9327 10.1372 13.8167 10.1372 13.6969C10.1372 13.5772 10.1822 13.4612 10.2646 13.3685C10.347 13.2759 10.4617 13.2124 10.5892 13.1888C10.7166 13.2124 10.8313 13.2759 10.9137 13.3685C10.9961 13.4612 11.0411 13.5772 11.0411 13.6969C11.0411 13.8167 10.9961 13.9327 10.9137 14.0253C10.8313 14.118 10.7166 14.1815 10.5892 14.2051ZM10.5892 9.20508C10.8209 9.20508 11.0858 9.20508 11.0969 9.47947C11.1057 9.58432 11.1057 9.68965 11.0969 9.79451C11.0417 10.4144 10.8651 11.827 10.7989 12.8433H10.4126C10.3353 11.888 10.1697 10.4754 10.1035 9.79451C10.1035 9.69288 10.1035 9.55061 10.1035 9.46931C10.1035 9.38801 10.3353 9.20508 10.5781 9.20508H10.5892Z" fill="#202326"/>
</svg>
