<svg width="24" height="24" viewBox="0 0 24 24" fill="none" xmlns="http://www.w3.org/2000/svg">
<path d="M10.533 11.2749C12.8422 11.2749 14.7142 9.40291 14.7142 7.09371C14.7142 4.78452 12.8422 2.91255 10.533 2.91255C8.22379 2.91255 6.35181 4.78452 6.35181 7.09371C6.35181 9.40291 8.22379 11.2749 10.533 11.2749Z" fill="white"/>
<path d="M10.533 11.902C7.8821 11.902 5.72461 9.74456 5.72461 7.09371C5.72461 4.44285 7.8821 2.28537 10.533 2.28537C13.1838 2.28537 15.3413 4.44285 15.3413 7.09371C15.3413 9.74456 13.1838 11.902 10.533 11.902ZM10.533 3.53972C8.57304 3.53972 6.97896 5.13379 6.97896 7.09371C6.97896 9.05363 8.57304 10.6477 10.533 10.6477C12.4929 10.6477 14.087 9.05363 14.087 7.09371C14.087 5.13379 12.4929 3.53972 10.533 3.53972Z" fill="#6D6D6D"/>
<path d="M17.3274 19.01C17.3274 15.2574 14.2856 12.2156 10.5329 12.2156C6.78034 12.2156 3.73853 15.2574 3.73853 19.01H17.3274Z" fill="white"/>
<path d="M17.9545 19.6372H3.11133V19.01C3.11133 14.9177 6.4406 11.5885 10.5329 11.5885C14.6253 11.5885 17.9545 14.9177 17.9545 19.01V19.6372ZM4.39704 18.3828H16.6678C16.3521 15.2752 13.7211 12.8428 10.5319 12.8428C7.34269 12.8428 4.71272 15.2752 4.39704 18.3828Z" fill="#6D6D6D"/>
<path d="M15.9894 21.9368C18.8182 21.9368 21.1113 19.6437 21.1113 16.8149C21.1113 13.9861 18.8182 11.693 15.9894 11.693C13.1606 11.693 10.8674 13.9861 10.8674 16.8149C10.8674 19.6437 13.1606 21.9368 15.9894 21.9368Z" fill="#6D6D6D"/>
<path d="M16.7336 16.5985C16.697 16.2076 16.3542 15.9065 15.9611 15.9065C15.6987 15.9065 15.2524 16.0989 15.2514 16.6612C15.243 18.6128 15.2378 18.0044 15.2409 19.956C15.242 20.4494 15.5482 20.763 15.9852 20.763C16.4106 20.763 16.7273 20.4379 16.7305 19.9508C16.7409 17.9992 16.7451 18.6097 16.7378 16.6581C16.7357 16.6382 16.7346 16.6184 16.7336 16.5985Z" fill="white"/>
<path d="M15.7384 15.2177C16.1168 15.3546 16.5391 15.1654 16.6854 14.7923C16.8339 14.417 16.6238 13.9508 16.2454 13.8139C15.8816 13.6822 15.4395 13.885 15.2962 14.2487C15.1447 14.6376 15.3433 15.0745 15.7384 15.2177Z" fill="white"/>
</svg>
