<?xml version="1.0" encoding="utf-8"?>
<!-- Generator: Adobe Illustrator 27.5.0, SVG Export Plug-In . SVG Version: 6.00 Build 0)  -->
<svg version="1.1" id="Layer_1" xmlns="http://www.w3.org/2000/svg" xmlns:xlink="http://www.w3.org/1999/xlink" x="0px" y="0px"
	 viewBox="0 0 324 324" style="enable-background:new 0 0 324 324;" xml:space="preserve">
<style type="text/css">
	.st0{fill:#6D6D6D;}
	.st1{fill-rule:evenodd;clip-rule:evenodd;fill:#FFFFFF;}
	.st2{fill-rule:evenodd;clip-rule:evenodd;fill:#6D6D6D;}
	.st3{fill:#5245E3;}
	.st4{fill-rule:evenodd;clip-rule:evenodd;fill:url(#SVGID_1_);}
	.st5{fill-rule:evenodd;clip-rule:evenodd;fill:#3D2EE0;}
	.st6{fill-rule:evenodd;clip-rule:evenodd;fill:url(#SVGID_00000060028409605906653350000003038996617547597722_);}
	.st7{fill:#FFFFFF;}
	
		.st8{fill-rule:evenodd;clip-rule:evenodd;fill:none;stroke:#FFFFFF;stroke-width:8;stroke-linecap:round;stroke-linejoin:round;stroke-miterlimit:10;}
	.st9{fill:#DCEAFD;}
	.st10{fill:#F8F8F8;}
	.st11{fill:#E3FFF7;}
	.st12{fill:#CAFFF0;}
	.st13{fill:#B1FFE9;}
	.st14{fill:#98FFE2;}
	.st15{fill:#7FFFDC;}
	.st16{fill:#66FED5;}
	.st17{fill:#4DFECE;}
	.st18{fill:#34FEC7;}
	.st19{fill:#1BFEC0;}
	.st20{fill:#E2E1EA;}
	.st21{fill:#C8C7D8;}
	.st22{fill:#AFACC6;}
	.st23{fill:#9592B4;}
	.st24{fill:#7B78A2;}
	.st25{fill:#615D8F;}
	.st26{fill:#48437D;}
	.st27{fill:#2E286B;}
	.st28{fill:#140E59;}
	.st29{fill:#E7E5FB;}
	.st30{fill:#D2CEF8;}
	.st31{fill:#BDB7F4;}
	.st32{fill:#A7A0F1;}
	.st33{fill:#928AEE;}
	.st34{fill:#7D73EA;}
	.st35{fill:#685CE7;}
	.st36{fill:#3D2EE0;}
	.st37{fill:#CCCCCC;}
	.st38{fill:#FF3EFF;}
	.st39{fill:#FFFFFF;stroke:#000000;stroke-miterlimit:10;}
	.st40{fill:url(#SVGID_00000078043576263228183840000000129573670430813603_);}
	.st41{fill:url(#SVGID_00000104674500285917246750000011420222561800844978_);}
	.st42{fill:url(#SVGID_00000004509576771706029720000000616891882071922327_);}
	.st43{fill:#1AE8B7;}
	.st44{fill:#1AD2AD;}
	.st45{fill:#19BDA4;}
	.st46{fill:#18A79B;}
	.st47{fill:#189191;}
	.st48{fill:#177B88;}
	.st49{fill:#17657E;}
	.st50{fill:#164F75;}
	.st51{fill:#153A6C;}
	.st52{fill:#152462;}
	.st53{fill:#EA3AF0;}
	.st54{fill:#D435E1;}
	.st55{fill:#BF31D2;}
	.st56{fill:#AA2DC3;}
	.st57{fill:#9428B4;}
	.st58{fill:#7F24A4;}
	.st59{fill:#691F95;}
	.st60{fill:#541B86;}
	.st61{fill:#3F1777;}
	.st62{fill:#291268;}
	.st63{fill:#4C40D6;}
	.st64{fill:#473BCA;}
	.st65{fill:#4136BD;}
	.st66{fill:#3B31B1;}
	.st67{fill:#362CA4;}
	.st68{fill:#302798;}
	.st69{fill:#2B228B;}
	.st70{fill:#251D7F;}
	.st71{fill:#1F1872;}
	.st72{fill:#1A1366;}
	.st73{fill:#17D5A8;}
	.st74{fill:url(#SVGID_00000122714122929800285330000017628976033759707526_);}
	.st75{fill:url(#SVGID_00000078038801863878494230000012157787609753092512_);}
	.st76{fill:url(#SVGID_00000171695943052031101320000004741206772780797102_);}
	.st77{fill:#FFFFFF;stroke:#3D2EE0;stroke-width:12;stroke-miterlimit:10;}
	.st78{fill:url(#SVGID_00000120555936070722936110000011413086708332318370_);}
	.st79{fill:url(#SVGID_00000115509180857289750780000006933774426605264524_);}
	.st80{fill:url(#SVGID_00000116198696325115703800000008466730131971656370_);}
	.st81{fill:url(#SVGID_00000145026257864712583140000016731748133435370374_);}
	.st82{fill:url(#SVGID_00000176722921473767165540000012265128924630455224_);}
	.st83{fill-rule:evenodd;clip-rule:evenodd;fill:url(#SVGID_00000059283882905772176560000004896954768675948703_);}
	.st84{fill-rule:evenodd;clip-rule:evenodd;fill:url(#SVGID_00000076572750443807493450000006616080634353545623_);}
	.st85{fill:#FFFFFF;stroke:#3D2EE0;stroke-width:8;stroke-miterlimit:10;}
	.st86{fill:url(#SVGID_00000166657357195629870850000008625351643723482762_);}
	.st87{fill:url(#SVGID_00000101822871084100256140000017623234576360701074_);}
	.st88{fill:url(#SVGID_00000077285446698935708060000011484125115888936838_);}
	.st89{fill:url(#SVGID_00000143576745240964265920000002252959805154487991_);}
	.st90{fill:url(#SVGID_00000053516064171167140250000002047740320843820221_);}
	.st91{fill:url(#SVGID_00000109752203536132482750000001309937461434320571_);}
	.st92{fill:url(#SVGID_00000032636748984136614640000000556552929196654268_);}
	.st93{fill:url(#SVGID_00000075875032167238564440000015746997774310463935_);}
	.st94{fill:url(#SVGID_00000108990560151014932900000000934697285879498915_);}
	.st95{fill:url(#SVGID_00000142855656051828487380000002381683975307538084_);}
	.st96{fill:url(#SVGID_00000078043694492356327230000000572126981564590736_);}
	.st97{fill-rule:evenodd;clip-rule:evenodd;fill:url(#SVGID_00000182508493622828576160000009341979421398837944_);}
	.st98{fill:url(#SVGID_00000020396415665538544200000015272904233213732525_);}
	.st99{fill:url(#SVGID_00000130621656320203134750000014437283309647741101_);}
	.st100{fill:url(#SVGID_00000057860443377078471960000015746582726027269279_);}
	.st101{fill:url(#SVGID_00000074406307342374603460000000831268575694075821_);}
	.st102{fill:url(#SVGID_00000129193445244042309760000002615233687064342705_);}
	.st103{fill:url(#SVGID_00000147901106143627785370000016201185867334670508_);}
	.st104{fill:url(#SVGID_00000009579155910941582120000010943717628028600502_);}
	.st105{fill:url(#SVGID_00000183930798261730994060000010677222586935536010_);}
	.st106{fill-rule:evenodd;clip-rule:evenodd;fill:url(#SVGID_00000046335272658730903340000000524080098680343685_);}
	.st107{fill:url(#SVGID_00000132084912112067296660000011549466031636851646_);}
	.st108{fill:url(#SVGID_00000004507076143244763290000017801780605521963695_);}
	.st109{fill-rule:evenodd;clip-rule:evenodd;fill:#FFFFFF;stroke:#6D6D6D;stroke-width:11;stroke-miterlimit:10;}
	.st110{fill-rule:evenodd;clip-rule:evenodd;fill:#FFFFFF;stroke:#3D2EE0;stroke-width:11;stroke-miterlimit:10;}
</style>
<g>
	<g>
		<path class="st0" d="M176.23,125.67c-2.24-1.71-4.55-3.34-6.7-5.16c-1.59-1.34-2.84-1.38-4.46,0.02
			c-3.15,2.71-6.45,5.24-9.72,7.81c-1.17,0.92-2.42,1.38-4.02,1.39c-3.37,0-6.77-0.55-10.16-0.61c-5.62-0.09-6.1-0.07-6.64,5.38
			c-0.77,7.69-4.23,12.79-11.14,16.42c-6.68,3.51-6.54,4.04-3.43,11.03c2.74,6.16,4,11.83-0.19,18.21
			c-3.57,5.44-2.44,7.74,3.11,11.31c1.89,1.22,3.71,2.6,5.72,3.59c2.98,1.47,5.19,9.1,5.24,10.23c3.38,0,17.93,0.14,21.84,0.21
			c0.24-0.01,0.47-0.02,0.71-0.04c0.21-0.08,0.42-0.07,0.62,0.04c3.44,0,6.87,0,10.31,0c3.9,0.01,7.81,0.01,11.71,0.02
			c7.32-0.07,14.64-0.14,21.96-0.21c0.23-6.46,4.51-8.02,8.58-12.35c2.98-3.17,7.66-6.69,6.78-9.14c-1.16-3.21-2.36-6.41-3.73-9.53
			c-0.88-2.02-0.91-3.84-0.02-5.86c1.41-3.22,2.73-6.49,3.85-9.82c0.78-2.29,0.68-4.31-2.04-5.71c-2.9-1.49-5.43-3.67-8.26-5.3
			c-2.47-1.43-3.64-3.68-4.28-6.17c-1.23-4.81-1.53-6.81-2.38-9.53c-0.42-1.36-0.82-2.87-2.83-2.83c-3.66,0.09-7.14,1.05-11.3,1.79
			c-3.68,0.65-5.45-2.03-7.73-4.18"/>
		<path class="st0" d="M99.08,126.05c-1.36-2.39-2.79-4.74-4.06-7.17c-2.36-4.56-0.47-7.85,4.53-8.76c7.92-1.44,16-1.26,23.91-2.65
			c0.17,0.2,0.43,0.37,0.49,0.6c0.62,2.46,1.6,3.18,4.05,1.56c3.51-2.33,7.22-4.37,10.96-6.32c1.73-0.9,1.66-1.73,0.59-2.98
			c-0.4-0.47-0.76-0.96-1.14-1.44c4.44-6.16,8.89-12.32,13.32-18.49c0.88-1.23,1.74-2.5,3.12-3.21c3.06-1.58,6.09-0.4,8.21,3.13
			c1.27,2.12,2.54,4.24,3.8,6.37c-0.3,0.87-1.16,1.04-1.82,1.43c-6.79,3.95-13.57,7.94-20.44,11.75c-1.52,0.84-1.31,1.56-0.64,2.66
			c1.23,2.02,2.46,4.05,3.69,6.07c-0.02,0.17-0.03,0.34-0.02,0.51c-6.63,3.76-13.25,7.53-19.88,11.29c-0.15-0.03-0.3-0.05-0.45-0.08
			c-0.71-2.01-2.08-3.66-3.02-5.54c-0.92-1.84-1.75-2.19-3.6-1.1C113.53,117.89,106.29,121.94,99.08,126.05z"/>
		<path class="st0" d="M138.41,98.89c0.38,0.48,0.74,0.98,1.14,1.44c1.07,1.25,1.14,2.07-0.59,2.98c-3.74,1.95-7.45,3.99-10.96,6.32
			c-2.45,1.63-3.43,0.9-4.05-1.56c-0.06-0.23-0.32-0.4-0.49-0.6c0.21-1.57-0.12-3.15,0.49-4.73
			C126.28,96.72,132.89,94.92,138.41,98.89z"/>
		<path class="st10" d="M184.42,94.17c-0.17-0.18-0.34-0.37-0.5-0.55C184.08,93.8,184.25,93.98,184.42,94.17z"/>
		<path class="st10" d="M114.37,146.53c0.18-0.13,0.36-0.26,0.54-0.38C114.73,146.27,114.55,146.4,114.37,146.53z"/>
		<g>
			<polygon class="st7" points="176.94,206.07 155.78,206.07 113.47,206.07 113.47,247.5 155.78,247.5 176.94,247.5 219.25,247.5 
				219.25,206.07 			"/>
			<path class="st0" d="M225.25,253.5H107.47v-53.43h117.77V253.5z M119.47,241.5h93.77v-29.43h-93.77V241.5z"/>
		</g>
		<g>
			
				<rect x="92.74" y="107.83" transform="matrix(0.866 -0.5 0.5 0.866 -42.4139 88.0813)" class="st7" width="100.82" height="30.71"/>
			<path class="st0" d="M104.98,169.89L83.62,132.9l97.71-56.41l21.35,36.99L104.98,169.89z M100.02,137.29l9.35,16.2l76.92-44.41
				l-9.35-16.2L100.02,137.29z"/>
		</g>
	</g>
	<g>
		<path class="st7" d="M193.19,163.79c2.72-1.59,3.75-5.1,2.42-7.96c-0.89-1.91-3.8-4.51-7.89-2.61
			c-14.23,6.55-28.44,13.12-42.63,19.75c-3.59,1.68-4.83,4.96-3.35,8.15c1.44,3.09,4.88,4.3,8.43,2.67
			c14.23-6.53,28.43-13.1,42.6-19.77C192.91,163.95,193.05,163.87,193.19,163.79z"/>
		<path class="st7" d="M156.69,152.31c2.99,1.16,6.42-0.31,7.67-3.29c1.25-3-0.33-6.78-3.34-7.96c-2.83-1.11-6.5,0.49-7.7,3.37
			C152.04,147.48,153.59,151.1,156.69,152.31z"/>
		<path class="st7" d="M177,195.88c3.04,1.1,6.42-0.42,7.6-3.41c1.19-3.01-0.5-6.75-3.53-7.85c-2.92-1.06-6.47,0.57-7.61,3.48
			C172.23,191.23,173.83,194.73,177,195.88z"/>
	</g>
</g>
</svg>
